<svg id="Layer_1" data-name="Layer 1" xmlns="http://www.w3.org/2000/svg" viewBox="0 0 505.34996 196.65"><defs><style>.cls-1{fill:none;}.cls-1,.cls-4,.cls-5,.cls-6,.cls-7{stroke:#3d4752;stroke-miterlimit:10;}.cls-1,.cls-4,.cls-6,.cls-7{stroke-width:0.9px;}.cls-2,.cls-6{fill:#3d4752;}.cls-3{fill:#fff;}.cls-4,.cls-5{fill:#abddf3;}.cls-5{stroke-width:2.7px;}.cls-7{fill:#d6d6d6;}</style></defs><title>bpmn-20</title><path class="cls-1" d="M362.025,255.96V217.91254a2.22815,2.22815,0,0,1,2.25-2.25h32.75159" transform="translate(-163.12498 -192.37501)"/><polygon class="cls-2" points="232.118 25.902 241.875 23.288 232.118 20.673 232.118 25.902"/><path class="cls-1" d="M487.575,215.66254H507.6a2.25655,2.25655,0,0,1,2.25,2.25V280.44a2.22811,2.22811,0,0,0,2.25,2.25h12.05151" transform="translate(-163.12498 -192.37501)"/><polygon class="cls-2" points="359.243 92.93 369 90.315 359.243 87.7 359.243 92.93"/><path class="cls-1" d="M362.025,325.44v38.04752a2.22817,2.22817,0,0,0,2.25,2.25h32.8866" transform="translate(-163.12498 -192.37501)"/><polygon class="cls-2" points="232.253 175.977 242.01 173.363 232.253 170.748 232.253 175.977"/><path class="cls-1" d="M487.71,365.73752h19.935a2.22815,2.22815,0,0,0,2.25-2.25V304.92a2.28641,2.28641,0,0,1,2.25-2.25h12.00653" transform="translate(-163.12498 -192.37501)"/><polygon class="cls-2" points="359.243 112.91 369 110.295 359.243 107.68 359.243 112.91"/><line class="cls-1" x1="27.45" y1="98.325" x2="44.90157" y2="98.325"/><polygon class="cls-2" points="43.118 100.94 52.875 98.325 43.118 95.71 43.118 100.94"/><polygon class="cls-2" points="27.45 98.775 27.405 98.775 27.45 98.325 27.405 97.875 27.45 97.875 27.45 98.775"/><line class="cls-1" x1="135.45" y1="98.325" x2="153.89156" y2="98.325"/><polygon class="cls-2" points="152.108 100.94 161.865 98.325 152.108 95.71 152.108 100.94"/><polygon class="cls-2" points="199.35 64.53 199.035 64.44 198.45 64.53 198.45 63.585 199.35 63.585 199.35 64.53"/><rect class="cls-3" x="172.84499" y="48.86" width="52.065" height="11.07001"/><path class="cls-2" d="M339.40436,248.768a1.77914,1.77914,0,0,0,1.539-.76141l0.63989,0.43741a2.5689,2.5689,0,0,1-2.187,1.0368,2.86831,2.86831,0,0,1-2.79449-1.79819,3.44026,3.44026,0,0,1,0-2.4462,2.98407,2.98407,0,0,1,3.41821-1.72531,2.2299,2.2299,0,0,1,1.4661.83429l-0.63181.486a1.73035,1.73035,0,0,0-1.4256-.6723,2.10357,2.10357,0,0,0-2.17889,2.30038,2.06085,2.06085,0,0,0,2.1546,2.3085" transform="translate(-163.12498 -192.37501)"/><path class="cls-2" d="M344.17526,246.0383a1.11914,1.11914,0,0,0-1.0368,1.26361V249.335H342.377v-6.1236h0.76141c0.00809,0.94772-.02429,1.944.0162,2.8674a1.35322,1.35322,0,0,1,1.215-.68848,1.37423,1.37423,0,0,1,1.43369,1.56329V249.335H345.042V247.2128c0-.6723-0.1944-1.1745-0.8667-1.1745" transform="translate(-163.12498 -192.37501)"/><path class="cls-2" d="M348.82468,245.39032c1.296,0,1.9035.87479,1.83868,2.2518h-3.04559a1.20109,1.20109,0,0,0,1.24741,1.16638,1.27941,1.27941,0,0,0,1.1178-.58319l0.53461,0.42929a1.919,1.919,0,0,1-1.6524.78571,2.0252,2.0252,0,0,1-.0405-4.05m1.0773,1.68478a1.0654,1.0654,0,0,0-1.539-.99631,1.11691,1.11691,0,0,0-.74521.99631H349.902Z" transform="translate(-163.12498 -192.37501)"/><path class="cls-2" d="M351.48148,247.41531a1.87943,1.87943,0,0,1,2.04929-2.025,1.821,1.821,0,0,1,1.4418.63177l-0.55081.44553a1.05031,1.05031,0,0,0-.8829-0.43741,1.39137,1.39137,0,0,0,.00812,2.7702,1.09766,1.09766,0,0,0,.9234-0.4212l0.51028,0.4617a1.77343,1.77343,0,0,1-1.43369.5994,1.90379,1.90379,0,0,1-2.06549-2.025" transform="translate(-163.12498 -192.37501)"/><polyline class="cls-2" points="193.387 54.789 193.411 54.789 195.023 53.121 196.043 53.121 194.245 54.862 196.197 56.96 195.144 56.96 193.411 54.967 193.387 54.967 193.387 55.964 193.387 56.96 192.625 56.96 192.625 53.898 192.625 50.836 193.387 50.836 193.387 52.813 193.387 54.789"/><path class="cls-2" d="M363.82047,248.80042a1.39383,1.39383,0,1,0-1.27982-1.39322,1.23654,1.23654,0,0,0,1.27982,1.39322m0-3.4101a2.02539,2.02539,0,1,1-2.06549,2.01688A1.8999,1.8999,0,0,1,363.82047,245.39032Z" transform="translate(-163.12498 -192.37501)"/><path class="cls-2" d="M366.94708,249.335c-0.0162-1.27979.03238-2.60818-.03241-3.83939h0.72089c0.0162,0.162.03241,0.47791,0.03241,0.648h0.02429a1.30022,1.30022,0,0,1,1.47421-.72092l-0.03241.70471a1.098,1.098,0,0,0-1.4256,1.1907V249.335h-0.76138" transform="translate(-163.12498 -192.37501)"/><path class="cls-2" d="M371.655,247.41531a1.87943,1.87943,0,0,1,2.04929-2.025,1.821,1.821,0,0,1,1.4418.63177l-0.55081.44553a1.05031,1.05031,0,0,0-.8829-0.43741,1.39137,1.39137,0,0,0,.00812,2.7702,1.09766,1.09766,0,0,0,.9234-0.4212l0.51028,0.4617a1.77343,1.77343,0,0,1-1.43369.5994,1.90379,1.90379,0,0,1-2.06549-2.025" transform="translate(-163.12498 -192.37501)"/><path class="cls-2" d="M377.18726,248.83279a1.08784,1.08784,0,0,0,1.10971-1.3284c-0.83432.02432-1.89542-.0405-1.89542,0.729a0.64884,0.64884,0,0,0,.78571.5994m-1.56329-.58319c0-1.23929,1.40131-1.26361,2.673-1.296a0.8252,0.8252,0,0,0-.94772-0.94769,1.59755,1.59755,0,0,0-1.09348.4455l-0.405-.486a2.26223,2.26223,0,0,1,1.57138-.57507,1.42462,1.42462,0,0,1,1.60382,1.50659,23.91958,23.91958,0,0,0,.0567,2.43808h-0.68851a2.55626,2.55626,0,0,1-.06482-0.55078h-0.02429a1.47167,1.47167,0,0,1-1.2879.648A1.19136,1.19136,0,0,1,375.624,248.2496Z" transform="translate(-163.12498 -192.37501)"/><path class="cls-2" d="M380.15994,247.0184c-0.5022-1.25549.94772-1.9845,2.13843-1.46609a1.30358,1.30358,0,0,1,.5994.46979l-0.52652.44553a1.02412,1.02412,0,0,0-.891-0.47791,0.57977,0.57977,0,0,0-.7128.5022c0,0.59131.91531,0.51028,1.3851,0.729a1.0832,1.0832,0,0,1,.77759.9801c0.0567,1.56329-2.4462,1.51468-3.078.55078l0.54272-.4617a1.24479,1.24479,0,0,0,1.0206.53461,0.618,0.618,0,0,0,.76138-0.5589c0-.729-1.2717-0.51031-1.75769-0.94769a0.83952,0.83952,0,0,1-.25922-0.29971" transform="translate(-163.12498 -192.37501)"/><path class="cls-2" d="M385.70847,246.0383a1.11914,1.11914,0,0,0-1.0368,1.26361V249.335h-0.76141v-6.1236h0.76141c0.00809,0.94772-.02429,1.944.0162,2.8674a1.35322,1.35322,0,0,1,1.215-.68848,1.37423,1.37423,0,0,1,1.43369,1.56329V249.335h-0.76138V247.2128c0-.6723-0.1944-1.1745-0.8667-1.1745" transform="translate(-163.12498 -192.37501)"/><polygon class="cls-2" points="199.35 133.065 198.45 133.065 198.45 132.12 198.765 132.21 199.35 132.12 199.35 133.065"/><rect class="cls-3" x="177.39" y="137.7" width="42.97501" height="11.06998"/><path class="cls-2" d="M343.94937,337.608a1.77914,1.77914,0,0,0,1.539-.76141l0.63989,0.43741a2.5689,2.5689,0,0,1-2.187,1.0368,2.86831,2.86831,0,0,1-2.79449-1.79819,3.44026,3.44026,0,0,1,0-2.4462,2.98407,2.98407,0,0,1,3.41821-1.72531,2.2299,2.2299,0,0,1,1.46609.83429l-0.63181.486a1.73035,1.73035,0,0,0-1.4256-.6723,2.10357,2.10357,0,0,0-2.17889,2.30038,2.06085,2.06085,0,0,0,2.1546,2.3085" transform="translate(-163.12498 -192.37501)"/><path class="cls-2" d="M346.90588,338.175c-0.0162-1.27979.03238-2.60818-.03241-3.83939h0.72089c0.0162,0.162.03241,0.47791,0.03241,0.648h0.02429a1.30022,1.30022,0,0,1,1.47421-.72092l-0.03241.70471a1.098,1.098,0,0,0-1.4256,1.1907V338.175h-0.76138" transform="translate(-163.12498 -192.37501)"/><path class="cls-2" d="M351.42569,334.23032c1.296,0,1.9035.87479,1.83868,2.2518h-3.04559a1.20109,1.20109,0,0,0,1.24741,1.16638,1.27941,1.27941,0,0,0,1.1178-.58319l0.53461,0.42929a1.919,1.919,0,0,1-1.6524.78571,2.0252,2.0252,0,0,1-.0405-4.05m1.0773,1.68478a1.0654,1.0654,0,0,0-1.539-.99631,1.11692,1.11692,0,0,0-.74521.99631H352.503Z" transform="translate(-163.12498 -192.37501)"/><path class="cls-2" d="M356.13986,334.86209a1.39458,1.39458,0,0,0,0,2.77832,1.39251,1.39251,0,0,0,0-2.77832m-0.1377-.63177a1.69872,1.69872,0,0,1,1.3851.68039v-2.85931h0.76141v6.1236h-0.73712a3.72831,3.72831,0,0,0-.01617-0.60748,1.59871,1.59871,0,0,1-1.3851.7128,1.83536,1.83536,0,0,1-1.93591-2.03311A1.85637,1.85637,0,0,1,356.00217,334.23032Z" transform="translate(-163.12498 -192.37501)"/><path class="cls-2" d="M359.86588,332.45639a0.50488,0.50488,0,0,1,.51028.49411,0.50639,0.50639,0,1,1-.51028-0.49411m0.38071,5.7186h-0.76141V334.3356h0.76141V338.175Z" transform="translate(-163.12498 -192.37501)"/><path class="cls-2" d="M362.79807,338.23981a1.03393,1.03393,0,0,1-1.1178-1.19879v-2.08173h-0.73709V334.3356h0.73709V333.234h0.7533v1.10159h1.0206v0.62369h-1.0206V336.96c0,0.43741.12961,0.63992,0.54269,0.648a1.09235,1.09235,0,0,0,.44553-0.0972l0.02429,0.62369a1.93843,1.93843,0,0,1-.648.10532" transform="translate(-163.12498 -192.37501)"/><path class="cls-2" d="M369.01437,337.608a1.77914,1.77914,0,0,0,1.539-.76141l0.63989,0.43741a2.5689,2.5689,0,0,1-2.187,1.0368,2.86831,2.86831,0,0,1-2.79449-1.79819,3.44026,3.44026,0,0,1,0-2.4462A2.98407,2.98407,0,0,1,369.63,332.3511a2.2299,2.2299,0,0,1,1.46609.83429l-0.63181.486a1.73035,1.73035,0,0,0-1.4256-.6723,2.10357,2.10357,0,0,0-2.17889,2.30038,2.06085,2.06085,0,0,0,2.1546,2.3085" transform="translate(-163.12498 -192.37501)"/><path class="cls-2" d="M373.10486,337.67279a1.08784,1.08784,0,0,0,1.10971-1.3284c-0.83432.02432-1.89542-.0405-1.89542,0.729a0.64884,0.64884,0,0,0,.78571.5994m-1.56329-.58319c0-1.23929,1.40131-1.26361,2.673-1.296a0.8252,0.8252,0,0,0-.94772-0.94769,1.59755,1.59755,0,0,0-1.09348.4455l-0.405-.486a2.26223,2.26223,0,0,1,1.57138-.57507,1.42462,1.42462,0,0,1,1.60382,1.50659,23.91954,23.91954,0,0,0,.0567,2.43808h-0.68851a2.55625,2.55625,0,0,1-.06482-0.55078h-0.02429a1.47167,1.47167,0,0,1-1.2879.648A1.19136,1.19136,0,0,1,371.54156,337.0896Z" transform="translate(-163.12498 -192.37501)"/><path class="cls-2" d="M376.21527,338.175c-0.0162-1.27979.03238-2.60818-.03241-3.83939h0.72089c0.0162,0.162.03241,0.47791,0.03241,0.648h0.02429a1.30022,1.30022,0,0,1,1.47421-.72092l-0.03241.70471a1.098,1.098,0,0,0-1.4256,1.1907V338.175h-0.76138" transform="translate(-163.12498 -192.37501)"/><path class="cls-2" d="M380.808,334.86209a1.39458,1.39458,0,0,0,0,2.77832,1.39251,1.39251,0,0,0,0-2.77832m-0.1377-.63177a1.69872,1.69872,0,0,1,1.3851.68039v-2.85931h0.76141v6.1236h-0.73712a3.72833,3.72833,0,0,0-.01617-0.60748,1.59871,1.59871,0,0,1-1.3851.7128,1.83536,1.83536,0,0,1-1.93591-2.03311A1.85637,1.85637,0,0,1,380.67026,334.23032Z" transform="translate(-163.12498 -192.37501)"/><line class="cls-1" x1="451.52999" y1="98.325" x2="469.02651" y2="98.325"/><polygon class="cls-2" points="467.243 100.94 477 98.325 467.243 95.71 467.243 100.94"/><path class="cls-4" d="M190.575,290.7a13.5,13.5,0,1,1-13.5-13.5A13.5107,13.5107,0,0,1,190.575,290.7Z" transform="translate(-163.12498 -192.37501)"/><path class="cls-2" d="M168.93719,311.0556c0-1.4256,1.60379-1.9278,2.9079-1.458a1.65146,1.65146,0,0,1,.7047.47791l-0.567.55081a1.38081,1.38081,0,0,0-1.1178-.53461,0.95691,0.95691,0,0,0-1.0206,1.32031c0.4455,0.6561,1.61189.60748,2.2113,1.1178a1.438,1.438,0,0,1,.5508,1.1745c0,1.539-1.66859,2.07358-3.03751,1.53088a2.01007,2.01007,0,0,1-.83429-0.62369l0.62369-.52652a1.59513,1.59513,0,0,0,1.2798.6723,0.98779,0.98779,0,0,0,1.0368-1.41748c-0.3969-.7128-1.6767-0.60751-2.268-1.16641a1.44309,1.44309,0,0,1-.46979-1.1178" transform="translate(-163.12498 -192.37501)"/><path class="cls-2" d="M174.8745,315.36481a1.03392,1.03392,0,0,1-1.1178-1.19879v-2.08173h-0.73711V311.4606h0.73711V310.359H174.51v1.10159h1.0206v0.62369H174.51v2.0007c0,0.43741.12959,0.63992,0.54269,0.648a1.09228,1.09228,0,0,0,.44551-0.0972l0.02429,0.62369a1.9384,1.9384,0,0,1-.648.10532" transform="translate(-163.12498 -192.37501)"/><path class="cls-2" d="M177.5961,314.79779a1.08782,1.08782,0,0,0,1.1097-1.3284c-0.8343.02432-1.8954-.0405-1.8954,0.729a0.64884,0.64884,0,0,0,.78571.5994m-1.56331-.58319c0-1.23929,1.40131-1.26361,2.673-1.296a0.82519,0.82519,0,0,0-.94771-0.94769,1.59756,1.59756,0,0,0-1.09349.4455l-0.405-.486a2.26227,2.26227,0,0,1,1.5714-.57507,1.42462,1.42462,0,0,1,1.60381,1.50659,23.924,23.924,0,0,0,.0567,2.43808H178.803a2.55622,2.55622,0,0,1-.0648-0.55078H178.7139a1.47169,1.47169,0,0,1-1.2879.648A1.19137,1.19137,0,0,1,176.03279,314.2146Z" transform="translate(-163.12498 -192.37501)"/><path class="cls-2" d="M180.7065,315.3c-0.0162-1.27979.03239-2.60818-.03241-3.83939h0.7209c0.0162,0.162.03241,0.47791,0.03241,0.648h0.02429a1.3002,1.3002,0,0,1,1.4742-.72092l-0.03239.70471a1.098,1.098,0,0,0-1.4256,1.1907V315.3h-0.7614" transform="translate(-163.12498 -192.37501)"/><path class="cls-2" d="M184.76459,315.36481a1.03392,1.03392,0,0,1-1.1178-1.19879v-2.08173h-0.73711V311.4606h0.73711V310.359h0.7533v1.10159h1.0206v0.62369h-1.0206v2.0007c0,0.43741.12959,0.63992,0.54269,0.648a1.09228,1.09228,0,0,0,.44551-0.0972l0.02429,0.62369a1.9384,1.9384,0,0,1-.648.10532" transform="translate(-163.12498 -192.37501)"/><path class="cls-2" d="M169.047,322.38031c1.296,0,1.9035.87479,1.8387,2.2518h-3.04561a1.20111,1.20111,0,0,0,1.24741,1.16638,1.27939,1.27939,0,0,0,1.1178-.58319l0.53461,0.42929a1.919,1.919,0,0,1-1.6524.78571,2.0252,2.0252,0,0,1-.0405-4.05m1.0773,1.68478a1.06539,1.06539,0,0,0-1.539-.99631,1.11694,1.11694,0,0,0-.74521.99631h2.28421Z" transform="translate(-163.12498 -192.37501)"/><path class="cls-2" d="M173.76118,326.325H172.935l-1.56329-3.83939h0.84241c0.38069,1.00439.73709,2.0412,1.14209,3.0213l1.134-3.0213h0.81" transform="translate(-163.12498 -192.37501)"/><path class="cls-2" d="M177.77069,322.38031c1.296,0,1.9035.87479,1.8387,2.2518h-3.04561a1.20111,1.20111,0,0,0,1.24741,1.16638,1.27939,1.27939,0,0,0,1.1178-.58319l0.53461,0.42929a1.919,1.919,0,0,1-1.6524.78571,2.0252,2.0252,0,0,1-.0405-4.05m1.0773,1.68478a1.06539,1.06539,0,0,0-1.539-.99631,1.11694,1.11694,0,0,0-.74521.99631H178.848Z" transform="translate(-163.12498 -192.37501)"/><path class="cls-2" d="M180.6786,326.325c-0.0162-1.27979.03239-2.60818-.03241-3.83939h0.7209c0.0162,0.162.03241,0.45361,0.03241,0.63181h0.02429a1.34086,1.34086,0,0,1,1.24741-.73709,1.3635,1.3635,0,0,1,1.4337,1.56329V326.325h-0.7614V324.1947c0-.68042-0.19441-1.1745-0.8748-1.1745a1.11347,1.11347,0,0,0-1.0287,1.26358v2.0412h-0.7614" transform="translate(-163.12498 -192.37501)"/><path class="cls-2" d="M186.61589,326.3898a1.03392,1.03392,0,0,1-1.1178-1.19879v-2.08173H184.761V322.4856h0.73711V321.384h0.7533v1.10159h1.0206v0.62369h-1.0206V325.11c0,0.43741.12959,0.63992,0.54269,0.648a1.09228,1.09228,0,0,0,.44551-0.0972l0.02429,0.62369a1.9384,1.9384,0,0,1-.648.10532" transform="translate(-163.12498 -192.37501)"/><path class="cls-5" d="M667.12494,290.7a13.5,13.5,0,1,1-13.5-13.5A13.51071,13.51071,0,0,1,667.12494,290.7Z" transform="translate(-163.12498 -192.37501)"/><path class="cls-6" d="M663.16492,290.7a9.56253,9.56253,0,1,1-9.54-9.54A9.58336,9.58336,0,0,1,663.16492,290.7Z" transform="translate(-163.12498 -192.37501)"/><polyline class="cls-2" points="484.574 122.212 487.571 122.212 487.571 122.569 487.571 122.925 483.772 122.925 483.772 120.058 483.772 117.19 487.449 117.19 487.449 117.543 487.449 117.895 484.574 117.895 484.574 118.753 484.574 119.612 487.279 119.612 487.279 119.956 487.279 120.301 484.574 120.301 484.574 121.256 484.574 122.212"/><path class="cls-2" d="M651.72418,315.3c-0.01617-1.27979.03241-2.60818-.03241-3.83939h0.72089c0.01624,0.162.03241,0.45361,0.03241,0.63181h0.02429a1.3409,1.3409,0,0,1,1.24744-.73709,1.36351,1.36351,0,0,1,1.43372,1.56329V315.3H654.3891v-2.13028c0-.68042-0.1944-1.1745-0.87482-1.1745a1.11346,1.11346,0,0,0-1.02869,1.26358V315.3h-0.76141" transform="translate(-163.12498 -192.37501)"/><path class="cls-2" d="M658.24463,311.98709a1.39459,1.39459,0,0,0,0,2.77832,1.39251,1.39251,0,0,0,0-2.77832m-0.1377-.63177a1.69874,1.69874,0,0,1,1.38513.68039v-2.85931h0.76141V315.3h-0.73712a3.73519,3.73519,0,0,0-.01617-0.60748,1.59881,1.59881,0,0,1-1.38513.7128,1.83536,1.83536,0,0,1-1.93591-2.03311A1.85639,1.85639,0,0,1,658.10693,311.35532Z" transform="translate(-163.12498 -192.37501)"/><path class="cls-7" d="M216,268.965a2.25652,2.25652,0,0,1,2.25-2.25h78.075a2.28635,2.28635,0,0,1,2.25,2.25v43.47a2.28637,2.28637,0,0,1-2.25,2.25H218.25a2.25654,2.25654,0,0,1-2.25-2.25v-43.47Z" transform="translate(-163.12498 -192.37501)"/><polyline class="cls-2" points="64.094 95.94 63.292 95.94 63.292 93.073 63.292 90.205 64.094 90.205 64.094 93.073 64.094 95.94"/><path class="cls-2" d="M230.37749,285.00211a1.39458,1.39458,0,0,0,0,2.77832,1.39251,1.39251,0,0,0,0-2.77832m-0.1377-.63177a1.69875,1.69875,0,0,1,1.3851.68039v-2.85931h0.7614v6.1236h-0.73711a3.72826,3.72826,0,0,0-.01619-0.60748,1.59869,1.59869,0,0,1-1.3851.7128,1.83535,1.83535,0,0,1-1.9359-2.03311A1.85637,1.85637,0,0,1,230.23979,284.37033Z" transform="translate(-163.12498 -192.37501)"/><path class="cls-2" d="M235.44809,284.37033c1.296,0,1.9035.87479,1.8387,2.2518h-3.04561a1.20111,1.20111,0,0,0,1.24741,1.16638,1.27939,1.27939,0,0,0,1.1178-.58319l0.53461,0.42929a1.919,1.919,0,0,1-1.6524.78571,2.0252,2.0252,0,0,1-.0405-4.05m1.0773,1.68478a1.06539,1.06539,0,0,0-1.539-.99631,1.11694,1.11694,0,0,0-.74521.99631h2.28421Z" transform="translate(-163.12498 -192.37501)"/><path class="cls-2" d="M238.356,288.315c-0.0162-1.27979.03239-2.60818-.03241-3.83939h0.7209c0.0162,0.162.03241,0.45361,0.03241,0.63181h0.02429a1.34086,1.34086,0,0,1,1.24741-.73709,1.3635,1.3635,0,0,1,1.4337,1.56329V288.315h-0.7614v-2.13028c0-.68042-0.19441-1.1745-0.8748-1.1745a1.11347,1.11347,0,0,0-1.0287,1.26358v2.0412H238.356" transform="translate(-163.12498 -192.37501)"/><path class="cls-2" d="M244.29329,288.37982a1.03392,1.03392,0,0,1-1.1178-1.19879V285.0993h-0.73711v-0.62369h0.73711V283.374h0.7533v1.10159h1.0206v0.62369h-1.0206V287.1c0,0.43741.12959,0.63992,0.54269,0.648a1.09228,1.09228,0,0,0,.44551-0.0972l0.02429,0.62369a1.9384,1.9384,0,0,1-.648.10532" transform="translate(-163.12498 -192.37501)"/><path class="cls-2" d="M246.12389,282.59641a0.50488,0.50488,0,0,1,.5103.49411,0.5064,0.5064,0,1,1-.5103-0.49411m0.38071,5.7186h-0.7614v-3.83939h0.7614V288.315Z" transform="translate(-163.12498 -192.37501)"/><path class="cls-2" d="M249.42868,282.75031c-0.83429-.02429-0.6642.93152-0.68039,1.72531h0.891v0.62369h-0.891v3.2157h-0.7614v-3.2157h-0.7614v-0.62369h0.7614v-0.80191a1.41957,1.41957,0,0,1,1.91159-1.5228l-0.0891.6561a1.34519,1.34519,0,0,0-.38071-0.0567" transform="translate(-163.12498 -192.37501)"/><path class="cls-2" d="M250.61128,284.47562c0.405,1.00439.7776,2.03311,1.20691,3.01321l1.0611-3.01321h0.81l-1.863,4.74661a1.39723,1.39723,0,0,1-1.83061.9801l0.07291-.6723a0.79449,0.79449,0,0,0,.8262-0.0972,4.73177,4.73177,0,0,0,.5103-1.11783l-1.6443-3.83939h0.85049" transform="translate(-163.12498 -192.37501)"/><path class="cls-2" d="M258.44489,287.78043a1.39383,1.39383,0,0,0,0-2.77832,1.39251,1.39251,0,0,0,0,2.77832m0.12961,0.63989a1.59446,1.59446,0,0,1-1.35272-.68039h-0.02429V290.259H256.4361v-5.78339h0.74518v0.5994h0.02432a1.53639,1.53639,0,0,1,1.3851-.70468A2.02746,2.02746,0,0,1,258.57449,288.42032Z" transform="translate(-163.12498 -192.37501)"/><path class="cls-2" d="M262.85129,287.81281a1.08784,1.08784,0,0,0,1.10971-1.3284c-0.83432.02432-1.89542-.0405-1.89542,0.729a0.64884,0.64884,0,0,0,.78571.5994m-1.56329-.58319c0-1.23929,1.40131-1.26361,2.673-1.296a0.8252,0.8252,0,0,0-.94772-0.94769,1.59755,1.59755,0,0,0-1.09348.4455l-0.405-.486a2.26223,2.26223,0,0,1,1.57138-.57507,1.42462,1.42462,0,0,1,1.60382,1.50659,23.91954,23.91954,0,0,0,.0567,2.43808H264.0582a2.55625,2.55625,0,0,1-.06482-0.55078h-0.02429a1.47167,1.47167,0,0,1-1.2879.648A1.19136,1.19136,0,0,1,261.288,287.22961Z" transform="translate(-163.12498 -192.37501)"/><path class="cls-2" d="M266.229,284.47562c0.405,1.00439.77762,2.03311,1.20691,3.01321l1.0611-3.01321h0.81l-1.863,4.74661a1.39726,1.39726,0,0,1-1.83063.9801l0.07291-.6723a0.79449,0.79449,0,0,0,.8262-0.0972,4.7318,4.7318,0,0,0,.51031-1.11783l-1.64432-3.83939H266.229" transform="translate(-163.12498 -192.37501)"/><path class="cls-2" d="M270.78928,285.10742a1.34456,1.34456,0,0,1,1.22311-.73709,1.20382,1.20382,0,0,1,1.1907.7695,1.41165,1.41165,0,0,1,1.30408-.7695,1.36351,1.36351,0,0,1,1.43372,1.56329V288.315h-0.76141v-2.13028c-0.00809-.6561-0.1944-1.1745-0.85049-1.1745-1.3851,0-.87479,1.97638-0.972,3.30478h-0.76141v-2.28418a0.82539,0.82539,0,0,0-.81-1.0206,1.10922,1.10922,0,0,0-.9801,1.26358v2.0412H270.0441c-0.0162-1.27979.03238-2.60818-.03241-3.83939h0.72089c0.0162,0.162.03241,0.45361,0.03241,0.63181h0.02429" transform="translate(-163.12498 -192.37501)"/><path class="cls-2" d="M278.96219,284.37033c1.296,0,1.9035.87479,1.83868,2.2518h-3.04559a1.20109,1.20109,0,0,0,1.24741,1.16638,1.27941,1.27941,0,0,0,1.1178-.58319l0.53461,0.42929a1.919,1.919,0,0,1-1.6524.78571,2.0252,2.0252,0,0,1-.0405-4.05m1.0773,1.68478a1.0654,1.0654,0,0,0-1.539-.99631,1.11691,1.11691,0,0,0-.74521.99631h2.28421Z" transform="translate(-163.12498 -192.37501)"/><path class="cls-2" d="M281.87009,288.315c-0.0162-1.27979.03238-2.60818-.03241-3.83939h0.72089c0.0162,0.162.03241,0.45361,0.03241,0.63181h0.02429a1.34088,1.34088,0,0,1,1.24741-.73709,1.36351,1.36351,0,0,1,1.43372,1.56329V288.315H284.535v-2.13028c0-.68042-0.1944-1.1745-0.87479-1.1745a1.11348,1.11348,0,0,0-1.02872,1.26358v2.0412h-0.76138" transform="translate(-163.12498 -192.37501)"/><path class="cls-2" d="M287.80737,288.37982a1.03393,1.03393,0,0,1-1.1178-1.19879V285.0993h-0.73709v-0.62369h0.73709V283.374h0.7533v1.10159h1.0206v0.62369h-1.0206V287.1c0,0.43741.12961,0.63992,0.54269,0.648a1.09235,1.09235,0,0,0,.44553-0.0972l0.02429,0.62369a1.93842,1.93842,0,0,1-.648.10532" transform="translate(-163.12498 -192.37501)"/><path class="cls-2" d="M243.9063,296.17743a1.34452,1.34452,0,0,1,1.2231-.73709,1.2038,1.2038,0,0,1,1.1907.7695,1.41169,1.41169,0,0,1,1.30409-.7695,1.3635,1.3635,0,0,1,1.4337,1.56329V299.385h-0.7614v-2.13028c-0.0081-.6561-0.1944-1.1745-0.85049-1.1745-1.3851,0-.8748,1.97638-0.972,3.30478h-0.7614v-2.28418a0.82539,0.82539,0,0,0-.81-1.0206,1.10922,1.10922,0,0,0-.9801,1.26358v2.0412h-0.7614c-0.0162-1.27979.03239-2.60818-.03241-3.83939h0.7209c0.0162,0.162.03241,0.45361,0.03241,0.63181h0.02429" transform="translate(-163.12498 -192.37501)"/><path class="cls-2" d="M252.07919,295.44034c1.296,0,1.9035.87479,1.8387,2.2518h-3.04561a1.20111,1.20111,0,0,0,1.24741,1.16638,1.27939,1.27939,0,0,0,1.1178-.58319l0.53461,0.42929a1.919,1.919,0,0,1-1.6524.78571,2.0252,2.0252,0,0,1-.0405-4.05m1.0773,1.68478a1.06539,1.06539,0,0,0-1.539-.99631,1.11694,1.11694,0,0,0-.74521.99631h2.28421Z" transform="translate(-163.12498 -192.37501)"/><path class="cls-2" d="M256.21021,299.44983a1.03392,1.03392,0,0,1-1.1178-1.19879v-2.08173H254.3553v-0.62369h0.73711V294.444h0.7533v1.10159h1.0206v0.62369h-1.0206V298.17c0,0.43741.12959,0.63992,0.54269,0.648a1.0922,1.0922,0,0,0,.4455-0.0972l0.02429,0.62369a1.93837,1.93837,0,0,1-.648.10532" transform="translate(-163.12498 -192.37501)"/><path class="cls-2" d="M259.4664,296.08832a1.11914,1.11914,0,0,0-1.0368,1.26361V299.385h-0.76141v-6.1236h0.76141c0.00809,0.94772-.02429,1.944.0162,2.8674a1.35322,1.35322,0,0,1,1.215-.68848,1.37423,1.37423,0,0,1,1.43369,1.56329V299.385H260.3331v-2.12219c0-.6723-0.1944-1.1745-0.8667-1.1745" transform="translate(-163.12498 -192.37501)"/><path class="cls-2" d="M264.19681,298.85043a1.39383,1.39383,0,1,0-1.27982-1.39322,1.23654,1.23654,0,0,0,1.27982,1.39322m0-3.4101a2.02539,2.02539,0,1,1-2.06549,2.01688A1.8999,1.8999,0,0,1,264.19681,295.44034Z" transform="translate(-163.12498 -192.37501)"/><path class="cls-2" d="M269.12967,296.07211a1.39458,1.39458,0,0,0,0,2.77832,1.39251,1.39251,0,0,0,0-2.77832m-0.1377-.63177a1.69872,1.69872,0,0,1,1.3851.68039v-2.85931h0.76141v6.1236h-0.73712a3.72832,3.72832,0,0,0-.01617-0.60748,1.59871,1.59871,0,0,1-1.3851.7128,1.83536,1.83536,0,0,1-1.93591-2.03311A1.85637,1.85637,0,0,1,268.992,295.44034Z" transform="translate(-163.12498 -192.37501)"/><path class="cls-7" d="M405,195.075a2.22817,2.22817,0,0,1,2.25-2.25h78.075a2.25657,2.25657,0,0,1,2.25,2.25V238.5a2.25657,2.25657,0,0,1-2.25,2.25H407.25A2.22817,2.22817,0,0,1,405,238.5V195.075Z" transform="translate(-163.12498 -192.37501)"/><path class="cls-2" d="M425.46506,212.31094h2.14651l-1.06921-2.68921m-1.93588,4.80328h-0.891l2.48669-5.73477h0.729l2.4624,5.73477h-0.90723l-0.58319-1.40939h-2.72159Z" transform="translate(-163.12498 -192.37501)"/><path class="cls-2" d="M429.83908,212.50534a1.87943,1.87943,0,0,1,2.04929-2.025,1.821,1.821,0,0,1,1.4418.63177l-0.55081.44553a1.05031,1.05031,0,0,0-.8829-0.43741,1.39137,1.39137,0,0,0,.00812,2.7702,1.09766,1.09766,0,0,0,.9234-0.4212l0.51028,0.4617a1.77343,1.77343,0,0,1-1.43369.5994,1.90379,1.90379,0,0,1-2.06549-2.025" transform="translate(-163.12498 -192.37501)"/><path class="cls-2" d="M433.84048,212.50534a1.87943,1.87943,0,0,1,2.04929-2.025,1.821,1.821,0,0,1,1.4418.63177l-0.55081.44553a1.05031,1.05031,0,0,0-.8829-0.43741,1.39137,1.39137,0,0,0,.00812,2.7702,1.09766,1.09766,0,0,0,.9234-0.4212l0.51028,0.4617a1.77343,1.77343,0,0,1-1.43369.5994,1.90379,1.90379,0,0,1-2.06549-2.025" transform="translate(-163.12498 -192.37501)"/><path class="cls-2" d="M439.82639,210.48035c1.296,0,1.9035.87479,1.83868,2.2518h-3.04559a1.20109,1.20109,0,0,0,1.24741,1.16638,1.27941,1.27941,0,0,0,1.1178-.58319l0.53461,0.42929a1.919,1.919,0,0,1-1.6524.78571,2.0252,2.0252,0,0,1-.0405-4.05m1.0773,1.68478a1.0654,1.0654,0,0,0-1.539-.99631,1.11692,1.11692,0,0,0-.74521.99631h2.28421Z" transform="translate(-163.12498 -192.37501)"/><path class="cls-2" d="M444.74307,213.89044a1.39383,1.39383,0,0,0,0-2.77832,1.39251,1.39251,0,0,0,0,2.77832m0.12961,0.63989a1.59446,1.59446,0,0,1-1.35272-.68039h-0.02429V216.369h-0.76138v-5.78339h0.74518v0.5994h0.02432a1.53639,1.53639,0,0,1,1.3851-.70468A2.02746,2.02746,0,0,1,444.87268,214.53033Z" transform="translate(-163.12498 -192.37501)"/><path class="cls-2" d="M449.09277,214.48984a1.03393,1.03393,0,0,1-1.1178-1.19879v-2.08173h-0.73709v-0.62369H447.975V209.484h0.7533v1.10159h1.0206v0.62369h-1.0206V213.21c0,0.43741.12961,0.63992,0.54269,0.648a1.09235,1.09235,0,0,0,.44553-0.0972l0.02429,0.62369a1.93843,1.93843,0,0,1-.648.10532" transform="translate(-163.12498 -192.37501)"/><path class="cls-2" d="M452.295,212.50534a1.87943,1.87943,0,0,1,2.04929-2.025,1.821,1.821,0,0,1,1.4418.63177l-0.55081.44553a1.05031,1.05031,0,0,0-.8829-0.43741,1.39137,1.39137,0,0,0,.00812,2.7702,1.09766,1.09766,0,0,0,.9234-0.4212l0.51028,0.4617a1.77343,1.77343,0,0,1-1.43369.5994,1.90379,1.90379,0,0,1-2.06549-2.025" transform="translate(-163.12498 -192.37501)"/><path class="cls-2" d="M457.82727,213.92282a1.08784,1.08784,0,0,0,1.10971-1.3284c-0.83432.02432-1.89542-.0405-1.89542,0.729a0.64884,0.64884,0,0,0,.78571.5994m-1.56329-.58319c0-1.23929,1.40131-1.26361,2.673-1.296a0.8252,0.8252,0,0,0-.94772-0.94769,1.59755,1.59755,0,0,0-1.09348.4455l-0.405-.486a2.26223,2.26223,0,0,1,1.57138-.57507,1.42462,1.42462,0,0,1,1.60382,1.50659,23.91954,23.91954,0,0,0,.0567,2.43808h-0.68851a2.55625,2.55625,0,0,1-.06482-0.55078h-0.02429a1.47167,1.47167,0,0,1-1.2879.648A1.19136,1.19136,0,0,1,456.264,213.33963Z" transform="translate(-163.12498 -192.37501)"/><path class="cls-2" d="M460.8,212.10843c-0.5022-1.25549.94772-1.9845,2.13843-1.46609a1.30358,1.30358,0,0,1,.5994.46979l-0.52652.44553a1.02412,1.02412,0,0,0-.891-0.47791,0.57977,0.57977,0,0,0-.7128.5022c0,0.59131.91531,0.51028,1.3851,0.729a1.0832,1.0832,0,0,1,.77759.9801c0.0567,1.56329-2.4462,1.51468-3.078.55078l0.54272-.4617a1.24479,1.24479,0,0,0,1.0206.53461,0.618,0.618,0,0,0,.76138-0.5589c0-.729-1.2717-0.51032-1.75769-0.94769a0.83952,0.83952,0,0,1-.25922-0.29971" transform="translate(-163.12498 -192.37501)"/><path class="cls-2" d="M466.34848,211.12833a1.11914,1.11914,0,0,0-1.0368,1.26361V214.425h-0.76141v-6.1236h0.76141c0.00809,0.94772-.02429,1.944.0162,2.8674a1.35322,1.35322,0,0,1,1.215-.68848,1.37423,1.37423,0,0,1,1.43369,1.56329V214.425h-0.76138v-2.12219c0-.6723-0.1944-1.1745-0.8667-1.1745" transform="translate(-163.12498 -192.37501)"/><path class="cls-2" d="M432.85049,224.96042a1.39383,1.39383,0,1,0-1.27982-1.39322,1.23654,1.23654,0,0,0,1.27982,1.39322m0-3.4101a2.02539,2.02539,0,1,1-2.06549,2.01688A1.8999,1.8999,0,0,1,432.85049,221.55032Z" transform="translate(-163.12498 -192.37501)"/><path class="cls-2" d="M435.97711,225.495c-0.0162-1.27979.03238-2.60818-.03241-3.83939h0.72089c0.0162,0.162.03241,0.47791,0.03241,0.648h0.02429a1.30022,1.30022,0,0,1,1.47421-.72092l-0.03241.70471a1.098,1.098,0,0,0-1.4256,1.1907V225.495h-0.76138" transform="translate(-163.12498 -192.37501)"/><path class="cls-2" d="M440.685,223.57532a1.87943,1.87943,0,0,1,2.04929-2.025,1.821,1.821,0,0,1,1.4418.63177l-0.55081.44553a1.05031,1.05031,0,0,0-.8829-0.43741,1.39137,1.39137,0,0,0,.00812,2.7702,1.09766,1.09766,0,0,0,.9234-0.4212l0.51028,0.4617a1.77343,1.77343,0,0,1-1.43369.5994,1.90379,1.90379,0,0,1-2.06549-2.025" transform="translate(-163.12498 -192.37501)"/><path class="cls-2" d="M446.75189,222.1983a1.11914,1.11914,0,0,0-1.0368,1.26361V225.495h-0.76141v-6.1236h0.76141c0.00809,0.94772-.02429,1.944.0162,2.8674a1.35322,1.35322,0,0,1,1.215-.68848,1.37423,1.37423,0,0,1,1.43369,1.56329V225.495h-0.76138V223.3728c0-.6723-0.1944-1.1745-0.8667-1.1745" transform="translate(-163.12498 -192.37501)"/><path class="cls-2" d="M451.40131,221.55032c1.296,0,1.9035.87479,1.83868,2.2518H450.1944a1.20109,1.20109,0,0,0,1.24741,1.16638,1.27941,1.27941,0,0,0,1.1178-.58319l0.53461,0.42929a1.919,1.919,0,0,1-1.6524.78571,2.0252,2.0252,0,0,1-.0405-4.05m1.0773,1.68478a1.0654,1.0654,0,0,0-1.539-.99631,1.11691,1.11691,0,0,0-.74521.99631h2.28421Z" transform="translate(-163.12498 -192.37501)"/><path class="cls-2" d="M454.05811,223.57532a1.87943,1.87943,0,0,1,2.04929-2.025,1.821,1.821,0,0,1,1.4418.63177l-0.55081.44553a1.05031,1.05031,0,0,0-.8829-0.43741,1.39137,1.39137,0,0,0,.00812,2.7702,1.09766,1.09766,0,0,0,.9234-0.4212l0.51028,0.4617a1.77343,1.77343,0,0,1-1.43369.5994,1.90379,1.90379,0,0,1-2.06549-2.025" transform="translate(-163.12498 -192.37501)"/><polyline class="cls-2" points="295.963 30.949 295.988 30.949 297.599 29.281 298.62 29.281 296.822 31.022 298.774 33.12 297.721 33.12 295.988 31.127 295.963 31.127 295.963 32.124 295.963 33.12 295.202 33.12 295.202 30.058 295.202 26.996 295.963 26.996 295.963 28.973 295.963 30.949"/><path class="cls-7" d="M405.135,342.9a2.25651,2.25651,0,0,1,2.25-2.25H485.46a2.22815,2.22815,0,0,1,2.25,2.25v43.425a2.22815,2.22815,0,0,1-2.25,2.25H407.385a2.25651,2.25651,0,0,1-2.25-2.25V342.9Z" transform="translate(-163.12498 -192.37501)"/><path class="cls-2" d="M435.95547,358.06592c0-1.02869-1.15021-.92339-2.187-0.9153v1.8549c1.04492,0.0081,2.187.0891,2.187-.93961m0.81,0c0,1.51471-1.39319,1.6929-2.997,1.62V362.205h-0.80188v-5.73479h1.7496C435.90686,356.48642,436.76547,356.88333,436.76547,358.06592Z" transform="translate(-163.12498 -192.37501)"/><path class="cls-2" d="M437.373,362.205c-0.0162-1.27979.03238-2.60818-.03241-3.83939h0.72089c0.0162,0.162.03241,0.47789,0.03241,0.648h0.02429a1.3002,1.3002,0,0,1,1.47421-.7209l-0.03241.7047a1.098,1.098,0,0,0-1.4256,1.1907V362.205H437.373" transform="translate(-163.12498 -192.37501)"/><path class="cls-2" d="M441.97379,361.67043a1.39382,1.39382,0,1,0-1.27982-1.3932,1.23652,1.23652,0,0,0,1.27982,1.3932m0-3.4101a2.02539,2.02539,0,1,1-2.06549,2.01689A1.8999,1.8999,0,0,1,441.97379,358.26033Z" transform="translate(-163.12498 -192.37501)"/><path class="cls-2" d="M444.84927,360.28532a1.87943,1.87943,0,0,1,2.04929-2.025,1.821,1.821,0,0,1,1.4418.63179l-0.55081.44551a1.05035,1.05035,0,0,0-.8829-0.43741,1.39137,1.39137,0,0,0,.00812,2.7702,1.09762,1.09762,0,0,0,.9234-0.4212l0.51028,0.4617a1.77338,1.77338,0,0,1-1.43369.5994,1.90378,1.90378,0,0,1-2.06549-2.025" transform="translate(-163.12498 -192.37501)"/><path class="cls-2" d="M450.83517,358.26033c1.296,0,1.9035.8748,1.83868,2.2518h-3.04559a1.20109,1.20109,0,0,0,1.24741,1.1664,1.27942,1.27942,0,0,0,1.1178-.58321l0.53461,0.42931a1.919,1.919,0,0,1-1.6524.78569,2.0252,2.0252,0,0,1-.0405-4.05m1.0773,1.6848a1.0654,1.0654,0,0,0-1.539-.99631,1.11688,1.11688,0,0,0-.74521.99631h2.28421Z" transform="translate(-163.12498 -192.37501)"/><path class="cls-2" d="M453.60535,359.88843c-0.5022-1.25551.94772-1.9845,2.13843-1.46611a1.30361,1.30361,0,0,1,.5994.4698l-0.52652.44551a1.02418,1.02418,0,0,0-.891-0.47791,0.57979,0.57979,0,0,0-.7128.5022c0,0.59131.91531,0.5103,1.3851,0.729a1.08321,1.08321,0,0,1,.77759.9801c0.0567,1.56329-2.4462,1.51469-3.078.5508l0.54272-.4617a1.24478,1.24478,0,0,0,1.0206.53459,0.618,0.618,0,0,0,.76138-0.5589c0-.729-1.2717-0.5103-1.75769-0.94769a0.83948,0.83948,0,0,1-.25922-0.2997" transform="translate(-163.12498 -192.37501)"/><path class="cls-2" d="M457.20175,359.88843c-0.5022-1.25551.94772-1.9845,2.13843-1.46611a1.30361,1.30361,0,0,1,.5994.4698l-0.52652.44551a1.02418,1.02418,0,0,0-.891-0.47791,0.57979,0.57979,0,0,0-.7128.5022c0,0.59131.91531,0.5103,1.3851,0.729a1.08321,1.08321,0,0,1,.77759.9801c0.0567,1.56329-2.4462,1.51469-3.078.5508l0.54272-.4617a1.24478,1.24478,0,0,0,1.0206.53459,0.618,0.618,0,0,0,.76138-0.5589c0-.729-1.2717-0.5103-1.75769-0.94769a0.83948,0.83948,0,0,1-.25922-0.2997" transform="translate(-163.12498 -192.37501)"/><path class="cls-2" d="M426.87,371.35532a1.87943,1.87943,0,0,1,2.04929-2.025,1.821,1.821,0,0,1,1.4418.63179l-0.55081.44551a1.05035,1.05035,0,0,0-.8829-0.43741,1.39137,1.39137,0,0,0,.00812,2.7702,1.09762,1.09762,0,0,0,.9234-0.4212l0.51028,0.4617a1.77338,1.77338,0,0,1-1.43369.5994,1.90378,1.90378,0,0,1-2.06549-2.025" transform="translate(-163.12498 -192.37501)"/><path class="cls-2" d="M431.12247,373.275c-0.0162-1.27979.03238-2.60818-.03241-3.83939h0.72089c0.0162,0.162.03241,0.47789,0.03241,0.648h0.02429a1.3002,1.3002,0,0,1,1.47421-.7209l-0.03241.7047a1.098,1.098,0,0,0-1.4256,1.1907V373.275h-0.76138" transform="translate(-163.12498 -192.37501)"/><path class="cls-2" d="M435.64227,369.33032c1.296,0,1.9035.8748,1.83868,2.2518h-3.04559a1.20109,1.20109,0,0,0,1.24741,1.1664,1.27942,1.27942,0,0,0,1.1178-.58321l0.53461,0.42931a1.919,1.919,0,0,1-1.6524.78569,2.0252,2.0252,0,0,1-.0405-4.05m1.0773,1.6848a1.0654,1.0654,0,0,0-1.539-.99631,1.11688,1.11688,0,0,0-.74521.99631h2.28421Z" transform="translate(-163.12498 -192.37501)"/><path class="cls-2" d="M440.35645,369.96211a1.39458,1.39458,0,0,0,0,2.77831,1.3925,1.3925,0,0,0,0-2.77831m-0.1377-.63179a1.69876,1.69876,0,0,1,1.3851.68039v-2.8593h0.76141v6.1236h-0.73712a3.7285,3.7285,0,0,0-.01617-0.6075,1.59868,1.59868,0,0,1-1.3851.7128,1.83535,1.83535,0,0,1-1.93591-2.0331A1.85639,1.85639,0,0,1,440.21875,369.33032Z" transform="translate(-163.12498 -192.37501)"/><path class="cls-2" d="M444.08246,367.55641a0.50487,0.50487,0,0,1,.51028.49411,0.50639,0.50639,0,1,1-.51028-0.49411m0.38071,5.7186h-0.76141v-3.83939h0.76141V373.275Z" transform="translate(-163.12498 -192.37501)"/><path class="cls-2" d="M447.01465,373.33981a1.03393,1.03393,0,0,1-1.1178-1.19879v-2.08171h-0.73709v-0.62369h0.73709V368.334h0.7533v1.10161h1.0206v0.62369h-1.0206V372.06c0,0.43741.12961,0.63991,0.54269,0.648a1.09235,1.09235,0,0,0,.44553-0.09721l0.02429,0.6237a1.93883,1.93883,0,0,1-.648.1053" transform="translate(-163.12498 -192.37501)"/><path class="cls-2" d="M450.225,371.35532a1.87943,1.87943,0,0,1,2.04929-2.025,1.821,1.821,0,0,1,1.4418.63179l-0.55081.44551a1.05035,1.05035,0,0,0-.8829-0.43741,1.39137,1.39137,0,0,0,.00812,2.7702,1.09762,1.09762,0,0,0,.9234-0.4212l0.51028,0.4617a1.77338,1.77338,0,0,1-1.43369.5994,1.90378,1.90378,0,0,1-2.06549-2.025" transform="translate(-163.12498 -192.37501)"/><path class="cls-2" d="M455.75726,372.77281a1.08785,1.08785,0,0,0,1.10971-1.3284c-0.83432.02431-1.89542-.0405-1.89542,0.729a0.64885,0.64885,0,0,0,.78571.5994m-1.56329-.58319c0-1.2393,1.40131-1.26361,2.673-1.296a0.82521,0.82521,0,0,0-.94772-0.94769,1.59755,1.59755,0,0,0-1.09348.4455l-0.405-.486a2.26231,2.26231,0,0,1,1.57138-.57509,1.42463,1.42463,0,0,1,1.60382,1.50659,23.92,23.92,0,0,0,.0567,2.4381h-0.68851a2.5565,2.5565,0,0,1-.06482-0.5508h-0.02429a1.47167,1.47167,0,0,1-1.2879.648A1.19136,1.19136,0,0,1,454.194,372.18962Z" transform="translate(-163.12498 -192.37501)"/><path class="cls-2" d="M458.86768,373.275c-0.0162-1.27979.03238-2.60818-.03241-3.83939h0.72089c0.0162,0.162.03241,0.47789,0.03241,0.648h0.02429a1.3002,1.3002,0,0,1,1.47421-.7209l-0.03241.7047a1.098,1.098,0,0,0-1.4256,1.1907V373.275h-0.76138" transform="translate(-163.12498 -192.37501)"/><path class="cls-2" d="M463.46036,369.96211a1.39458,1.39458,0,0,0,0,2.77831,1.3925,1.3925,0,0,0,0-2.77831m-0.1377-.63179a1.69877,1.69877,0,0,1,1.3851.68039v-2.8593h0.76141v6.1236h-0.73712a3.7285,3.7285,0,0,0-.01617-0.6075,1.59868,1.59868,0,0,1-1.3851.7128,1.83535,1.83535,0,0,1-1.93591-2.0331A1.85639,1.85639,0,0,1,463.32266,369.33032Z" transform="translate(-163.12498 -192.37501)"/><path class="cls-7" d="M532.12494,268.965a2.25651,2.25651,0,0,1,2.25-2.25h78.03a2.25655,2.25655,0,0,1,2.25,2.25v43.47a2.25657,2.25657,0,0,1-2.25,2.25h-78.03a2.25653,2.25653,0,0,1-2.25-2.25v-43.47Z" transform="translate(-163.12498 -192.37501)"/><path class="cls-2" d="M545.53052,284.1759c0-1.02869-1.15021-.92337-2.187-0.91528v1.85489c1.04492,0.00812,2.187.08911,2.187-.93961m0.81,0c0,1.51471-1.39319,1.6929-2.997,1.62V288.315h-0.80188v-5.73477h1.74957C545.48187,282.59641,546.34052,282.99332,546.34052,284.1759Z" transform="translate(-163.12498 -192.37501)"/><path class="cls-2" d="M546.948,288.315c-0.01617-1.27979.03241-2.60818-.03241-3.83939h0.72089c0.01624,0.162.03241,0.47791,0.03241,0.648h0.02429a1.30028,1.30028,0,0,1,1.47424-.72092l-0.03241.70471a1.098,1.098,0,0,0-1.4256,1.1907V288.315H546.948" transform="translate(-163.12498 -192.37501)"/><path class="cls-2" d="M551.46777,284.37033c1.296,0,1.9035.87479,1.83868,2.2518h-3.04559a1.20114,1.20114,0,0,0,1.24744,1.16638,1.27945,1.27945,0,0,0,1.1178-.58319l0.53461,0.42929a1.919,1.919,0,0,1-1.6524.78571,2.0252,2.0252,0,0,1-.04053-4.05m1.07733,1.68478a1.0654,1.0654,0,0,0-1.539-.99631,1.1169,1.1169,0,0,0-.74524.99631h2.28424Z" transform="translate(-163.12498 -192.37501)"/><path class="cls-2" d="M556.38446,287.78043a1.39383,1.39383,0,0,0,0-2.77832,1.39251,1.39251,0,0,0,0,2.77832m0.12964,0.63989a1.59437,1.59437,0,0,1-1.35272-.68039h-0.02429V290.259h-0.76141v-5.78339h0.74518v0.5994h0.02435a1.53634,1.53634,0,0,1,1.38507-.70468A2.02746,2.02746,0,0,1,556.5141,288.42032Z" transform="translate(-163.12498 -192.37501)"/><path class="cls-2" d="M560.79089,287.81281a1.08787,1.08787,0,0,0,1.10974-1.3284c-0.83435.02432-1.89545-.0405-1.89545,0.729a0.64885,0.64885,0,0,0,.78571.5994m-1.56329-.58319c0-1.23929,1.40131-1.26361,2.673-1.296a0.82522,0.82522,0,0,0-.94775-0.94769,1.59747,1.59747,0,0,0-1.09344.4455l-0.405-.486a2.26232,2.26232,0,0,1,1.57141-.57507,1.42462,1.42462,0,0,1,1.60382,1.50659,23.91079,23.91079,0,0,0,.0567,2.43808H561.9978a2.55817,2.55817,0,0,1-.06482-0.55078h-0.02429a1.47164,1.47164,0,0,1-1.2879.648A1.19138,1.19138,0,0,1,559.2276,287.22961Z" transform="translate(-163.12498 -192.37501)"/><path class="cls-2" d="M563.90131,288.315c-0.01617-1.27979.03241-2.60818-.03241-3.83939h0.72089c0.01624,0.162.03241,0.47791,0.03241,0.648h0.02429a1.30028,1.30028,0,0,1,1.47424-.72092l-0.03241.70471a1.098,1.098,0,0,0-1.4256,1.1907V288.315h-0.76141" transform="translate(-163.12498 -192.37501)"/><path class="cls-2" d="M568.42108,284.37033c1.296,0,1.9035.87479,1.83868,2.2518h-3.04559a1.20114,1.20114,0,0,0,1.24744,1.16638,1.27945,1.27945,0,0,0,1.1178-.58319l0.53461,0.42929a1.919,1.919,0,0,1-1.6524.78571,2.0252,2.0252,0,0,1-.04053-4.05m1.07733,1.68478a1.0654,1.0654,0,0,0-1.539-.99631,1.1169,1.1169,0,0,0-.74524.99631h2.28424Z" transform="translate(-163.12498 -192.37501)"/><path class="cls-2" d="M575.37988,287.78043a1.39383,1.39383,0,0,0,0-2.77832,1.39251,1.39251,0,0,0,0,2.77832m0.12964,0.63989a1.59437,1.59437,0,0,1-1.35272-.68039h-0.02429V290.259h-0.76141v-5.78339h0.74518v0.5994h0.02435a1.53634,1.53634,0,0,1,1.38507-.70468A2.02746,2.02746,0,0,1,575.50952,288.42032Z" transform="translate(-163.12498 -192.37501)"/><path class="cls-2" d="M579.78625,287.81281a1.08787,1.08787,0,0,0,1.10974-1.3284c-0.83435.02432-1.89545-.0405-1.89545,0.729a0.64885,0.64885,0,0,0,.78571.5994m-1.56329-.58319c0-1.23929,1.40131-1.26361,2.673-1.296a0.82522,0.82522,0,0,0-.94775-0.94769,1.59747,1.59747,0,0,0-1.09344.4455l-0.405-.486a2.26231,2.26231,0,0,1,1.57141-.57507,1.42462,1.42462,0,0,1,1.60382,1.50659,23.91076,23.91076,0,0,0,.0567,2.43808h-0.68854a2.55817,2.55817,0,0,1-.06482-0.55078h-0.02429a1.47164,1.47164,0,0,1-1.2879.648A1.19138,1.19138,0,0,1,578.223,287.22961Z" transform="translate(-163.12498 -192.37501)"/><path class="cls-2" d="M582.64557,286.39532a1.87946,1.87946,0,0,1,2.04932-2.025,1.821,1.821,0,0,1,1.44177.63177l-0.55078.44553a1.05041,1.05041,0,0,0-.88293-0.43741,1.39137,1.39137,0,0,0,.00812,2.7702,1.09762,1.09762,0,0,0,.9234-0.4212l0.51031,0.4617a1.77345,1.77345,0,0,1-1.43372.5994,1.9038,1.9038,0,0,1-2.06549-2.025" transform="translate(-163.12498 -192.37501)"/><polyline class="cls-2" points="424.551 93.769 424.575 93.769 426.187 92.101 427.207 92.101 425.409 93.842 427.361 95.94 426.308 95.94 424.575 93.947 424.551 93.947 424.551 94.944 424.551 95.94 423.789 95.94 423.789 92.878 423.789 89.816 424.551 89.816 424.551 91.793 424.551 93.769"/><path class="cls-2" d="M592.39795,287.81281a1.08787,1.08787,0,0,0,1.10974-1.3284c-0.83435.02432-1.89545-.0405-1.89545,0.729a0.64885,0.64885,0,0,0,.78571.5994m-1.56329-.58319c0-1.23929,1.40131-1.26361,2.673-1.296a0.82522,0.82522,0,0,0-.94775-0.94769,1.59747,1.59747,0,0,0-1.09344.4455l-0.405-.486a2.26231,2.26231,0,0,1,1.57141-.57507,1.42462,1.42462,0,0,1,1.60382,1.50659,23.91076,23.91076,0,0,0,.0567,2.43808h-0.68854a2.55817,2.55817,0,0,1-.06482-0.55078h-0.02429a1.47164,1.47164,0,0,1-1.2879.648A1.19138,1.19138,0,0,1,590.83466,287.22961Z" transform="translate(-163.12498 -192.37501)"/><path class="cls-2" d="M597.31464,285.00211a1.35529,1.35529,0,0,0,0,2.70541,1.35361,1.35361,0,0,0,0-2.70541m2.00885,3.1185a1.9153,1.9153,0,0,1-2.12219,2.1384,2.81025,2.81025,0,0,1-1.87921-.69659l0.486-.59128a1.96183,1.96183,0,0,0,1.40131.62369c1.10162,0.02429,1.46613-.7695,1.33649-1.91159a1.5641,1.5641,0,0,1-1.35266.66418,1.98938,1.98938,0,0,1-.00812-3.97708,1.62544,1.62544,0,0,1,1.40131.72089v-0.6156h0.73712v3.645Z" transform="translate(-163.12498 -192.37501)"/><path class="cls-2" d="M602.361,284.37033c1.296,0,1.9035.87479,1.83868,2.2518h-3.04559a1.20114,1.20114,0,0,0,1.24744,1.16638,1.27945,1.27945,0,0,0,1.1178-.58319l0.53461,0.42929a1.919,1.919,0,0,1-1.6524.78571,2.0252,2.0252,0,0,1-.04053-4.05m1.07733,1.68478a1.0654,1.0654,0,0,0-1.539-.99631,1.1169,1.1169,0,0,0-.74524.99631h2.28424Z" transform="translate(-163.12498 -192.37501)"/><path class="cls-2" d="M551.92676,293.82031c-0.83429-.02429-0.66418.93152-0.68042,1.72531h0.891v0.62369h-0.891v3.2157H550.485v-3.2157h-0.76141v-0.62369H550.485v-0.80191a1.41954,1.41954,0,0,1,1.91156-1.5228l-0.08911.6561a1.34488,1.34488,0,0,0-.38068-0.0567" transform="translate(-163.12498 -192.37501)"/><path class="cls-2" d="M554.65643,298.85043a1.39383,1.39383,0,1,0-1.27979-1.39322,1.23654,1.23654,0,0,0,1.27979,1.39322m0-3.4101a2.02539,2.02539,0,1,1-2.06549,2.01688A1.8999,1.8999,0,0,1,554.65643,295.44034Z" transform="translate(-163.12498 -192.37501)"/><path class="cls-2" d="M557.78308,299.385c-0.01617-1.27979.03241-2.60818-.03241-3.83939h0.72089c0.01624,0.162.03241,0.47791,0.03241,0.648h0.02429a1.30028,1.30028,0,0,1,1.47424-.72092l-0.03241.70471a1.098,1.098,0,0,0-1.4256,1.1907V299.385h-0.76141" transform="translate(-163.12498 -192.37501)"/><path class="cls-2" d="M562.5,297.46533a1.87946,1.87946,0,0,1,2.04932-2.025,1.821,1.821,0,0,1,1.44177.63177l-0.55078.44553a1.05041,1.05041,0,0,0-.88293-0.43741,1.39137,1.39137,0,0,0,.00812,2.7702,1.09762,1.09762,0,0,0,.9234-0.4212l0.51031,0.4617a1.77345,1.77345,0,0,1-1.43372.5994,1.9038,1.9038,0,0,1-2.06549-2.025" transform="translate(-163.12498 -192.37501)"/><path class="cls-2" d="M570.14642,295.54562c0.01617,1.27982-.03241,2.60822.03241,3.83939h-0.72095c-0.03241-.162-0.00806-0.486-0.04858-0.63177a1.40627,1.40627,0,0,1-1.25549.73709,1.36309,1.36309,0,0,1-1.43372-1.56329v-2.38141h0.76141v2.12219c0,0.68042.1944,1.18262,0.87482,1.18262a1.10868,1.10868,0,0,0,1.02869-1.26361v-2.0412h0.76141" transform="translate(-163.12498 -192.37501)"/><path class="cls-2" d="M571.329,297.06842c-0.5022-1.25549.94769-1.9845,2.13843-1.46609a1.30349,1.30349,0,0,1,.59937.46979l-0.52649.44553a1.02419,1.02419,0,0,0-.891-0.47791,0.57979,0.57979,0,0,0-.71283.5022c0,0.59131.91534,0.51028,1.38513,0.729a1.08323,1.08323,0,0,1,.77759.9801c0.0567,1.56329-2.44623,1.51468-3.078.55078l0.54272-.4617a1.24473,1.24473,0,0,0,1.02057.53461,0.618,0.618,0,0,0,.76141-0.5589c0-.729-1.27173-0.51031-1.75769-0.94769a0.83893,0.83893,0,0,1-.25922-0.29971" transform="translate(-163.12498 -192.37501)"/><path class="cls-2" d="M576.28619,299.44983a1.034,1.034,0,0,1-1.1178-1.19879v-2.08173h-0.73706v-0.62369h0.73706V294.444h0.7533v1.10159h1.02063v0.62369h-1.02063V298.17c0,0.43741.12964,0.63992,0.54272,0.648a1.09232,1.09232,0,0,0,.4455-0.0972l0.02429,0.62369a1.93816,1.93816,0,0,1-.648.10532" transform="translate(-163.12498 -192.37501)"/><path class="cls-2" d="M579.54236,298.85043a1.39383,1.39383,0,1,0-1.27979-1.39322,1.23654,1.23654,0,0,0,1.27979,1.39322m0-3.4101a2.02539,2.02539,0,1,1-2.06549,2.01688A1.8999,1.8999,0,0,1,579.54236,295.44034Z" transform="translate(-163.12498 -192.37501)"/><path class="cls-2" d="M583.41418,296.17743a1.34464,1.34464,0,0,1,1.22314-.73709,1.20378,1.20378,0,0,1,1.19067.7695,1.41165,1.41165,0,0,1,1.30408-.7695,1.36351,1.36351,0,0,1,1.43372,1.56329V299.385h-0.76141v-2.13028c-0.00806-.6561-0.1944-1.1745-0.85046-1.1745-1.38513,0-.87482,1.97638-0.972,3.30478h-0.76141v-2.28418a0.82541,0.82541,0,0,0-.81-1.0206,1.10922,1.10922,0,0,0-.9801,1.26358v2.0412H582.669c-0.01617-1.27979.03241-2.60818-.03241-3.83939h0.72089c0.01624,0.162.03241,0.45361,0.03241,0.63181h0.02429" transform="translate(-163.12498 -192.37501)"/><path class="cls-2" d="M591.5871,295.44034c1.296,0,1.9035.87479,1.83868,2.2518h-3.04559a1.20114,1.20114,0,0,0,1.24744,1.16638,1.27945,1.27945,0,0,0,1.1178-.58319l0.53461,0.42929a1.919,1.919,0,0,1-1.6524.78571,2.0252,2.0252,0,0,1-.04053-4.05m1.07733,1.68478a1.0654,1.0654,0,0,0-1.539-.99631,1.1169,1.1169,0,0,0-.74524.99631h2.28424Z" transform="translate(-163.12498 -192.37501)"/><path class="cls-2" d="M594.495,299.385c-0.01617-1.27979.03241-2.60818-.03241-3.83939h0.72089c0.01624,0.162.03241,0.47791,0.03241,0.648h0.02429a1.30028,1.30028,0,0,1,1.47424-.72092l-0.03241.70471a1.098,1.098,0,0,0-1.4256,1.1907V299.385H594.495" transform="translate(-163.12498 -192.37501)"/><path class="cls-4" d="M360.36,257.445a2.58527,2.58527,0,0,1,3.33,0l34.695,31.725a2.07154,2.07154,0,0,1,0,3.06L363.69,323.955a2.58527,2.58527,0,0,1-3.33,0L325.665,292.23a2.07154,2.07154,0,0,1,0-3.06Z" transform="translate(-163.12498 -192.37501)"/><path class="cls-2" d="M349.64548,283.68088c0-1.02869-1.15021-.92337-2.187-0.91528v1.85489c1.04492,0.00812,2.187.08911,2.187-.93961m0.81,0c0,1.51471-1.39319,1.6929-2.997,1.62V287.82h-0.80188v-5.73477h1.7496C349.59686,282.10138,350.45547,282.49829,350.45547,283.68088Z" transform="translate(-163.12498 -192.37501)"/><path class="cls-2" d="M352.26178,287.31778a1.08784,1.08784,0,0,0,1.10971-1.3284c-0.83432.02432-1.89542-.0405-1.89542,0.729a0.64884,0.64884,0,0,0,.78571.5994m-1.56329-.58319c0-1.23929,1.40131-1.26361,2.673-1.296a0.8252,0.8252,0,0,0-.94772-0.94769,1.59755,1.59755,0,0,0-1.09348.4455l-0.405-.486a2.26223,2.26223,0,0,1,1.57138-.57507,1.42462,1.42462,0,0,1,1.60382,1.50659,23.91957,23.91957,0,0,0,.0567,2.43808h-0.68851a2.55625,2.55625,0,0,1-.06482-0.55078h-0.02429a1.47167,1.47167,0,0,1-1.2879.648A1.19136,1.19136,0,0,1,350.69849,286.73459Z" transform="translate(-163.12498 -192.37501)"/><path class="cls-2" d="M355.63947,283.98059c0.405,1.00439.77762,2.03311,1.20691,3.01321l1.0611-3.01321h0.81l-1.863,4.74661a1.39726,1.39726,0,0,1-1.83063.9801l0.07291-.6723a0.79449,0.79449,0,0,0,.8262-0.0972,4.7318,4.7318,0,0,0,.51032-1.11783l-1.64432-3.83939h0.85049" transform="translate(-163.12498 -192.37501)"/><path class="cls-2" d="M360.19977,284.6124a1.34456,1.34456,0,0,1,1.22311-.73709,1.20382,1.20382,0,0,1,1.1907.7695,1.41165,1.41165,0,0,1,1.30408-.7695,1.36351,1.36351,0,0,1,1.43372,1.56329V287.82H364.59V285.6897c-0.00809-.6561-0.1944-1.1745-0.85049-1.1745-1.3851,0-.87479,1.97638-0.972,3.30478h-0.76141V285.5358a0.82539,0.82539,0,0,0-.81-1.0206,1.10922,1.10922,0,0,0-.9801,1.26358V287.82h-0.76138c-0.0162-1.27979.03238-2.60818-.03241-3.83939h0.72089c0.0162,0.162.03241,0.45361,0.03241,0.63181h0.02429" transform="translate(-163.12498 -192.37501)"/><path class="cls-2" d="M368.37268,283.87531c1.296,0,1.9035.87479,1.83868,2.2518h-3.04559a1.20109,1.20109,0,0,0,1.24741,1.16638,1.27941,1.27941,0,0,0,1.1178-.58319l0.53461,0.42929a1.919,1.919,0,0,1-1.6524.78571,2.0252,2.0252,0,0,1-.0405-4.05m1.0773,1.68478a1.0654,1.0654,0,0,0-1.539-.99631,1.11691,1.11691,0,0,0-.74521.99631H369.45Z" transform="translate(-163.12498 -192.37501)"/><path class="cls-2" d="M371.28058,287.82c-0.0162-1.27979.03238-2.60818-.03241-3.83939h0.72089c0.0162,0.162.03241,0.45361,0.03241,0.63181h0.02429a1.34088,1.34088,0,0,1,1.24741-.73709,1.36351,1.36351,0,0,1,1.43372,1.56329V287.82h-0.76141V285.6897c0-.68042-0.1944-1.1745-0.87479-1.1745a1.11348,1.11348,0,0,0-1.02872,1.26358V287.82h-0.76138" transform="translate(-163.12498 -192.37501)"/><path class="cls-2" d="M377.21787,287.8848a1.03393,1.03393,0,0,1-1.1178-1.19879v-2.08173H375.363v-0.62369h0.73709V282.879h0.7533v1.10159h1.0206v0.62369h-1.0206v2.0007c0,0.43741.12961,0.63992,0.54269,0.648a1.09235,1.09235,0,0,0,.44553-0.0972l0.02429,0.62369a1.93843,1.93843,0,0,1-.648.10532" transform="translate(-163.12498 -192.37501)"/><path class="cls-2" d="M346.73126,295.6824a1.34456,1.34456,0,0,1,1.22311-.73709,1.20382,1.20382,0,0,1,1.1907.7695,1.41165,1.41165,0,0,1,1.30408-.7695,1.36351,1.36351,0,0,1,1.43372,1.56329V298.89h-0.76141V296.7597c-0.00809-.6561-0.1944-1.1745-0.85049-1.1745-1.3851,0-.87479,1.97638-0.972,3.30478h-0.76141V296.6058a0.82539,0.82539,0,0,0-.81-1.0206,1.10922,1.10922,0,0,0-.9801,1.26358V298.89h-0.76138c-0.0162-1.27979.03238-2.60818-.03241-3.83939h0.72089c0.0162,0.162.03241,0.45361,0.03241,0.63181h0.02429" transform="translate(-163.12498 -192.37501)"/><path class="cls-2" d="M354.90417,294.94531c1.296,0,1.9035.87479,1.83868,2.2518h-3.04559a1.20109,1.20109,0,0,0,1.24741,1.16638,1.27941,1.27941,0,0,0,1.1178-.58319l0.53461,0.42929a1.919,1.919,0,0,1-1.6524.78571,2.0252,2.0252,0,0,1-.0405-4.05m1.0773,1.68478a1.0654,1.0654,0,0,0-1.539-.99631,1.11691,1.11691,0,0,0-.74521.99631h2.28421Z" transform="translate(-163.12498 -192.37501)"/><path class="cls-2" d="M359.03516,298.9548a1.03393,1.03393,0,0,1-1.1178-1.19879v-2.08173h-0.73709V295.0506h0.73709V293.949h0.7533v1.10159h1.0206v0.62369h-1.0206v2.0007c0,0.43741.12961,0.63992,0.54269,0.648a1.09235,1.09235,0,0,0,.44553-0.0972l0.02429,0.62369a1.93843,1.93843,0,0,1-.648.10532" transform="translate(-163.12498 -192.37501)"/><path class="cls-2" d="M362.29138,295.59329a1.11914,1.11914,0,0,0-1.0368,1.26361V298.89h-0.76141v-6.1236h0.76141c0.00809,0.94772-.02429,1.944.0162,2.8674a1.35322,1.35322,0,0,1,1.215-.68848,1.37423,1.37423,0,0,1,1.43369,1.56329V298.89h-0.76138v-2.12219c0-.6723-0.1944-1.1745-0.8667-1.1745" transform="translate(-163.12498 -192.37501)"/><path class="cls-2" d="M367.02176,298.35541a1.39383,1.39383,0,1,0-1.27982-1.39322,1.23654,1.23654,0,0,0,1.27982,1.39322m0-3.4101a2.02539,2.02539,0,1,1-2.06549,2.01688A1.8999,1.8999,0,0,1,367.02176,294.94531Z" transform="translate(-163.12498 -192.37501)"/><path class="cls-2" d="M371.95465,295.57709a1.39458,1.39458,0,0,0,0,2.77832,1.39251,1.39251,0,0,0,0-2.77832m-0.1377-.63177a1.69872,1.69872,0,0,1,1.3851.68039v-2.85931h0.76141V298.89h-0.73712a3.72833,3.72833,0,0,0-.01617-0.60748,1.59871,1.59871,0,0,1-1.3851.7128,1.83536,1.83536,0,0,1-1.93591-2.03311A1.85637,1.85637,0,0,1,371.817,294.94531Z" transform="translate(-163.12498 -192.37501)"/><path class="cls-2" d="M376.73364,297.8775a0.53428,0.53428,0,0,1,.54272.52649,0.54286,0.54286,0,0,1-1.08542.00812,0.54109,0.54109,0,0,1,.54269-0.53461m0.04861-4.84381a1.49529,1.49529,0,0,1,1.58759,1.95212c-0.1539.6723-.83429,0.89908-1.1745,1.40128a1.7604,1.7604,0,0,0-.12149.87482h-0.76138a1.93485,1.93485,0,0,1,.891-1.87921,0.98267,0.98267,0,0,0,.41309-0.80188,0.82954,0.82954,0,0,0-.8829-0.85052,0.935,0.935,0,0,0-.93149.891l-0.77759-.08911A1.654,1.654,0,0,1,376.78226,293.03369Z" transform="translate(-163.12498 -192.37501)"/></svg>