<?xml version="1.0" encoding="utf-8"?>
<svg version="1.1" xmlns="http://www.w3.org/2000/svg" xmlns:xlink="http://www.w3.org/1999/xlink" x="0px" y="0px"
	 viewBox="0 0 300 300" xml:space="preserve">
<style type="text/css">
	.st5{stroke:#DB192B;fill:#DB192B;}
</style>
<g id="Layer_1" transform="scale(8,8) translate(-36.5,-50)">
	<path class="st5" d="M67.89,65.65c-0.01-4.04,1.13-5.08,3.1-5.63l0-1.07l-8.35,0.01l0,1.07c1.97,0.55,3.11,1.58,3.12,5.62l0.02,12.15L48.14,60.06
		c-0.97-0.96-1.35-1.07-1.97-1.07L39.65,59l0,1.07c1.42,0.14,2.24,0.69,3.87,2.24c0.52,0.48,1,1.07,1,2.03l0.02,13.84
		c0.01,4.04-1.13,5.08-3.1,5.63l0,1.07l8.35-0.01l0-1.07c-1.97-0.55-3.11-1.58-3.12-5.62l-0.02-13.05l19.84,19.88l1.41,0
		L67.89,65.65z"/>
</g>
</svg>
