<svg width="1007" height="483" viewBox="0 0 1007 483" fill="none" xmlns="http://www.w3.org/2000/svg">
<path d="M0 20C0 8.95431 8.95431 0 20 0H987C998.046 0 1007 8.95431 1007 20V463C1007 474.046 998.046 483 987 483H20C8.95432 483 0 474.046 0 463V20Z" fill="#E3E2E2"/>
<rect x="360.852" y="88.44" width="296.46" height="58.824" fill="white" stroke="#14C3FA" stroke-width="3"/>
<path d="M389.354 118.601C389.354 120.504 388.993 122.123 388.271 123.459C387.555 124.794 386.578 125.814 385.339 126.518C384.107 127.217 382.72 127.567 381.18 127.567C379.629 127.567 378.237 127.214 377.004 126.51C375.771 125.805 374.797 124.785 374.081 123.45C373.365 122.115 373.007 120.498 373.007 118.601C373.007 116.697 373.365 115.078 374.081 113.743C374.797 112.408 375.771 111.391 377.004 110.692C378.237 109.987 379.629 109.635 381.18 109.635C382.72 109.635 384.107 109.987 385.339 110.692C386.578 111.391 387.555 112.408 388.271 113.743C388.993 115.078 389.354 116.697 389.354 118.601ZM385.612 118.601C385.612 117.368 385.428 116.328 385.058 115.481C384.695 114.635 384.18 113.993 383.516 113.555C382.851 113.118 382.072 112.899 381.18 112.899C380.288 112.899 379.51 113.118 378.845 113.555C378.18 113.993 377.663 114.635 377.294 115.481C376.93 116.328 376.749 117.368 376.749 118.601C376.749 119.834 376.93 120.873 377.294 121.72C377.663 122.567 378.18 123.209 378.845 123.646C379.51 124.084 380.288 124.302 381.18 124.302C382.072 124.302 382.851 124.084 383.516 123.646C384.18 123.209 384.695 122.567 385.058 121.72C385.428 120.873 385.612 119.834 385.612 118.601ZM392.087 127.328V109.873H395.718V116.436H395.829C395.988 116.084 396.218 115.726 396.519 115.362C396.826 114.993 397.224 114.686 397.712 114.442C398.207 114.192 398.82 114.067 399.553 114.067C400.508 114.067 401.388 114.317 402.195 114.817C403.002 115.311 403.647 116.058 404.13 117.058C404.613 118.052 404.854 119.3 404.854 120.8C404.854 122.26 404.619 123.493 404.147 124.498C403.681 125.498 403.045 126.257 402.238 126.774C401.437 127.285 400.539 127.541 399.545 127.541C398.84 127.541 398.241 127.425 397.746 127.192C397.258 126.959 396.857 126.666 396.545 126.314C396.232 125.956 395.994 125.595 395.829 125.231H395.667V127.328H392.087ZM395.641 120.783C395.641 121.561 395.749 122.24 395.965 122.819C396.181 123.399 396.494 123.851 396.903 124.175C397.312 124.493 397.809 124.652 398.394 124.652C398.985 124.652 399.485 124.49 399.894 124.166C400.303 123.837 400.613 123.382 400.823 122.802C401.039 122.217 401.147 121.544 401.147 120.783C401.147 120.027 401.042 119.362 400.832 118.788C400.621 118.214 400.312 117.766 399.903 117.442C399.494 117.118 398.991 116.956 398.394 116.956C397.803 116.956 397.303 117.112 396.894 117.425C396.491 117.737 396.181 118.18 395.965 118.754C395.749 119.328 395.641 120.004 395.641 120.783ZM407.277 114.237H410.908V127.976C410.908 128.987 410.709 129.805 410.311 130.43C409.913 131.055 409.342 131.513 408.598 131.802C407.859 132.092 406.976 132.237 405.947 132.237C405.822 132.237 405.703 132.234 405.589 132.229C405.47 132.229 405.345 132.226 405.214 132.22V129.382C405.311 129.388 405.396 129.391 405.47 129.391C405.538 129.396 405.612 129.399 405.692 129.399C406.277 129.399 406.686 129.274 406.919 129.024C407.158 128.78 407.277 128.41 407.277 127.916V114.237ZM409.084 112.55C408.55 112.55 408.089 112.371 407.703 112.013C407.317 111.649 407.124 111.214 407.124 110.709C407.124 110.209 407.317 109.78 407.703 109.422C408.089 109.058 408.55 108.876 409.084 108.876C409.629 108.876 410.092 109.058 410.473 109.422C410.859 109.78 411.053 110.209 411.053 110.709C411.053 111.214 410.859 111.649 410.473 112.013C410.092 112.371 409.629 112.55 409.084 112.55ZM419.782 127.584C418.435 127.584 417.276 127.311 416.305 126.766C415.339 126.214 414.594 125.436 414.072 124.43C413.549 123.419 413.288 122.223 413.288 120.842C413.288 119.496 413.549 118.314 414.072 117.297C414.594 116.28 415.33 115.487 416.279 114.919C417.234 114.351 418.353 114.067 419.637 114.067C420.501 114.067 421.305 114.206 422.049 114.484C422.799 114.757 423.452 115.169 424.009 115.72C424.572 116.271 425.009 116.964 425.322 117.8C425.634 118.629 425.79 119.601 425.79 120.714V121.712H414.737V119.462H422.373C422.373 118.939 422.259 118.476 422.032 118.072C421.805 117.669 421.489 117.354 421.086 117.126C420.688 116.893 420.225 116.777 419.697 116.777C419.146 116.777 418.657 116.905 418.231 117.16C417.81 117.41 417.481 117.748 417.242 118.175C417.004 118.595 416.881 119.064 416.876 119.581V121.72C416.876 122.368 416.995 122.927 417.234 123.399C417.478 123.871 417.822 124.234 418.265 124.49C418.708 124.746 419.234 124.873 419.842 124.873C420.245 124.873 420.614 124.817 420.95 124.703C421.285 124.589 421.572 124.419 421.81 124.192C422.049 123.964 422.231 123.686 422.356 123.356L425.714 123.578C425.543 124.385 425.194 125.089 424.665 125.692C424.143 126.288 423.467 126.754 422.637 127.089C421.813 127.419 420.862 127.584 419.782 127.584ZM434.075 127.584C432.734 127.584 431.58 127.3 430.614 126.731C429.654 126.158 428.915 125.362 428.398 124.345C427.887 123.328 427.631 122.158 427.631 120.834C427.631 119.493 427.89 118.317 428.407 117.305C428.93 116.288 429.671 115.496 430.631 114.927C431.592 114.354 432.734 114.067 434.058 114.067C435.2 114.067 436.2 114.274 437.058 114.689C437.915 115.104 438.594 115.686 439.094 116.436C439.594 117.186 439.87 118.067 439.921 119.078H436.495C436.398 118.425 436.143 117.899 435.728 117.501C435.319 117.098 434.782 116.896 434.117 116.896C433.555 116.896 433.063 117.05 432.643 117.356C432.228 117.658 431.904 118.098 431.671 118.677C431.438 119.257 431.322 119.959 431.322 120.783C431.322 121.618 431.435 122.328 431.663 122.913C431.896 123.498 432.222 123.944 432.643 124.251C433.063 124.558 433.555 124.712 434.117 124.712C434.532 124.712 434.904 124.626 435.234 124.456C435.569 124.285 435.844 124.038 436.06 123.714C436.282 123.385 436.427 122.99 436.495 122.53H439.921C439.864 123.53 439.592 124.41 439.103 125.172C438.62 125.927 437.952 126.518 437.1 126.944C436.248 127.371 435.239 127.584 434.075 127.584ZM449.209 114.237V116.964H441.325V114.237H449.209ZM443.115 111.101H446.746V123.305C446.746 123.641 446.797 123.902 446.899 124.089C447.001 124.271 447.143 124.399 447.325 124.473C447.513 124.547 447.729 124.584 447.973 124.584C448.143 124.584 448.314 124.569 448.484 124.541C448.655 124.507 448.786 124.481 448.876 124.464L449.447 127.166C449.266 127.223 449.01 127.288 448.68 127.362C448.351 127.442 447.95 127.49 447.479 127.507C446.604 127.541 445.837 127.425 445.178 127.158C444.524 126.891 444.016 126.476 443.652 125.913C443.288 125.351 443.109 124.641 443.115 123.783V111.101ZM473.237 118.601C473.237 120.504 472.876 122.123 472.154 123.459C471.438 124.794 470.461 125.814 469.222 126.518C467.989 127.217 466.603 127.567 465.063 127.567C463.512 127.567 462.12 127.214 460.887 126.51C459.654 125.805 458.68 124.785 457.964 123.45C457.248 122.115 456.89 120.498 456.89 118.601C456.89 116.697 457.248 115.078 457.964 113.743C458.68 112.408 459.654 111.391 460.887 110.692C462.12 109.987 463.512 109.635 465.063 109.635C466.603 109.635 467.989 109.987 469.222 110.692C470.461 111.391 471.438 112.408 472.154 113.743C472.876 115.078 473.237 116.697 473.237 118.601ZM469.495 118.601C469.495 117.368 469.31 116.328 468.941 115.481C468.577 114.635 468.063 113.993 467.398 113.555C466.734 113.118 465.955 112.899 465.063 112.899C464.171 112.899 463.393 113.118 462.728 113.555C462.063 113.993 461.546 114.635 461.177 115.481C460.813 116.328 460.631 117.368 460.631 118.601C460.631 119.834 460.813 120.873 461.177 121.72C461.546 122.567 462.063 123.209 462.728 123.646C463.393 124.084 464.171 124.302 465.063 124.302C465.955 124.302 466.734 124.084 467.398 123.646C468.063 123.209 468.577 122.567 468.941 121.72C469.31 120.873 469.495 119.834 469.495 118.601ZM475.902 127.328V114.237H479.422V116.521H479.558C479.797 115.709 480.197 115.095 480.76 114.68C481.322 114.26 481.97 114.05 482.703 114.05C482.885 114.05 483.081 114.061 483.291 114.084C483.501 114.106 483.686 114.138 483.845 114.177V117.399C483.675 117.348 483.439 117.302 483.138 117.263C482.837 117.223 482.561 117.203 482.311 117.203C481.777 117.203 481.3 117.319 480.879 117.552C480.464 117.78 480.135 118.098 479.891 118.507C479.652 118.916 479.533 119.388 479.533 119.922V127.328H475.902ZM485.722 127.328V114.237H489.353V127.328H485.722ZM487.546 112.55C487.006 112.55 486.543 112.371 486.157 112.013C485.776 111.649 485.586 111.214 485.586 110.709C485.586 110.209 485.776 109.78 486.157 109.422C486.543 109.058 487.006 108.876 487.546 108.876C488.086 108.876 488.546 109.058 488.927 109.422C489.313 109.78 489.506 110.209 489.506 110.709C489.506 111.214 489.313 111.649 488.927 112.013C488.546 112.371 488.086 112.55 487.546 112.55ZM498.227 127.584C496.881 127.584 495.722 127.311 494.75 126.766C493.784 126.214 493.04 125.436 492.517 124.43C491.994 123.419 491.733 122.223 491.733 120.842C491.733 119.496 491.994 118.314 492.517 117.297C493.04 116.28 493.776 115.487 494.724 114.919C495.679 114.351 496.798 114.067 498.082 114.067C498.946 114.067 499.75 114.206 500.494 114.484C501.244 114.757 501.898 115.169 502.455 115.72C503.017 116.271 503.455 116.964 503.767 117.8C504.08 118.629 504.236 119.601 504.236 120.714V121.712H493.182V119.462H500.818C500.818 118.939 500.705 118.476 500.477 118.072C500.25 117.669 499.935 117.354 499.531 117.126C499.134 116.893 498.67 116.777 498.142 116.777C497.591 116.777 497.102 116.905 496.676 117.16C496.256 117.41 495.926 117.748 495.688 118.175C495.449 118.595 495.327 119.064 495.321 119.581V121.72C495.321 122.368 495.44 122.927 495.679 123.399C495.923 123.871 496.267 124.234 496.71 124.49C497.153 124.746 497.679 124.873 498.287 124.873C498.69 124.873 499.06 124.817 499.395 124.703C499.73 124.589 500.017 124.419 500.256 124.192C500.494 123.964 500.676 123.686 500.801 123.356L504.159 123.578C503.989 124.385 503.639 125.089 503.111 125.692C502.588 126.288 501.912 126.754 501.082 127.089C500.259 127.419 499.307 127.584 498.227 127.584ZM510.236 119.76V127.328H506.605V114.237H510.065V116.547H510.219C510.509 115.785 510.994 115.183 511.676 114.74C512.358 114.291 513.185 114.067 514.156 114.067C515.065 114.067 515.858 114.266 516.534 114.663C517.21 115.061 517.736 115.629 518.111 116.368C518.486 117.101 518.673 117.976 518.673 118.993V127.328H515.043V119.641C515.048 118.839 514.844 118.214 514.429 117.766C514.014 117.311 513.443 117.084 512.716 117.084C512.227 117.084 511.795 117.189 511.42 117.399C511.051 117.609 510.761 117.916 510.551 118.319C510.347 118.717 510.241 119.197 510.236 119.76ZM528.498 114.237V116.964H520.614V114.237H528.498ZM522.404 111.101H526.035V123.305C526.035 123.641 526.086 123.902 526.188 124.089C526.29 124.271 526.433 124.399 526.614 124.473C526.802 124.547 527.018 124.584 527.262 124.584C527.433 124.584 527.603 124.569 527.773 124.541C527.944 124.507 528.075 124.481 528.165 124.464L528.737 127.166C528.555 127.223 528.299 127.288 527.969 127.362C527.64 127.442 527.239 127.49 526.768 127.507C525.893 127.541 525.126 127.425 524.467 127.158C523.813 126.891 523.305 126.476 522.941 125.913C522.577 125.351 522.398 124.641 522.404 123.783V111.101ZM536.688 127.584C535.342 127.584 534.183 127.311 533.211 126.766C532.245 126.214 531.501 125.436 530.978 124.43C530.455 123.419 530.194 122.223 530.194 120.842C530.194 119.496 530.455 118.314 530.978 117.297C531.501 116.28 532.237 115.487 533.185 114.919C534.14 114.351 535.259 114.067 536.543 114.067C537.407 114.067 538.211 114.206 538.955 114.484C539.705 114.757 540.359 115.169 540.915 115.72C541.478 116.271 541.915 116.964 542.228 117.8C542.54 118.629 542.697 119.601 542.697 120.714V121.712H531.643V119.462H539.279C539.279 118.939 539.165 118.476 538.938 118.072C538.711 117.669 538.396 117.354 537.992 117.126C537.594 116.893 537.131 116.777 536.603 116.777C536.052 116.777 535.563 116.905 535.137 117.16C534.717 117.41 534.387 117.748 534.148 118.175C533.91 118.595 533.788 119.064 533.782 119.581V121.72C533.782 122.368 533.901 122.927 534.14 123.399C534.384 123.871 534.728 124.234 535.171 124.49C535.614 124.746 536.14 124.873 536.748 124.873C537.151 124.873 537.521 124.817 537.856 124.703C538.191 124.589 538.478 124.419 538.717 124.192C538.955 123.964 539.137 123.686 539.262 123.356L542.62 123.578C542.45 124.385 542.1 125.089 541.572 125.692C541.049 126.288 540.373 126.754 539.543 127.089C538.719 127.419 537.768 127.584 536.688 127.584ZM549.89 127.541C548.896 127.541 547.995 127.285 547.188 126.774C546.387 126.257 545.751 125.498 545.279 124.498C544.813 123.493 544.58 122.26 544.58 120.8C544.58 119.3 544.822 118.052 545.305 117.058C545.788 116.058 546.43 115.311 547.231 114.817C548.038 114.317 548.921 114.067 549.881 114.067C550.614 114.067 551.225 114.192 551.714 114.442C552.208 114.686 552.606 114.993 552.907 115.362C553.214 115.726 553.447 116.084 553.606 116.436H553.717V109.873H557.339V127.328H553.759V125.231H553.606C553.435 125.595 553.194 125.956 552.881 126.314C552.575 126.666 552.174 126.959 551.68 127.192C551.191 127.425 550.594 127.541 549.89 127.541ZM551.04 124.652C551.626 124.652 552.12 124.493 552.523 124.175C552.933 123.851 553.245 123.399 553.461 122.819C553.683 122.24 553.793 121.561 553.793 120.783C553.793 120.004 553.685 119.328 553.469 118.754C553.254 118.18 552.941 117.737 552.532 117.425C552.123 117.112 551.626 116.956 551.04 116.956C550.444 116.956 549.941 117.118 549.532 117.442C549.123 117.766 548.813 118.214 548.603 118.788C548.393 119.362 548.288 120.027 548.288 120.783C548.288 121.544 548.393 122.217 548.603 122.802C548.819 123.382 549.129 123.837 549.532 124.166C549.941 124.49 550.444 124.652 551.04 124.652ZM572.134 127.328H565.947V109.873H572.185C573.941 109.873 575.452 110.223 576.719 110.922C577.987 111.615 578.961 112.612 579.643 113.913C580.33 115.214 580.674 116.771 580.674 118.584C580.674 120.402 580.33 121.964 579.643 123.271C578.961 124.578 577.981 125.581 576.702 126.28C575.43 126.979 573.907 127.328 572.134 127.328ZM569.637 124.166H571.981C573.072 124.166 573.989 123.973 574.734 123.587C575.484 123.194 576.046 122.589 576.421 121.771C576.802 120.947 576.992 119.885 576.992 118.584C576.992 117.294 576.802 116.24 576.421 115.422C576.046 114.604 575.487 114.001 574.742 113.615C573.998 113.229 573.08 113.035 571.989 113.035H569.637V124.166ZM589.305 127.584C587.959 127.584 586.8 127.311 585.828 126.766C584.862 126.214 584.118 125.436 583.595 124.43C583.072 123.419 582.811 122.223 582.811 120.842C582.811 119.496 583.072 118.314 583.595 117.297C584.118 116.28 584.854 115.487 585.803 114.919C586.757 114.351 587.876 114.067 589.161 114.067C590.024 114.067 590.828 114.206 591.572 114.484C592.322 114.757 592.976 115.169 593.533 115.72C594.095 116.271 594.533 116.964 594.845 117.8C595.158 118.629 595.314 119.601 595.314 120.714V121.712H584.26V119.462H591.896C591.896 118.939 591.783 118.476 591.555 118.072C591.328 117.669 591.013 117.354 590.609 117.126C590.212 116.893 589.749 116.777 589.22 116.777C588.669 116.777 588.18 116.905 587.754 117.16C587.334 117.41 587.004 117.748 586.766 118.175C586.527 118.595 586.405 119.064 586.399 119.581V121.72C586.399 122.368 586.518 122.927 586.757 123.399C587.001 123.871 587.345 124.234 587.788 124.49C588.232 124.746 588.757 124.873 589.365 124.873C589.768 124.873 590.138 124.817 590.473 124.703C590.808 124.589 591.095 124.419 591.334 124.192C591.572 123.964 591.754 123.686 591.879 123.356L595.237 123.578C595.067 124.385 594.717 125.089 594.189 125.692C593.666 126.288 592.99 126.754 592.161 127.089C591.337 127.419 590.385 127.584 589.305 127.584ZM608.575 117.97L605.251 118.175C605.195 117.891 605.072 117.635 604.885 117.408C604.697 117.175 604.45 116.99 604.143 116.854C603.842 116.712 603.482 116.641 603.061 116.641C602.499 116.641 602.024 116.76 601.638 116.998C601.251 117.231 601.058 117.544 601.058 117.936C601.058 118.248 601.183 118.513 601.433 118.729C601.683 118.944 602.112 119.118 602.72 119.248L605.089 119.726C606.362 119.987 607.311 120.408 607.936 120.987C608.561 121.567 608.874 122.328 608.874 123.271C608.874 124.129 608.621 124.882 608.115 125.53C607.615 126.177 606.928 126.683 606.053 127.047C605.183 127.405 604.18 127.584 603.044 127.584C601.311 127.584 599.93 127.223 598.902 126.501C597.879 125.774 597.28 124.785 597.104 123.535L600.675 123.348C600.783 123.876 601.044 124.28 601.459 124.558C601.874 124.831 602.405 124.967 603.053 124.967C603.689 124.967 604.2 124.845 604.587 124.601C604.979 124.351 605.178 124.03 605.183 123.638C605.178 123.308 605.038 123.038 604.766 122.828C604.493 122.612 604.072 122.447 603.504 122.334L601.237 121.882C599.959 121.626 599.007 121.183 598.382 120.552C597.763 119.922 597.453 119.118 597.453 118.141C597.453 117.3 597.68 116.575 598.135 115.967C598.595 115.359 599.24 114.891 600.07 114.561C600.905 114.231 601.882 114.067 603.001 114.067C604.655 114.067 605.956 114.416 606.905 115.115C607.859 115.814 608.416 116.766 608.575 117.97ZM611.16 127.328V114.237H614.79V127.328H611.16ZM612.984 112.55C612.444 112.55 611.981 112.371 611.594 112.013C611.214 111.649 611.023 111.214 611.023 110.709C611.023 110.209 611.214 109.78 611.594 109.422C611.981 109.058 612.444 108.876 612.984 108.876C613.523 108.876 613.984 109.058 614.364 109.422C614.751 109.78 614.944 110.209 614.944 110.709C614.944 111.214 614.751 111.649 614.364 112.013C613.984 112.371 613.523 112.55 612.984 112.55ZM623.597 132.51C622.42 132.51 621.412 132.348 620.571 132.024C619.736 131.706 619.071 131.271 618.577 130.72C618.082 130.169 617.761 129.55 617.614 128.862L620.972 128.41C621.074 128.672 621.236 128.916 621.457 129.143C621.679 129.371 621.972 129.552 622.335 129.689C622.705 129.831 623.153 129.902 623.682 129.902C624.472 129.902 625.122 129.709 625.634 129.322C626.151 128.942 626.409 128.302 626.409 127.405V125.01H626.256C626.097 125.373 625.858 125.717 625.54 126.041C625.222 126.365 624.812 126.629 624.312 126.834C623.812 127.038 623.216 127.141 622.523 127.141C621.54 127.141 620.645 126.913 619.838 126.459C619.037 125.998 618.398 125.297 617.92 124.354C617.449 123.405 617.213 122.206 617.213 120.757C617.213 119.274 617.455 118.035 617.938 117.041C618.42 116.047 619.063 115.302 619.864 114.808C620.67 114.314 621.554 114.067 622.514 114.067C623.247 114.067 623.861 114.192 624.355 114.442C624.849 114.686 625.247 114.993 625.548 115.362C625.855 115.726 626.091 116.084 626.256 116.436H626.392V114.237H629.997V127.456C629.997 128.569 629.724 129.501 629.179 130.251C628.634 131.001 627.878 131.564 626.912 131.939C625.952 132.319 624.847 132.51 623.597 132.51ZM623.673 124.413C624.259 124.413 624.753 124.268 625.156 123.979C625.565 123.683 625.878 123.263 626.094 122.717C626.315 122.166 626.426 121.507 626.426 120.74C626.426 119.973 626.318 119.308 626.102 118.746C625.886 118.177 625.574 117.737 625.165 117.425C624.756 117.112 624.259 116.956 623.673 116.956C623.077 116.956 622.574 117.118 622.165 117.442C621.756 117.76 621.446 118.203 621.236 118.771C621.026 119.339 620.92 119.996 620.92 120.74C620.92 121.496 621.026 122.149 621.236 122.7C621.452 123.246 621.761 123.669 622.165 123.97C622.574 124.266 623.077 124.413 623.673 124.413ZM636.517 119.76V127.328H632.886V114.237H636.347V116.547H636.5C636.79 115.785 637.276 115.183 637.957 114.74C638.639 114.291 639.466 114.067 640.438 114.067C641.347 114.067 642.139 114.266 642.815 114.663C643.491 115.061 644.017 115.629 644.392 116.368C644.767 117.101 644.955 117.976 644.955 118.993V127.328H641.324V119.641C641.33 118.839 641.125 118.214 640.71 117.766C640.295 117.311 639.724 117.084 638.997 117.084C638.509 117.084 638.077 117.189 637.702 117.399C637.332 117.609 637.043 117.916 636.832 118.319C636.628 118.717 636.523 119.197 636.517 119.76Z" fill="black"/>
<rect x="88.4399" y="218.85" width="221.112" height="53.994" fill="white" stroke="#0B8E36" stroke-width="3"/>
<path d="M136.318 253.591H134.102L140.511 236.136H142.693L149.102 253.591H146.886L141.67 238.898H141.534L136.318 253.591ZM137.136 246.773H146.068V248.648H137.136V246.773ZM151.821 253.591V236.136H153.832V242.58H154.002C154.15 242.352 154.355 242.063 154.616 241.71C154.883 241.352 155.264 241.034 155.758 240.756C156.258 240.472 156.934 240.33 157.786 240.33C158.889 240.33 159.86 240.605 160.701 241.156C161.542 241.707 162.198 242.489 162.67 243.5C163.142 244.511 163.377 245.705 163.377 247.08C163.377 248.466 163.142 249.668 162.67 250.685C162.198 251.696 161.545 252.48 160.71 253.037C159.874 253.588 158.911 253.864 157.821 253.864C156.98 253.864 156.306 253.724 155.801 253.446C155.295 253.162 154.906 252.841 154.633 252.483C154.36 252.119 154.15 251.818 154.002 251.58H153.764V253.591H151.821ZM153.798 247.045C153.798 248.034 153.943 248.906 154.232 249.662C154.522 250.412 154.946 251 155.502 251.426C156.059 251.847 156.741 252.057 157.548 252.057C158.389 252.057 159.09 251.835 159.653 251.392C160.221 250.943 160.647 250.341 160.931 249.585C161.221 248.824 161.366 247.977 161.366 247.045C161.366 246.125 161.224 245.295 160.94 244.557C160.661 243.813 160.238 243.224 159.67 242.793C159.107 242.355 158.4 242.136 157.548 242.136C156.73 242.136 156.042 242.344 155.485 242.759C154.928 243.168 154.508 243.742 154.224 244.48C153.94 245.213 153.798 246.068 153.798 247.045ZM175.727 243.432L173.92 243.943C173.806 243.642 173.639 243.349 173.417 243.065C173.201 242.776 172.906 242.537 172.531 242.349C172.156 242.162 171.676 242.068 171.09 242.068C170.289 242.068 169.622 242.253 169.088 242.622C168.559 242.986 168.295 243.449 168.295 244.011C168.295 244.511 168.477 244.906 168.84 245.196C169.204 245.486 169.772 245.727 170.545 245.92L172.488 246.398C173.659 246.682 174.531 247.117 175.105 247.702C175.678 248.281 175.965 249.028 175.965 249.943C175.965 250.693 175.749 251.364 175.318 251.955C174.892 252.545 174.295 253.011 173.528 253.352C172.761 253.693 171.869 253.864 170.852 253.864C169.517 253.864 168.411 253.574 167.536 252.994C166.661 252.415 166.107 251.568 165.874 250.455L167.784 249.977C167.965 250.682 168.309 251.21 168.815 251.563C169.326 251.915 169.994 252.091 170.818 252.091C171.755 252.091 172.499 251.892 173.051 251.494C173.607 251.091 173.886 250.608 173.886 250.045C173.886 249.591 173.727 249.21 173.409 248.903C173.09 248.591 172.602 248.358 171.943 248.205L169.761 247.693C168.562 247.409 167.681 246.969 167.119 246.372C166.562 245.77 166.284 245.017 166.284 244.114C166.284 243.375 166.491 242.722 166.906 242.153C167.326 241.585 167.897 241.139 168.619 240.815C169.346 240.492 170.17 240.33 171.09 240.33C172.386 240.33 173.403 240.614 174.142 241.182C174.886 241.75 175.414 242.5 175.727 243.432ZM184.686 240.5V242.205H177.902V240.5H184.686ZM179.879 237.364H181.891V249.841C181.891 250.409 181.973 250.835 182.138 251.119C182.308 251.398 182.524 251.585 182.786 251.682C183.053 251.773 183.334 251.818 183.629 251.818C183.851 251.818 184.033 251.807 184.175 251.784C184.317 251.756 184.431 251.733 184.516 251.716L184.925 253.523C184.789 253.574 184.598 253.625 184.354 253.676C184.11 253.733 183.8 253.761 183.425 253.761C182.857 253.761 182.3 253.639 181.754 253.395C181.215 253.151 180.766 252.778 180.408 252.278C180.056 251.778 179.879 251.148 179.879 250.386V237.364ZM187.712 253.591V240.5H189.655V242.477H189.791C190.03 241.83 190.462 241.304 191.087 240.901C191.712 240.497 192.416 240.295 193.2 240.295C193.348 240.295 193.533 240.298 193.754 240.304C193.976 240.31 194.144 240.318 194.257 240.33V242.375C194.189 242.358 194.033 242.332 193.789 242.298C193.55 242.259 193.297 242.239 193.03 242.239C192.394 242.239 191.825 242.372 191.325 242.639C190.831 242.901 190.439 243.264 190.149 243.73C189.865 244.19 189.723 244.716 189.723 245.307V253.591H187.712ZM200.494 253.898C199.664 253.898 198.911 253.742 198.235 253.429C197.559 253.111 197.022 252.653 196.624 252.057C196.227 251.455 196.028 250.727 196.028 249.875C196.028 249.125 196.176 248.517 196.471 248.051C196.767 247.58 197.161 247.21 197.656 246.943C198.15 246.676 198.696 246.477 199.292 246.347C199.894 246.21 200.499 246.102 201.107 246.023C201.903 245.92 202.548 245.844 203.042 245.793C203.542 245.736 203.906 245.642 204.133 245.511C204.366 245.381 204.482 245.153 204.482 244.83V244.761C204.482 243.92 204.252 243.267 203.792 242.801C203.338 242.335 202.647 242.102 201.721 242.102C200.761 242.102 200.008 242.313 199.463 242.733C198.917 243.153 198.534 243.602 198.312 244.08L196.403 243.398C196.744 242.602 197.198 241.983 197.767 241.54C198.34 241.091 198.965 240.778 199.642 240.602C200.323 240.42 200.994 240.33 201.653 240.33C202.073 240.33 202.556 240.381 203.102 240.483C203.653 240.58 204.184 240.781 204.696 241.088C205.213 241.395 205.642 241.858 205.982 242.477C206.323 243.097 206.494 243.926 206.494 244.966V253.591H204.482V251.818H204.38C204.244 252.102 204.017 252.406 203.698 252.73C203.38 253.054 202.957 253.33 202.428 253.557C201.9 253.784 201.255 253.898 200.494 253.898ZM200.801 252.091C201.596 252.091 202.267 251.935 202.812 251.622C203.363 251.31 203.778 250.906 204.056 250.412C204.34 249.918 204.482 249.398 204.482 248.852V247.011C204.397 247.114 204.21 247.207 203.92 247.293C203.636 247.372 203.306 247.443 202.931 247.506C202.562 247.563 202.201 247.614 201.849 247.659C201.502 247.699 201.221 247.733 201.005 247.761C200.482 247.83 199.994 247.94 199.539 248.094C199.09 248.242 198.727 248.466 198.448 248.767C198.176 249.063 198.039 249.466 198.039 249.977C198.039 250.676 198.298 251.205 198.815 251.563C199.338 251.915 199.999 252.091 200.801 252.091ZM215.483 253.864C214.256 253.864 213.199 253.574 212.313 252.994C211.426 252.415 210.745 251.617 210.267 250.599C209.79 249.582 209.551 248.42 209.551 247.114C209.551 245.784 209.796 244.611 210.284 243.594C210.779 242.571 211.466 241.773 212.347 241.199C213.233 240.619 214.267 240.33 215.449 240.33C216.37 240.33 217.199 240.5 217.938 240.841C218.676 241.182 219.281 241.659 219.753 242.273C220.225 242.886 220.517 243.602 220.631 244.42H218.62C218.466 243.824 218.125 243.295 217.597 242.835C217.074 242.369 216.37 242.136 215.483 242.136C214.699 242.136 214.012 242.341 213.421 242.75C212.835 243.153 212.378 243.724 212.048 244.463C211.725 245.196 211.563 246.057 211.563 247.045C211.563 248.057 211.722 248.938 212.04 249.688C212.364 250.438 212.818 251.02 213.404 251.435C213.995 251.849 214.688 252.057 215.483 252.057C216.006 252.057 216.48 251.966 216.906 251.784C217.333 251.602 217.693 251.341 217.989 251C218.284 250.659 218.495 250.25 218.62 249.773H220.631C220.517 250.545 220.236 251.242 219.787 251.861C219.344 252.474 218.756 252.963 218.023 253.327C217.296 253.685 216.449 253.864 215.483 253.864ZM229.264 240.5V242.205H222.48V240.5H229.264ZM224.458 237.364H226.469V249.841C226.469 250.409 226.551 250.835 226.716 251.119C226.887 251.398 227.102 251.585 227.364 251.682C227.631 251.773 227.912 251.818 228.208 251.818C228.429 251.818 228.611 251.807 228.753 251.784C228.895 251.756 229.009 251.733 229.094 251.716L229.503 253.523C229.367 253.574 229.176 253.625 228.932 253.676C228.688 253.733 228.378 253.761 228.003 253.761C227.435 253.761 226.878 253.639 226.333 253.395C225.793 253.151 225.344 252.778 224.986 252.278C224.634 251.778 224.458 251.148 224.458 250.386V237.364ZM232.29 253.591V240.5H234.301V253.591H232.29ZM233.313 238.318C232.921 238.318 232.583 238.185 232.298 237.918C232.02 237.651 231.881 237.33 231.881 236.955C231.881 236.58 232.02 236.259 232.298 235.992C232.583 235.724 232.921 235.591 233.313 235.591C233.705 235.591 234.04 235.724 234.318 235.992C234.602 236.259 234.745 236.58 234.745 236.955C234.745 237.33 234.602 237.651 234.318 237.918C234.04 238.185 233.705 238.318 233.313 238.318ZM243.303 253.864C242.122 253.864 241.085 253.582 240.193 253.02C239.306 252.457 238.613 251.67 238.113 250.659C237.619 249.648 237.372 248.466 237.372 247.114C237.372 245.75 237.619 244.56 238.113 243.543C238.613 242.526 239.306 241.736 240.193 241.173C241.085 240.611 242.122 240.33 243.303 240.33C244.485 240.33 245.519 240.611 246.406 241.173C247.298 241.736 247.991 242.526 248.485 243.543C248.985 244.56 249.235 245.75 249.235 247.114C249.235 248.466 248.985 249.648 248.485 250.659C247.991 251.67 247.298 252.457 246.406 253.02C245.519 253.582 244.485 253.864 243.303 253.864ZM243.303 252.057C244.201 252.057 244.94 251.827 245.519 251.367C246.099 250.906 246.528 250.301 246.806 249.551C247.085 248.801 247.224 247.989 247.224 247.114C247.224 246.239 247.085 245.423 246.806 244.668C246.528 243.912 246.099 243.301 245.519 242.835C244.94 242.369 244.201 242.136 243.303 242.136C242.406 242.136 241.667 242.369 241.088 242.835C240.508 243.301 240.079 243.912 239.801 244.668C239.522 245.423 239.383 246.239 239.383 247.114C239.383 247.989 239.522 248.801 239.801 249.551C240.079 250.301 240.508 250.906 241.088 251.367C241.667 251.827 242.406 252.057 243.303 252.057ZM254.317 245.716V253.591H252.306V240.5H254.249V242.545H254.419C254.726 241.881 255.192 241.347 255.817 240.943C256.442 240.534 257.249 240.33 258.237 240.33C259.124 240.33 259.899 240.511 260.564 240.875C261.229 241.233 261.746 241.778 262.115 242.511C262.485 243.239 262.669 244.159 262.669 245.273V253.591H260.658V245.409C260.658 244.381 260.391 243.58 259.857 243.006C259.323 242.426 258.59 242.136 257.658 242.136C257.016 242.136 256.442 242.276 255.936 242.554C255.436 242.832 255.041 243.239 254.752 243.773C254.462 244.307 254.317 244.955 254.317 245.716Z" fill="black"/>
<rect x="711.51" y="218.85" width="221.112" height="53.994" fill="white" stroke="#FB0202" stroke-width="3"/>
<path d="M762.883 236.136V253.591H760.769V236.136H762.883ZM768.859 245.716V253.591H766.848V240.5H768.791V242.545H768.962C769.269 241.881 769.734 241.347 770.359 240.943C770.984 240.534 771.791 240.33 772.78 240.33C773.666 240.33 774.442 240.511 775.107 240.875C775.771 241.233 776.288 241.778 776.658 242.511C777.027 243.239 777.212 244.159 777.212 245.273V253.591H775.2V245.409C775.2 244.381 774.933 243.58 774.399 243.006C773.865 242.426 773.132 242.136 772.2 242.136C771.558 242.136 770.984 242.276 770.479 242.554C769.979 242.832 769.584 243.239 769.294 243.773C769.004 244.307 768.859 244.955 768.859 245.716ZM782.899 245.716V253.591H780.887V236.136H782.899V242.545H783.069C783.376 241.869 783.836 241.332 784.45 240.935C785.069 240.531 785.893 240.33 786.921 240.33C787.813 240.33 788.595 240.509 789.265 240.867C789.935 241.219 790.455 241.761 790.825 242.494C791.2 243.222 791.387 244.148 791.387 245.273V253.591H789.376V245.409C789.376 244.369 789.106 243.565 788.566 242.997C788.032 242.423 787.291 242.136 786.342 242.136C785.683 242.136 785.092 242.276 784.569 242.554C784.052 242.832 783.643 243.239 783.342 243.773C783.046 244.307 782.899 244.955 782.899 245.716ZM800.555 253.864C799.294 253.864 798.206 253.585 797.291 253.028C796.382 252.466 795.68 251.682 795.186 250.676C794.698 249.665 794.453 248.489 794.453 247.148C794.453 245.807 794.698 244.625 795.186 243.602C795.68 242.574 796.368 241.773 797.249 241.199C798.135 240.619 799.169 240.33 800.351 240.33C801.033 240.33 801.706 240.443 802.371 240.67C803.036 240.898 803.641 241.267 804.186 241.778C804.732 242.284 805.166 242.955 805.49 243.79C805.814 244.625 805.976 245.653 805.976 246.875V247.727H795.885V245.989H803.93C803.93 245.25 803.783 244.591 803.487 244.011C803.198 243.432 802.783 242.974 802.243 242.639C801.709 242.304 801.078 242.136 800.351 242.136C799.55 242.136 798.857 242.335 798.271 242.733C797.692 243.125 797.246 243.636 796.933 244.267C796.621 244.898 796.465 245.574 796.465 246.295V247.455C796.465 248.443 796.635 249.281 796.976 249.969C797.323 250.651 797.803 251.17 798.416 251.528C799.03 251.881 799.743 252.057 800.555 252.057C801.084 252.057 801.561 251.983 801.987 251.835C802.419 251.682 802.791 251.455 803.104 251.153C803.416 250.847 803.658 250.466 803.828 250.011L805.771 250.557C805.567 251.216 805.223 251.795 804.74 252.295C804.257 252.79 803.661 253.176 802.95 253.455C802.24 253.727 801.442 253.864 800.555 253.864ZM809.036 253.591V240.5H810.979V242.477H811.115C811.354 241.83 811.786 241.304 812.411 240.901C813.036 240.497 813.74 240.295 814.524 240.295C814.672 240.295 814.857 240.298 815.078 240.304C815.3 240.31 815.467 240.318 815.581 240.33V242.375C815.513 242.358 815.357 242.332 815.112 242.298C814.874 242.259 814.621 242.239 814.354 242.239C813.717 242.239 813.149 242.372 812.649 242.639C812.155 242.901 811.763 243.264 811.473 243.73C811.189 244.19 811.047 244.716 811.047 245.307V253.591H809.036ZM817.965 253.591V240.5H819.977V253.591H817.965ZM818.988 238.318C818.596 238.318 818.258 238.185 817.974 237.918C817.695 237.651 817.556 237.33 817.556 236.955C817.556 236.58 817.695 236.259 817.974 235.992C818.258 235.724 818.596 235.591 818.988 235.591C819.38 235.591 819.715 235.724 819.994 235.992C820.278 236.259 820.42 236.58 820.42 236.955C820.42 237.33 820.278 237.651 819.994 237.918C819.715 238.185 819.38 238.318 818.988 238.318ZM829.354 240.5V242.205H822.57V240.5H829.354ZM824.547 237.364H826.558V249.841C826.558 250.409 826.641 250.835 826.805 251.119C826.976 251.398 827.192 251.585 827.453 251.682C827.72 251.773 828.001 251.818 828.297 251.818C828.519 251.818 828.7 251.807 828.842 251.784C828.984 251.756 829.098 251.733 829.183 251.716L829.592 253.523C829.456 253.574 829.266 253.625 829.021 253.676C828.777 253.733 828.467 253.761 828.092 253.761C827.524 253.761 826.967 253.639 826.422 253.395C825.882 253.151 825.433 252.778 825.075 252.278C824.723 251.778 824.547 251.148 824.547 250.386V237.364ZM836.232 253.898C835.402 253.898 834.649 253.742 833.973 253.429C833.297 253.111 832.76 252.653 832.362 252.057C831.965 251.455 831.766 250.727 831.766 249.875C831.766 249.125 831.913 248.517 832.209 248.051C832.504 247.58 832.899 247.21 833.394 246.943C833.888 246.676 834.433 246.477 835.03 246.347C835.632 246.21 836.237 246.102 836.845 246.023C837.641 245.92 838.286 245.844 838.78 245.793C839.28 245.736 839.644 245.642 839.871 245.511C840.104 245.381 840.22 245.153 840.22 244.83V244.761C840.22 243.92 839.99 243.267 839.53 242.801C839.075 242.335 838.385 242.102 837.459 242.102C836.499 242.102 835.746 242.313 835.2 242.733C834.655 243.153 834.271 243.602 834.05 244.08L832.141 243.398C832.482 242.602 832.936 241.983 833.504 241.54C834.078 241.091 834.703 240.778 835.379 240.602C836.061 240.42 836.732 240.33 837.391 240.33C837.811 240.33 838.294 240.381 838.84 240.483C839.391 240.58 839.922 240.781 840.433 241.088C840.95 241.395 841.379 241.858 841.72 242.477C842.061 243.097 842.232 243.926 842.232 244.966V253.591H840.22V251.818H840.118C839.982 252.102 839.754 252.406 839.436 252.73C839.118 253.054 838.695 253.33 838.166 253.557C837.638 253.784 836.993 253.898 836.232 253.898ZM836.538 252.091C837.334 252.091 838.004 251.935 838.55 251.622C839.101 251.31 839.516 250.906 839.794 250.412C840.078 249.918 840.22 249.398 840.22 248.852V247.011C840.135 247.114 839.948 247.207 839.658 247.293C839.374 247.372 839.044 247.443 838.669 247.506C838.3 247.563 837.939 247.614 837.587 247.659C837.24 247.699 836.959 247.733 836.743 247.761C836.22 247.83 835.732 247.94 835.277 248.094C834.828 248.242 834.465 248.466 834.186 248.767C833.913 249.063 833.777 249.466 833.777 249.977C833.777 250.676 834.036 251.205 834.553 251.563C835.075 251.915 835.737 252.091 836.538 252.091ZM847.914 245.716V253.591H845.903V240.5H847.846V242.545H848.016C848.323 241.881 848.789 241.347 849.414 240.943C850.039 240.534 850.846 240.33 851.835 240.33C852.721 240.33 853.497 240.511 854.161 240.875C854.826 241.233 855.343 241.778 855.712 242.511C856.082 243.239 856.266 244.159 856.266 245.273V253.591H854.255V245.409C854.255 244.381 853.988 243.58 853.454 243.006C852.92 242.426 852.187 242.136 851.255 242.136C850.613 242.136 850.039 242.276 849.533 242.554C849.033 242.832 848.639 243.239 848.349 243.773C848.059 244.307 847.914 244.955 847.914 245.716ZM865.26 253.864C864.033 253.864 862.976 253.574 862.09 252.994C861.203 252.415 860.521 251.617 860.044 250.599C859.567 249.582 859.328 248.42 859.328 247.114C859.328 245.784 859.573 244.611 860.061 243.594C860.555 242.571 861.243 241.773 862.124 241.199C863.01 240.619 864.044 240.33 865.226 240.33C866.146 240.33 866.976 240.5 867.715 240.841C868.453 241.182 869.058 241.659 869.53 242.273C870.001 242.886 870.294 243.602 870.408 244.42H868.396C868.243 243.824 867.902 243.295 867.374 242.835C866.851 242.369 866.146 242.136 865.26 242.136C864.476 242.136 863.788 242.341 863.198 242.75C862.612 243.153 862.155 243.724 861.825 244.463C861.501 245.196 861.34 246.057 861.34 247.045C861.34 248.057 861.499 248.938 861.817 249.688C862.141 250.438 862.595 251.02 863.18 251.435C863.771 251.849 864.465 252.057 865.26 252.057C865.783 252.057 866.257 251.966 866.683 251.784C867.109 251.602 867.47 251.341 867.766 251C868.061 250.659 868.271 250.25 868.396 249.773H870.408C870.294 250.545 870.013 251.242 869.564 251.861C869.121 252.474 868.533 252.963 867.8 253.327C867.073 253.685 866.226 253.864 865.26 253.864ZM878.837 253.864C877.575 253.864 876.487 253.585 875.573 253.028C874.663 252.466 873.962 251.682 873.467 250.676C872.979 249.665 872.734 248.489 872.734 247.148C872.734 245.807 872.979 244.625 873.467 243.602C873.962 242.574 874.649 241.773 875.53 241.199C876.416 240.619 877.45 240.33 878.632 240.33C879.314 240.33 879.987 240.443 880.652 240.67C881.317 240.898 881.922 241.267 882.467 241.778C883.013 242.284 883.448 242.955 883.771 243.79C884.095 244.625 884.257 245.653 884.257 246.875V247.727H874.166V245.989H882.212C882.212 245.25 882.064 244.591 881.769 244.011C881.479 243.432 881.064 242.974 880.524 242.639C879.99 242.304 879.359 242.136 878.632 242.136C877.831 242.136 877.138 242.335 876.553 242.733C875.973 243.125 875.527 243.636 875.215 244.267C874.902 244.898 874.746 245.574 874.746 246.295V247.455C874.746 248.443 874.916 249.281 875.257 249.969C875.604 250.651 876.084 251.17 876.698 251.528C877.311 251.881 878.024 252.057 878.837 252.057C879.365 252.057 879.842 251.983 880.269 251.835C880.7 251.682 881.073 251.455 881.385 251.153C881.698 250.847 881.939 250.466 882.109 250.011L884.053 250.557C883.848 251.216 883.504 251.795 883.021 252.295C882.538 252.79 881.942 253.176 881.232 253.455C880.521 253.727 879.723 253.864 878.837 253.864Z" fill="black"/>
<rect x="239.136" y="314.484" width="221.112" height="53.994" fill="white" stroke="#FDB90B" stroke-width="3"/>
<path d="M272.599 349.225V331.77H283.133V333.645H274.712V339.543H282.587V341.418H274.712V347.35H283.269V349.225H272.599ZM288.681 341.35V349.225H286.67V336.134H288.613V338.18H288.783C289.09 337.515 289.556 336.981 290.181 336.577C290.806 336.168 291.613 335.964 292.602 335.964C293.488 335.964 294.264 336.145 294.928 336.509C295.593 336.867 296.11 337.412 296.48 338.145C296.849 338.873 297.033 339.793 297.033 340.907V349.225H295.022V341.043C295.022 340.015 294.755 339.214 294.221 338.64C293.687 338.06 292.954 337.77 292.022 337.77C291.38 337.77 290.806 337.91 290.301 338.188C289.801 338.466 289.406 338.873 289.116 339.407C288.826 339.941 288.681 340.589 288.681 341.35ZM306.027 349.498C304.8 349.498 303.743 349.208 302.857 348.628C301.97 348.049 301.288 347.251 300.811 346.233C300.334 345.216 300.095 344.055 300.095 342.748C300.095 341.418 300.34 340.245 300.828 339.228C301.323 338.205 302.01 337.407 302.891 336.833C303.777 336.253 304.811 335.964 305.993 335.964C306.913 335.964 307.743 336.134 308.482 336.475C309.22 336.816 309.825 337.293 310.297 337.907C310.769 338.52 311.061 339.236 311.175 340.055H309.163C309.01 339.458 308.669 338.93 308.141 338.469C307.618 338.003 306.913 337.77 306.027 337.77C305.243 337.77 304.556 337.975 303.965 338.384C303.379 338.787 302.922 339.358 302.592 340.097C302.269 340.83 302.107 341.691 302.107 342.68C302.107 343.691 302.266 344.572 302.584 345.322C302.908 346.072 303.362 346.654 303.948 347.069C304.538 347.483 305.232 347.691 306.027 347.691C306.55 347.691 307.024 347.6 307.45 347.418C307.877 347.236 308.237 346.975 308.533 346.634C308.828 346.293 309.038 345.884 309.163 345.407H311.175C311.061 346.18 310.78 346.876 310.331 347.495C309.888 348.108 309.3 348.597 308.567 348.961C307.84 349.319 306.993 349.498 306.027 349.498ZM317.967 349.532C317.138 349.532 316.385 349.376 315.709 349.063C315.033 348.745 314.496 348.287 314.098 347.691C313.7 347.089 313.502 346.361 313.502 345.509C313.502 344.759 313.649 344.151 313.945 343.685C314.24 343.214 314.635 342.844 315.129 342.577C315.624 342.31 316.169 342.111 316.766 341.981C317.368 341.844 317.973 341.736 318.581 341.657C319.377 341.555 320.021 341.478 320.516 341.427C321.016 341.37 321.379 341.276 321.607 341.145C321.84 341.015 321.956 340.787 321.956 340.464V340.395C321.956 339.555 321.726 338.901 321.266 338.435C320.811 337.969 320.121 337.736 319.195 337.736C318.234 337.736 317.482 337.947 316.936 338.367C316.391 338.787 316.007 339.236 315.786 339.714L313.877 339.032C314.217 338.236 314.672 337.617 315.24 337.174C315.814 336.725 316.439 336.412 317.115 336.236C317.797 336.055 318.467 335.964 319.127 335.964C319.547 335.964 320.03 336.015 320.575 336.117C321.127 336.214 321.658 336.415 322.169 336.722C322.686 337.029 323.115 337.492 323.456 338.111C323.797 338.731 323.967 339.56 323.967 340.6V349.225H321.956V347.452H321.854C321.717 347.736 321.49 348.04 321.172 348.364C320.854 348.688 320.431 348.964 319.902 349.191C319.374 349.418 318.729 349.532 317.967 349.532ZM318.274 347.725C319.07 347.725 319.74 347.569 320.286 347.256C320.837 346.944 321.252 346.54 321.53 346.046C321.814 345.552 321.956 345.032 321.956 344.486V342.645C321.871 342.748 321.683 342.841 321.394 342.927C321.109 343.006 320.78 343.077 320.405 343.14C320.036 343.197 319.675 343.248 319.323 343.293C318.976 343.333 318.695 343.367 318.479 343.395C317.956 343.464 317.467 343.574 317.013 343.728C316.564 343.876 316.2 344.1 315.922 344.401C315.649 344.697 315.513 345.1 315.513 345.611C315.513 346.31 315.771 346.839 316.288 347.197C316.811 347.549 317.473 347.725 318.274 347.725ZM327.639 354.134V336.134H329.582V338.214H329.82C329.968 337.986 330.173 337.697 330.434 337.344C330.701 336.986 331.082 336.668 331.576 336.39C332.076 336.106 332.752 335.964 333.605 335.964C334.707 335.964 335.678 336.239 336.519 336.79C337.36 337.341 338.016 338.123 338.488 339.134C338.96 340.145 339.195 341.339 339.195 342.714C339.195 344.1 338.96 345.302 338.488 346.319C338.016 347.33 337.363 348.114 336.528 348.671C335.693 349.222 334.73 349.498 333.639 349.498C332.798 349.498 332.124 349.358 331.619 349.08C331.113 348.796 330.724 348.475 330.451 348.117C330.178 347.753 329.968 347.452 329.82 347.214H329.65V354.134H327.639ZM329.616 342.68C329.616 343.668 329.761 344.54 330.051 345.296C330.34 346.046 330.764 346.634 331.32 347.06C331.877 347.481 332.559 347.691 333.366 347.691C334.207 347.691 334.908 347.469 335.471 347.026C336.039 346.577 336.465 345.975 336.749 345.219C337.039 344.458 337.184 343.611 337.184 342.68C337.184 341.759 337.042 340.93 336.758 340.191C336.48 339.447 336.056 338.858 335.488 338.427C334.926 337.989 334.218 337.77 333.366 337.77C332.548 337.77 331.86 337.978 331.303 338.393C330.747 338.802 330.326 339.376 330.042 340.114C329.758 340.847 329.616 341.702 329.616 342.68ZM351.536 339.066L349.73 339.577C349.616 339.276 349.448 338.983 349.227 338.699C349.011 338.41 348.715 338.171 348.34 337.983C347.965 337.796 347.485 337.702 346.9 337.702C346.099 337.702 345.431 337.887 344.897 338.256C344.369 338.62 344.105 339.083 344.105 339.645C344.105 340.145 344.286 340.54 344.65 340.83C345.014 341.12 345.582 341.361 346.355 341.555L348.298 342.032C349.468 342.316 350.34 342.751 350.914 343.336C351.488 343.915 351.775 344.662 351.775 345.577C351.775 346.327 351.559 346.998 351.127 347.589C350.701 348.18 350.105 348.645 349.337 348.986C348.57 349.327 347.678 349.498 346.661 349.498C345.326 349.498 344.221 349.208 343.346 348.628C342.471 348.049 341.917 347.202 341.684 346.089L343.593 345.611C343.775 346.316 344.119 346.844 344.624 347.197C345.136 347.549 345.803 347.725 346.627 347.725C347.565 347.725 348.309 347.526 348.86 347.128C349.417 346.725 349.695 346.242 349.695 345.68C349.695 345.225 349.536 344.844 349.218 344.537C348.9 344.225 348.411 343.992 347.752 343.839L345.57 343.327C344.372 343.043 343.491 342.603 342.928 342.006C342.372 341.404 342.093 340.651 342.093 339.748C342.093 339.009 342.301 338.356 342.715 337.787C343.136 337.219 343.707 336.773 344.428 336.449C345.156 336.126 345.98 335.964 346.9 335.964C348.195 335.964 349.212 336.248 349.951 336.816C350.695 337.384 351.224 338.134 351.536 339.066ZM363.053 343.873V336.134H365.064V349.225H363.053V347.009H362.916C362.609 347.674 362.132 348.239 361.484 348.705C360.837 349.165 360.019 349.395 359.03 349.395C358.212 349.395 357.484 349.216 356.848 348.858C356.212 348.495 355.712 347.949 355.348 347.222C354.984 346.489 354.803 345.566 354.803 344.452V336.134H356.814V344.316C356.814 345.27 357.081 346.032 357.615 346.6C358.155 347.168 358.842 347.452 359.678 347.452C360.178 347.452 360.686 347.324 361.203 347.069C361.726 346.813 362.163 346.421 362.516 345.893C362.874 345.364 363.053 344.691 363.053 343.873ZM370.759 331.77V349.225H368.748V331.77H370.759ZM378.296 349.532C377.466 349.532 376.713 349.376 376.037 349.063C375.361 348.745 374.824 348.287 374.426 347.691C374.029 347.089 373.83 346.361 373.83 345.509C373.83 344.759 373.977 344.151 374.273 343.685C374.568 343.214 374.963 342.844 375.458 342.577C375.952 342.31 376.497 342.111 377.094 341.981C377.696 341.844 378.301 341.736 378.909 341.657C379.705 341.555 380.35 341.478 380.844 341.427C381.344 341.37 381.708 341.276 381.935 341.145C382.168 341.015 382.284 340.787 382.284 340.464V340.395C382.284 339.555 382.054 338.901 381.594 338.435C381.139 337.969 380.449 337.736 379.523 337.736C378.563 337.736 377.81 337.947 377.264 338.367C376.719 338.787 376.335 339.236 376.114 339.714L374.205 339.032C374.546 338.236 375 337.617 375.568 337.174C376.142 336.725 376.767 336.412 377.443 336.236C378.125 336.055 378.796 335.964 379.455 335.964C379.875 335.964 380.358 336.015 380.904 336.117C381.455 336.214 381.986 336.415 382.497 336.722C383.014 337.029 383.443 337.492 383.784 338.111C384.125 338.731 384.296 339.56 384.296 340.6V349.225H382.284V347.452H382.182C382.046 347.736 381.818 348.04 381.5 348.364C381.182 348.688 380.759 348.964 380.23 349.191C379.702 349.418 379.057 349.532 378.296 349.532ZM378.602 347.725C379.398 347.725 380.068 347.569 380.614 347.256C381.165 346.944 381.58 346.54 381.858 346.046C382.142 345.552 382.284 345.032 382.284 344.486V342.645C382.199 342.748 382.011 342.841 381.722 342.927C381.438 343.006 381.108 343.077 380.733 343.14C380.364 343.197 380.003 343.248 379.651 343.293C379.304 343.333 379.023 343.367 378.807 343.395C378.284 343.464 377.796 343.574 377.341 343.728C376.892 343.876 376.529 344.1 376.25 344.401C375.977 344.697 375.841 345.1 375.841 345.611C375.841 346.31 376.1 346.839 376.617 347.197C377.139 347.549 377.801 347.725 378.602 347.725ZM393.66 336.134V337.839H386.876V336.134H393.66ZM388.853 332.998H390.864V345.475C390.864 346.043 390.947 346.469 391.112 346.753C391.282 347.032 391.498 347.219 391.759 347.316C392.026 347.407 392.308 347.452 392.603 347.452C392.825 347.452 393.007 347.441 393.149 347.418C393.291 347.39 393.404 347.367 393.489 347.35L393.899 349.157C393.762 349.208 393.572 349.259 393.328 349.31C393.083 349.367 392.774 349.395 392.399 349.395C391.83 349.395 391.274 349.273 390.728 349.029C390.188 348.785 389.739 348.412 389.382 347.912C389.029 347.412 388.853 346.782 388.853 346.02V332.998ZM396.685 349.225V336.134H398.697V349.225H396.685ZM397.708 333.952C397.316 333.952 396.978 333.819 396.694 333.552C396.416 333.285 396.276 332.964 396.276 332.589C396.276 332.214 396.416 331.893 396.694 331.626C396.978 331.358 397.316 331.225 397.708 331.225C398.1 331.225 398.435 331.358 398.714 331.626C398.998 331.893 399.14 332.214 399.14 332.589C399.14 332.964 398.998 333.285 398.714 333.552C398.435 333.819 398.1 333.952 397.708 333.952ZM407.699 349.498C406.517 349.498 405.48 349.216 404.588 348.654C403.702 348.091 403.009 347.305 402.509 346.293C402.014 345.282 401.767 344.1 401.767 342.748C401.767 341.384 402.014 340.194 402.509 339.177C403.009 338.16 403.702 337.37 404.588 336.807C405.48 336.245 406.517 335.964 407.699 335.964C408.881 335.964 409.915 336.245 410.801 336.807C411.693 337.37 412.386 338.16 412.881 339.177C413.381 340.194 413.631 341.384 413.631 342.748C413.631 344.1 413.381 345.282 412.881 346.293C412.386 347.305 411.693 348.091 410.801 348.654C409.915 349.216 408.881 349.498 407.699 349.498ZM407.699 347.691C408.597 347.691 409.335 347.461 409.915 347.001C410.494 346.54 410.923 345.935 411.202 345.185C411.48 344.435 411.619 343.623 411.619 342.748C411.619 341.873 411.48 341.057 411.202 340.302C410.923 339.546 410.494 338.935 409.915 338.469C409.335 338.003 408.597 337.77 407.699 337.77C406.801 337.77 406.063 338.003 405.483 338.469C404.904 338.935 404.475 339.546 404.196 340.302C403.918 341.057 403.779 341.873 403.779 342.748C403.779 343.623 403.918 344.435 404.196 345.185C404.475 345.935 404.904 346.54 405.483 347.001C406.063 347.461 406.801 347.691 407.699 347.691ZM418.712 341.35V349.225H416.701V336.134H418.644V338.18H418.815C419.122 337.515 419.587 336.981 420.212 336.577C420.837 336.168 421.644 335.964 422.633 335.964C423.519 335.964 424.295 336.145 424.96 336.509C425.624 336.867 426.141 337.412 426.511 338.145C426.88 338.873 427.065 339.793 427.065 340.907V349.225H425.053V341.043C425.053 340.015 424.786 339.214 424.252 338.64C423.718 338.06 422.985 337.77 422.053 337.77C421.411 337.77 420.837 337.91 420.332 338.188C419.832 338.466 419.437 338.873 419.147 339.407C418.857 339.941 418.712 340.589 418.712 341.35Z" fill="black"/>
<rect x="510.582" y="314.484" width="221.112" height="53.994" fill="white" stroke="#3D4FEE" stroke-width="3"/>
<path d="M543.013 349.225V331.77H548.911C550.28 331.77 551.4 332.018 552.269 332.512C553.144 333.001 553.792 333.662 554.212 334.498C554.633 335.333 554.843 336.265 554.843 337.293C554.843 338.322 554.633 339.256 554.212 340.097C553.797 340.938 553.155 341.608 552.286 342.108C551.417 342.603 550.303 342.85 548.945 342.85H544.718V340.975H548.877C549.815 340.975 550.567 340.813 551.136 340.489C551.704 340.165 552.116 339.728 552.371 339.177C552.633 338.62 552.763 337.992 552.763 337.293C552.763 336.594 552.633 335.969 552.371 335.418C552.116 334.867 551.701 334.435 551.127 334.123C550.553 333.805 549.792 333.645 548.843 333.645H545.127V349.225H543.013ZM563.153 349.498C561.971 349.498 560.934 349.216 560.042 348.654C559.155 348.091 558.462 347.305 557.962 346.293C557.468 345.282 557.221 344.1 557.221 342.748C557.221 341.384 557.468 340.194 557.962 339.177C558.462 338.16 559.155 337.37 560.042 336.807C560.934 336.245 561.971 335.964 563.153 335.964C564.334 335.964 565.368 336.245 566.255 336.807C567.147 337.37 567.84 338.16 568.334 339.177C568.834 340.194 569.084 341.384 569.084 342.748C569.084 344.1 568.834 345.282 568.334 346.293C567.84 347.305 567.147 348.091 566.255 348.654C565.368 349.216 564.334 349.498 563.153 349.498ZM563.153 347.691C564.05 347.691 564.789 347.461 565.368 347.001C565.948 346.54 566.377 345.935 566.655 345.185C566.934 344.435 567.073 343.623 567.073 342.748C567.073 341.873 566.934 341.057 566.655 340.302C566.377 339.546 565.948 338.935 565.368 338.469C564.789 338.003 564.05 337.77 563.153 337.77C562.255 337.77 561.516 338.003 560.937 338.469C560.357 338.935 559.928 339.546 559.65 340.302C559.371 341.057 559.232 341.873 559.232 342.748C559.232 343.623 559.371 344.435 559.65 345.185C559.928 345.935 560.357 346.54 560.937 347.001C561.516 347.461 562.255 347.691 563.153 347.691ZM574.166 331.77V349.225H572.155V331.77H574.166ZM579.145 354.134C578.805 354.134 578.501 354.106 578.234 354.049C577.967 353.998 577.782 353.947 577.68 353.895L578.191 352.123C578.68 352.248 579.111 352.293 579.486 352.259C579.861 352.225 580.194 352.057 580.484 351.756C580.779 351.461 581.049 350.981 581.293 350.316L581.668 349.293L576.827 336.134H579.009L582.623 346.566H582.759L586.373 336.134H588.555L582.998 351.134C582.748 351.81 582.438 352.37 582.069 352.813C581.699 353.262 581.27 353.594 580.782 353.81C580.299 354.026 579.753 354.134 579.145 354.134ZM591.209 349.225V336.134H593.153V338.18H593.323C593.596 337.481 594.036 336.938 594.644 336.552C595.252 336.16 595.982 335.964 596.834 335.964C597.698 335.964 598.417 336.16 598.991 336.552C599.57 336.938 600.022 337.481 600.346 338.18H600.482C600.817 337.503 601.32 336.966 601.991 336.569C602.661 336.165 603.465 335.964 604.403 335.964C605.573 335.964 606.53 336.33 607.275 337.063C608.019 337.79 608.391 338.924 608.391 340.464V349.225H606.38V340.464C606.38 339.498 606.116 338.807 605.587 338.393C605.059 337.978 604.437 337.77 603.721 337.77C602.8 337.77 602.087 338.049 601.582 338.606C601.076 339.157 600.823 339.856 600.823 340.702V349.225H598.778V340.259C598.778 339.515 598.536 338.915 598.053 338.461C597.57 338.001 596.948 337.77 596.187 337.77C595.664 337.77 595.175 337.91 594.721 338.188C594.272 338.466 593.908 338.853 593.63 339.347C593.357 339.836 593.221 340.401 593.221 341.043V349.225H591.209ZM617.387 349.498C616.205 349.498 615.168 349.216 614.276 348.654C613.39 348.091 612.697 347.305 612.197 346.293C611.702 345.282 611.455 344.1 611.455 342.748C611.455 341.384 611.702 340.194 612.197 339.177C612.697 338.16 613.39 337.37 614.276 336.807C615.168 336.245 616.205 335.964 617.387 335.964C618.569 335.964 619.603 336.245 620.489 336.807C621.381 337.37 622.074 338.16 622.569 339.177C623.069 340.194 623.319 341.384 623.319 342.748C623.319 344.1 623.069 345.282 622.569 346.293C622.074 347.305 621.381 348.091 620.489 348.654C619.603 349.216 618.569 349.498 617.387 349.498ZM617.387 347.691C618.285 347.691 619.023 347.461 619.603 347.001C620.182 346.54 620.611 345.935 620.89 345.185C621.168 344.435 621.307 343.623 621.307 342.748C621.307 341.873 621.168 341.057 620.89 340.302C620.611 339.546 620.182 338.935 619.603 338.469C619.023 338.003 618.285 337.77 617.387 337.77C616.489 337.77 615.751 338.003 615.171 338.469C614.592 338.935 614.163 339.546 613.884 340.302C613.606 341.057 613.467 341.873 613.467 342.748C613.467 343.623 613.606 344.435 613.884 345.185C614.163 345.935 614.592 346.54 615.171 347.001C615.751 347.461 616.489 347.691 617.387 347.691ZM626.389 349.225V336.134H628.332V338.111H628.469C628.707 337.464 629.139 336.938 629.764 336.535C630.389 336.131 631.094 335.93 631.878 335.93C632.025 335.93 632.21 335.932 632.432 335.938C632.653 335.944 632.821 335.952 632.935 335.964V338.009C632.866 337.992 632.71 337.966 632.466 337.932C632.227 337.893 631.974 337.873 631.707 337.873C631.071 337.873 630.503 338.006 630.003 338.273C629.508 338.535 629.116 338.898 628.827 339.364C628.543 339.824 628.4 340.35 628.4 340.941V349.225H626.389ZM635.319 354.134V336.134H637.262V338.214H637.501C637.648 337.986 637.853 337.697 638.114 337.344C638.381 336.986 638.762 336.668 639.256 336.39C639.756 336.106 640.432 335.964 641.285 335.964C642.387 335.964 643.359 336.239 644.199 336.79C645.04 337.341 645.697 338.123 646.168 339.134C646.64 340.145 646.876 341.339 646.876 342.714C646.876 344.1 646.64 345.302 646.168 346.319C645.697 347.33 645.043 348.114 644.208 348.671C643.373 349.222 642.41 349.498 641.319 349.498C640.478 349.498 639.805 349.358 639.299 349.08C638.793 348.796 638.404 348.475 638.131 348.117C637.859 347.753 637.648 347.452 637.501 347.214H637.33V354.134H635.319ZM637.296 342.68C637.296 343.668 637.441 344.54 637.731 345.296C638.02 346.046 638.444 346.634 639.001 347.06C639.557 347.481 640.239 347.691 641.046 347.691C641.887 347.691 642.589 347.469 643.151 347.026C643.719 346.577 644.145 345.975 644.43 345.219C644.719 344.458 644.864 343.611 644.864 342.68C644.864 341.759 644.722 340.93 644.438 340.191C644.16 339.447 643.736 338.858 643.168 338.427C642.606 337.989 641.898 337.77 641.046 337.77C640.228 337.77 639.54 337.978 638.984 338.393C638.427 338.802 638.006 339.376 637.722 340.114C637.438 340.847 637.296 341.702 637.296 342.68ZM651.955 341.35V349.225H649.944V331.77H651.955V338.18H652.126C652.432 337.503 652.893 336.966 653.506 336.569C654.126 336.165 654.949 335.964 655.978 335.964C656.87 335.964 657.651 336.143 658.322 336.501C658.992 336.853 659.512 337.395 659.881 338.128C660.256 338.856 660.444 339.782 660.444 340.907V349.225H658.432V341.043C658.432 340.003 658.163 339.199 657.623 338.631C657.089 338.057 656.347 337.77 655.398 337.77C654.739 337.77 654.148 337.91 653.626 338.188C653.109 338.466 652.699 338.873 652.398 339.407C652.103 339.941 651.955 340.589 651.955 341.35ZM664.123 349.225V336.134H666.135V349.225H664.123ZM665.146 333.952C664.754 333.952 664.416 333.819 664.132 333.552C663.854 333.285 663.714 332.964 663.714 332.589C663.714 332.214 663.854 331.893 664.132 331.626C664.416 331.358 664.754 331.225 665.146 331.225C665.538 331.225 665.873 331.358 666.152 331.626C666.436 331.893 666.578 332.214 666.578 332.589C666.578 332.964 666.436 333.285 666.152 333.552C665.873 333.819 665.538 333.952 665.146 333.952ZM679.092 339.066L677.285 339.577C677.171 339.276 677.003 338.983 676.782 338.699C676.566 338.41 676.27 338.171 675.895 337.983C675.52 337.796 675.04 337.702 674.455 337.702C673.654 337.702 672.986 337.887 672.452 338.256C671.924 338.62 671.66 339.083 671.66 339.645C671.66 340.145 671.842 340.54 672.205 340.83C672.569 341.12 673.137 341.361 673.91 341.555L675.853 342.032C677.023 342.316 677.895 342.751 678.469 343.336C679.043 343.915 679.33 344.662 679.33 345.577C679.33 346.327 679.114 346.998 678.682 347.589C678.256 348.18 677.66 348.645 676.893 348.986C676.126 349.327 675.234 349.498 674.217 349.498C672.881 349.498 671.776 349.208 670.901 348.628C670.026 348.049 669.472 347.202 669.239 346.089L671.148 345.611C671.33 346.316 671.674 346.844 672.18 347.197C672.691 347.549 673.359 347.725 674.182 347.725C675.12 347.725 675.864 347.526 676.415 347.128C676.972 346.725 677.251 346.242 677.251 345.68C677.251 345.225 677.092 344.844 676.773 344.537C676.455 344.225 675.967 343.992 675.307 343.839L673.126 343.327C671.927 343.043 671.046 342.603 670.484 342.006C669.927 341.404 669.648 340.651 669.648 339.748C669.648 339.009 669.856 338.356 670.27 337.787C670.691 337.219 671.262 336.773 671.984 336.449C672.711 336.126 673.535 335.964 674.455 335.964C675.751 335.964 676.768 336.248 677.506 336.816C678.251 337.384 678.779 338.134 679.092 339.066ZM682.358 349.225V336.134H684.301V338.18H684.471C684.744 337.481 685.185 336.938 685.793 336.552C686.4 336.16 687.131 335.964 687.983 335.964C688.846 335.964 689.565 336.16 690.139 336.552C690.719 336.938 691.17 337.481 691.494 338.18H691.631C691.966 337.503 692.469 336.966 693.139 336.569C693.81 336.165 694.614 335.964 695.551 335.964C696.721 335.964 697.679 336.33 698.423 337.063C699.168 337.79 699.54 338.924 699.54 340.464V349.225H697.528V340.464C697.528 339.498 697.264 338.807 696.736 338.393C696.207 337.978 695.585 337.77 694.869 337.77C693.949 337.77 693.236 338.049 692.73 338.606C692.224 339.157 691.971 339.856 691.971 340.702V349.225H689.926V340.259C689.926 339.515 689.685 338.915 689.202 338.461C688.719 338.001 688.096 337.77 687.335 337.77C686.812 337.77 686.324 337.91 685.869 338.188C685.42 338.466 685.057 338.853 684.778 339.347C684.506 339.836 684.369 340.401 684.369 341.043V349.225H682.358Z" fill="black"/>
<path d="M510.082 152.764C510.082 152.212 509.634 151.764 509.082 151.764C508.53 151.764 508.082 152.212 508.082 152.764H510.082ZM194.556 203.35C194.004 203.35 193.613 204.026 193.889 204.505L198.329 212.195C198.606 212.674 199.387 212.674 199.663 212.195L204.103 204.505C204.379 204.026 203.989 203.35 203.436 203.35H194.556ZM509.082 152.764H510.082H509.082ZM485.082 175.778H222.996V177.778H485.082V175.778ZM197.996 200.778V204.35H199.996V200.778H197.996ZM222.996 175.778C209.189 175.778 197.996 186.971 197.996 200.778H199.996C199.996 188.075 210.294 177.778 222.996 177.778V175.778ZM508.082 152.764C508.082 165.467 497.784 175.778 485.082 175.778V177.778C498.89 177.778 510.082 166.57 510.082 152.764H508.082Z" fill="#0A0000"/>
<path d="M510.082 152.764C510.082 152.212 509.634 151.764 509.082 151.764C508.53 151.764 508.082 152.212 508.082 152.764H510.082ZM345.252 298.984C344.7 298.984 344.309 299.66 344.586 300.139L349.026 307.829C349.302 308.308 350.083 308.308 350.359 307.829L354.799 300.139C355.075 299.66 354.685 298.984 354.133 298.984H345.252ZM509.082 152.764H510.082H509.082ZM485.082 175.778H373.692V177.778H485.082V175.778ZM348.692 200.778V299.984H350.692V200.778H348.692ZM373.692 175.778C359.885 175.778 348.692 186.971 348.692 200.778H350.692C350.692 188.075 360.99 177.778 373.692 177.778V175.778ZM508.082 152.764C508.082 165.467 497.784 175.778 485.082 175.778V177.778C498.89 177.778 510.082 166.57 510.082 152.764H508.082Z" fill="#0A0000"/>
<path d="M510.082 152.764C510.082 152.212 509.634 151.764 509.082 151.764C508.53 151.764 508.082 152.212 508.082 152.764H510.082ZM616.698 298.984C616.146 298.984 615.755 299.66 616.031 300.139L620.471 307.829C620.747 308.308 621.529 308.308 621.805 307.829L626.245 300.139C626.521 299.66 626.13 298.984 625.578 298.984H616.698ZM509.082 152.764H510.082H509.082ZM533.082 177.778H597.138V175.778H533.082V177.778ZM620.138 200.778V299.984H622.138V200.778H620.138ZM597.138 177.778C609.841 177.778 620.138 188.075 620.138 200.778H622.138C622.138 186.971 610.945 175.778 597.138 175.778V177.778ZM508.082 152.764C508.082 166.57 519.274 177.778 533.082 177.778V175.778C520.38 175.778 510.082 165.467 510.082 152.764H508.082Z" fill="#0A0000"/>
<path d="M510.082 152.764C510.082 152.212 509.634 151.764 509.082 151.764C508.53 151.764 508.082 152.212 508.082 152.764H510.082ZM817.626 203.35C817.073 203.35 816.683 204.026 816.959 204.505L821.399 212.195C821.675 212.674 822.456 212.674 822.732 212.195L827.173 204.505C827.449 204.026 827.058 203.35 826.506 203.35H817.626ZM509.082 152.764H510.082H509.082ZM533.082 177.778H798.066V175.778H533.082V177.778ZM821.066 200.778V204.35H823.066V200.778H821.066ZM798.066 177.778C810.768 177.778 821.066 188.075 821.066 200.778H823.066C823.066 186.971 811.873 175.778 798.066 175.778V177.778ZM508.082 152.764C508.082 166.57 519.274 177.778 533.082 177.778V175.778C520.38 175.778 510.082 165.467 510.082 152.764H508.082Z" fill="#0A0000"/>
</svg>
