<svg xmlns="http://www.w3.org/2000/svg" width="671" height="181" viewBox="-0.5 -0.5 671 181"><defs><clipPath id="a"><path d="M420 30h30v30h-30z"/></clipPath><clipPath id="b"><path d="M456 30h214v30H456z"/></clipPath><clipPath id="c"><path d="M420 60h30v30h-30z"/></clipPath><clipPath id="d"><path d="M456 60h214v30H456z"/></clipPath><clipPath id="e"><path d="M456 90h214v30H456z"/></clipPath><clipPath id="f"><path d="M0 60h30v30H0z"/></clipPath><clipPath id="g"><path d="M36 60h214v30H36z"/></clipPath><clipPath id="h"><path d="M36 90h214v30H36z"/></clipPath><clipPath id="i"><path d="M456 120h214v30H456z"/></clipPath><clipPath id="j"><path d="M456 150h214v30H456z"/></clipPath><clipPath id="k"><path d="M36 120h214v30H36z"/></clipPath></defs><path d="M250 75h170" fill="none" stroke="#006658" stroke-miterlimit="10" pointer-events="stroke"/><path d="M254 71v8" fill="none" stroke="#006658" stroke-miterlimit="10" pointer-events="all"/><circle cx="408" cy="75" fill="#fff" stroke="#006658" pointer-events="all" r="3"/><path d="m420 71-8 4 8 4" fill="none" stroke="#006658" stroke-miterlimit="10" pointer-events="all"/><path d="M420 30V0h250v30" fill="#21c0a5" stroke="#006658" stroke-miterlimit="10" pointer-events="all"/><path d="M420 30v150h250V30M420 30h250M450 30v90" fill="none" stroke="#006658" stroke-miterlimit="10" pointer-events="none"/><text x="544.5" y="19.5" fill="#5C5C5C" font-family="Helvetica" font-weight="bold" pointer-events="none" text-anchor="middle" font-size="12">Dogs</text><path d="M670 60H420M420 60" fill="none" stroke="#006658" stroke-linecap="square" stroke-miterlimit="10" pointer-events="none"/><g fill="#5C5C5C" font-family="Helvetica" font-weight="bold" pointer-events="none" clip-path="url(#a)" text-anchor="middle" font-size="12"><text x="434.5" y="49.5">PK</text></g><path d="M450 60" fill="none" stroke="#006658" stroke-linecap="square" stroke-miterlimit="10" pointer-events="none"/><g fill="#5C5C5C" font-family="Helvetica" font-weight="bold" text-decoration="underline" pointer-events="none" clip-path="url(#b)" font-size="12"><text x="457.5" y="49.5">dog_id int NOT NULL </text></g><path d="M420 90" fill="none" stroke="#006658" stroke-linecap="square" stroke-miterlimit="10" pointer-events="none"/><g fill="#5C5C5C" font-family="Helvetica" pointer-events="none" clip-path="url(#c)" text-anchor="middle" font-size="12"><text x="434.5" y="79.5">FK1</text></g><path d="M450 90" fill="none" stroke="#006658" stroke-linecap="square" stroke-miterlimit="10" pointer-events="none"/><g fill="#5C5C5C" font-family="Helvetica" pointer-events="none" clip-path="url(#d)" font-size="12"><text x="457.5" y="79.5">breed_id int NOT NULL</text></g><path d="M450 120" fill="none" stroke="#006658" stroke-linecap="square" stroke-miterlimit="10" pointer-events="none"/><g fill="#5C5C5C" font-family="Helvetica" pointer-events="none" clip-path="url(#e)" font-size="12"><text x="457.5" y="109.5">dog_name varchar(50) NOT NULL</text></g><path d="M0 60V30h250v30" fill="#21c0a5" stroke="#006658" stroke-miterlimit="10" pointer-events="none"/><path d="M0 60v90h250V60M0 60h250M30 60v60" fill="none" stroke="#006658" stroke-miterlimit="10" pointer-events="none"/><text x="124.5" y="49.5" fill="#5C5C5C" font-family="Helvetica" font-weight="bold" pointer-events="none" text-anchor="middle" font-size="12">Breeds</text><path d="M250 90H0M0 90" fill="none" stroke="#006658" stroke-linecap="square" stroke-miterlimit="10" pointer-events="none"/><g fill="#5C5C5C" font-family="Helvetica" font-weight="bold" pointer-events="none" clip-path="url(#f)" text-anchor="middle" font-size="12"><text x="14.5" y="79.5">PK</text></g><path d="M30 90" fill="none" stroke="#006658" stroke-linecap="square" stroke-miterlimit="10" pointer-events="none"/><g fill="#5C5C5C" font-family="Helvetica" font-weight="bold" text-decoration="underline" pointer-events="none" clip-path="url(#g)" font-size="12"><text x="37.5" y="79.5">breed_id int NOT NULL </text></g><path d="M30 120" fill="none" stroke="#006658" stroke-linecap="square" stroke-miterlimit="10" pointer-events="none"/><g fill="#5C5C5C" font-family="Helvetica" pointer-events="none" clip-path="url(#h)" font-size="12"><text x="37.5" y="109.5">breed_name varchar(50) NOT NULL</text></g><path d="M450 150v-30" fill="none" stroke="#006658" stroke-linecap="square" stroke-miterlimit="10" pointer-events="none"/><g fill="#5C5C5C" font-family="Helvetica" pointer-events="none" clip-path="url(#i)" font-size="12"><text x="457.5" y="139.5">dog_dob date NOT NULL</text></g><path d="M450 180v-30" fill="none" stroke="#006658" stroke-linecap="square" stroke-miterlimit="10" pointer-events="none"/><g fill="#5C5C5C" font-family="Helvetica" pointer-events="none" clip-path="url(#j)" font-size="12"><text x="457.5" y="169.5">dog_comments text</text></g><path d="M30 150v-30" fill="none" stroke="#006658" stroke-linecap="square" stroke-miterlimit="10" pointer-events="none"/><g fill="#5C5C5C" font-family="Helvetica" pointer-events="none" clip-path="url(#k)" font-size="12"><text x="37.5" y="139.5">description text NOT NULL</text></g></svg>