<?xml version="1.0" encoding="utf-8"?>
<!-- Generator: Adobe Illustrator 25.1.0, SVG Export Plug-In . SVG Version: 6.00 Build 0)  -->
<svg version="1.1" id="Layer_1" xmlns="http://www.w3.org/2000/svg" xmlns:xlink="http://www.w3.org/1999/xlink" x="0px" y="0px"
	 viewBox="0 0 765.8 536.8" style="enable-background:new 0 0 765.8 536.8;" xml:space="preserve">
<style type="text/css">
	.st0{fill:#E6E6E6;}
	.st1{fill:#FFFFFF;}
	.st2{fill:#01602D;}
	.st3{fill:#009439;}
	.st4{fill:#035529;}
	.st5{fill:#2F2E41;}
	.st6{fill:#FFB8B8;}
	.st7{fill:#6C63FF;}
	.st8{fill:#CCCCCC;}
</style>
<path class="st0" d="M758.7,349.6H228.2c-4,0-7.2-3.2-7.2-7.2V13.8h544.8v328.6C765.8,346.3,762.6,349.5,758.7,349.6z"/>
<path class="st1" d="M743.1,329H243.7c-4,0-7.2-3.2-7.2-7.2V51.2c0-4,3.2-7.2,7.2-7.2h499.4c4,0,7.2,3.2,7.2,7.2v270.6
	C750.4,325.8,747.1,329,743.1,329z"/>
<path class="st2" d="M765.6,24H220.8V7.2c0-4,3.2-7.2,7.2-7.2h530.5c4,0,7.2,3.2,7.2,7.2L765.6,24z"/>
<circle class="st1" cx="238.4" cy="12.2" r="4.3"/>
<ellipse transform="matrix(0.2101 -0.9777 0.9777 0.2101 189.1525 258.6037)" class="st1" cx="254.6" cy="12.2" rx="4.3" ry="4.3"/>
<circle class="st1" cx="270.9" cy="12.2" r="4.3"/>
<rect x="287.8" y="92.4" class="st0" width="51.5" height="22.8"/>
<rect x="390.7" y="139.7" class="st0" width="51.5" height="22.8"/>
<rect x="287.8" y="210.6" class="st3" width="51.5" height="22.8"/>
<rect x="390.7" y="257.8" class="st3" width="51.5" height="22.8"/>
<rect x="647.2" y="281.5" class="st4" width="51.5" height="22.8"/>
<rect x="595.8" y="187" class="st0" width="51.5" height="22.8"/>
<rect x="442.2" y="187" class="st3" width="102.9" height="22.8"/>
<rect x="442.2" y="68" class="st3" width="102.9" height="22.8"/>
<path class="st0" d="M236.3,43.5v286H751v-286L236.3,43.5z M749.3,67.2h-49.6v-22h49.6L749.3,67.2z M443.2,233.1v-22h100.9v22H443.2
	z M544.1,234.8v22H443.2v-22H544.1z M544.1,140v22H443.2v-22H544.1z M443.2,138.3v-22h100.9v22H443.2z M443.2,185.7v-22h100.9v22
	H443.2z M544.1,187.4v22H443.2v-22H544.1z M441.5,162h-49.6v-22h49.6V162z M441.5,163.7v22h-49.6v-22L441.5,163.7z M441.5,187.4v22
	h-49.6v-22L441.5,187.4z M441.5,211.1v22h-49.6v-22H441.5z M545.8,211.1h49.6v22h-49.6L545.8,211.1z M545.8,209.4v-22h49.6v22
	L545.8,209.4z M545.8,185.7v-22h49.6v22L545.8,185.7z M545.8,162v-22h49.6v22H545.8z M545.8,138.3v-22h49.6v22H545.8z M545.8,114.6
	v-22h49.6v22H545.8z M544.1,114.6H443.2v-22h100.9L544.1,114.6z M441.5,114.6h-49.6v-22h49.6V114.6z M441.5,116.3v22h-49.6v-22
	H441.5z M390.2,138.3h-49.6v-22h49.6L390.2,138.3z M390.2,140v22h-49.6v-22H390.2z M390.2,163.7v22h-49.6v-22L390.2,163.7z
	 M390.2,187.4v22h-49.6v-22L390.2,187.4z M390.2,211.1v22h-49.6v-22H390.2z M390.2,234.8v22h-49.6v-22L390.2,234.8z M391.9,234.8
	h49.6v22h-49.6V234.8z M441.5,258.5v22h-49.6v-22H441.5z M443.2,258.5h100.9v22H443.2V258.5z M545.8,258.5h49.6v22h-49.6
	L545.8,258.5z M545.8,256.8v-22h49.6v22L545.8,256.8z M597.1,234.8h49.6v22h-49.6L597.1,234.8z M597.1,233.1v-22h49.6v22
	L597.1,233.1z M597.1,209.4v-22h49.6v22L597.1,209.4z M597.1,185.7v-22h49.6v22L597.1,185.7z M597.1,162v-22h49.6v22H597.1z
	 M597.1,138.3v-22h49.6v22H597.1z M597.1,114.6v-22h49.6v22H597.1z M597.1,90.9v-22h49.6v22H597.1z M595.4,90.9h-49.6v-22h49.6
	L595.4,90.9z M544.1,90.9H443.2v-22h100.9L544.1,90.9z M441.5,90.9h-49.6v-22h49.6V90.9z M390.2,90.9h-49.6v-22h49.6L390.2,90.9z
	 M390.2,92.6v22h-49.6v-22H390.2z M338.9,114.6h-49.6v-22h49.6V114.6z M338.9,116.3v22h-49.6v-22H338.9z M338.9,140v22h-49.6v-22
	H338.9z M338.9,163.7v22h-49.6v-22L338.9,163.7z M338.9,187.4v22h-49.6v-22L338.9,187.4z M338.9,211.1v22h-49.6v-22H338.9z
	 M338.9,234.8v22h-49.6v-22L338.9,234.8z M338.9,258.5v22h-49.6v-22H338.9z M340.6,258.5h49.6v22h-49.6L340.6,258.5z M390.2,282.2
	v22h-49.6v-22L390.2,282.2z M391.9,282.2h49.6v22h-49.6V282.2z M443.2,282.2h100.9v22H443.2V282.2z M545.8,282.2h49.6v22h-49.6
	L545.8,282.2z M597.1,282.2h49.6v22h-49.6L597.1,282.2z M597.1,280.5v-22h49.6v22H597.1z M648.4,258.5H698v22h-49.6V258.5z
	 M648.4,256.8v-22H698v22H648.4z M648.4,233.1v-22H698v22H648.4z M648.4,209.4v-22H698v22H648.4z M648.4,185.7v-22H698v22H648.4z
	 M648.4,162v-22H698v22L648.4,162z M648.4,138.3v-22H698v22L648.4,138.3z M648.4,114.6v-22H698v22L648.4,114.6z M648.4,90.9v-22H698
	v22L648.4,90.9z M648.4,67.2v-22H698v22L648.4,67.2z M646.7,67.2h-49.6v-22h49.6L646.7,67.2z M595.4,67.2h-49.6v-22h49.6L595.4,67.2
	z M544.1,67.2H443.2v-22h100.9L544.1,67.2z M441.5,67.2h-49.6v-22h49.6L441.5,67.2z M390.2,67.2h-49.6v-22h49.6L390.2,67.2z
	 M338.9,67.2h-49.6v-22h49.6L338.9,67.2z M338.9,68.9v22h-49.6v-22L338.9,68.9z M287.6,90.9H238v-22h49.6L287.6,90.9z M287.6,92.6
	v22H238v-22L287.6,92.6z M287.6,116.3v22H238v-22L287.6,116.3z M287.6,140v22H238v-22L287.6,140z M287.6,163.7v22H238v-22H287.6z
	 M287.6,187.4v22H238v-22H287.6z M287.6,211.1v22H238v-22L287.6,211.1z M287.6,234.8v22H238v-22H287.6z M287.6,258.5v22H238v-22
	H287.6z M287.6,282.2v22H238v-22H287.6z M289.3,282.2h49.6v22h-49.6L289.3,282.2z M338.9,305.9v22h-49.6v-22H338.9z M340.6,305.9
	h49.6v22h-49.6L340.6,305.9z M391.9,305.9h49.6v22h-49.6L391.9,305.9z M443.2,305.9h100.9v22H443.2L443.2,305.9z M545.8,305.9h49.6
	v22h-49.6L545.8,305.9z M597.1,305.9h49.6v22h-49.6L597.1,305.9z M648.4,305.9H698v22h-49.6L648.4,305.9z M648.4,304.2v-22H698v22
	H648.4z M699.7,282.2h49.6v22h-49.6L699.7,282.2z M699.7,280.5v-22h49.6v22L699.7,280.5z M699.7,256.8v-22h49.6v22H699.7z
	 M699.7,233.1v-22h49.6v22L699.7,233.1z M699.7,209.4v-22h49.6v22L699.7,209.4z M699.7,185.7v-22h49.6v22L699.7,185.7z M699.7,162
	v-22h49.6v22L699.7,162z M699.7,138.3v-22h49.6v22L699.7,138.3z M699.7,114.6v-22h49.6v22L699.7,114.6z M699.7,90.9v-22h49.6v22
	L699.7,90.9z M287.6,45.2v22H238v-22H287.6z M238,305.9h49.6v22H238V305.9z M699.7,327.9v-22h49.6v22H699.7z"/>
<path class="st5" d="M96.2,198.5c0,0-26-6-40.4,5s18.2,36,18.2,36L96.2,198.5z"/>
<path class="st6" d="M123.2,342c-2-5.2,0.6-11,5.8-13c0.6-0.2,1.1-0.4,1.7-0.5l5.3-35.3l13.8,12.4l-7.1,31.7
	c0.7,5.5-3.3,10.6-8.8,11.2C129.2,349,124.8,346.4,123.2,342L123.2,342z"/>
<polygon class="st6" points="68.6,525.5 80.9,524.7 83.6,477.1 65.5,478.3 "/>
<path class="st5" d="M104.8,535.7H66.2l0,0v-14.9l0,0h23.6C98.1,520.9,104.8,527.5,104.8,535.7L104.8,535.7L104.8,535.7z"/>
<polygon class="st6" points="89.8,508.5 101.3,512.8 123.1,470.4 106.2,464.2 "/>
<path class="st5" d="M119.5,531.6l-36.1-13.3l0,0l5.2-14l0,0l22.2,8.2C118.4,515.4,122.4,523.9,119.5,531.6L119.5,531.6L119.5,531.6
	z"/>
<path class="st5" d="M123.2,325.8c0,0,12.4,6.7,8.6,33.4l-3.8,101l-21.1,46l-18.1-4.8l11.5-37.5l-15.2-65.8l-2,119.4L66,520.5
	L41.3,322l31.4-14.3L123.2,325.8z"/>
<circle class="st6" cx="79" cy="162.6" r="24.6"/>
<path class="st7" d="M93.2,193.8l-12.4,20l-18.1-18.1l-33.8,23.7c-2.4,1.7-3.4,4.9-2.3,7.6c5.2,12.9,18.5,50.9,14.7,94.9
	c0,0,25.7-6.7,52.4,1c26.7,7.6,33.4,4.8,33.4,4.8s-6.7-48.6-2.9-59.1c3.2-8.7,9.6-37.7,11.7-47.4c0.4-1.9-0.5-3.8-2.1-4.7
	L93.2,193.8z"/>
<path class="st7" d="M132.8,216.6L132.8,216.6c2.2-0.3,4.2,1,4.8,3.1l16.1,58.3l-3.8,35.3l-18.1-2.9l1.9-24.8l-13.3-31.4l8.8-34.3
	C129.6,218.2,131,216.9,132.8,216.6z"/>
<path class="st5" d="M60,128.1c3.3-5.7,9.6-9,16.1-8.6c3.4,0.4,6.7,1.3,9.8,2.7l16.1,6.3c4.2,1.6,8.7,3.6,10.5,7.7
	c1.7,3.8,0.4,8.2-0.8,12.1l-6,18.7c-0.7-4.2-1.8-8.4-3.4-12.4c-1.7-3.9-4.5-7.5-8.3-9.5c-4.2-2.1-9.1-2.1-13.8-1.9
	c-6.6,0.3-13.8,1.2-18.6,5.8c-2.5,2.7-4.2,6-4.9,9.5c-0.7,3.6-1,7.2-1,10.8c-2.7-4.7-5-9.6-6.8-14.7c-1.5-3.8-2.4-7.8-2.5-11.9
	c-0.2-4.1,1.2-8.1,3.8-11.3c2.7-3,7.1-4.7,11-3.5"/>
<path class="st6" d="M46.3,356c2-5.2-0.6-11-5.8-13c-0.6-0.2-1.1-0.4-1.7-0.5l-5.3-35.3l-13.8,12.4l7.1,31.7
	c-0.7,5.5,3.3,10.6,8.8,11.2C40.3,363,44.7,360.4,46.3,356L46.3,356z"/>
<path class="st7" d="M29.2,219.1L29.2,219.1c-3,0.5-5.2,3-5.4,6l-5.5,109.2h20l6.7-58.1l-8.5-51.8C36,220.9,32.7,218.5,29.2,219.1
	C29.2,219.1,29.2,219.1,29.2,219.1z"/>
<polygon class="st8" points="171.7,536.8 0,536.8 0,534.7 172.1,534.7 "/>
</svg>
