<svg width="375" height="667" viewBox="0 0 375 667" fill="none" xmlns="http://www.w3.org/2000/svg">
<rect width="375" height="667" fill="white"/>
<path d="M25.6309 19.4688V28H23.8789V19.4688H25.6309ZM29.0352 19.4688V28H27.2773V19.4688H29.0352ZM32.4336 23.1133V24.4844H28.5547V23.1133H32.4336ZM32.8438 19.4688V20.8457H28.5547V19.4688H32.8438ZM39.3477 26.6289V28H35.0527V26.6289H39.3477ZM35.6211 19.4688V28H33.8633V19.4688H35.6211ZM42.2246 19.4688V28H40.4727V19.4688H42.2246ZM49.4785 28H47.6211L47.6328 26.6289H49.4785C49.9395 26.6289 50.3281 26.5254 50.6445 26.3184C50.9609 26.1074 51.1992 25.8008 51.3594 25.3984C51.5234 24.9961 51.6055 24.5098 51.6055 23.9395V23.5234C51.6055 23.0859 51.5586 22.7012 51.4648 22.3691C51.375 22.0371 51.2402 21.7578 51.0605 21.5312C50.8809 21.3047 50.6602 21.1348 50.3984 21.0215C50.1367 20.9043 49.8359 20.8457 49.4961 20.8457H47.5859V19.4688H49.4961C50.0664 19.4688 50.5879 19.5664 51.0605 19.7617C51.5371 19.9531 51.9492 20.2285 52.2969 20.5879C52.6445 20.9473 52.9121 21.377 53.0996 21.877C53.291 22.373 53.3867 22.9258 53.3867 23.5352V23.9395C53.3867 24.5449 53.291 25.0977 53.0996 25.5977C52.9121 26.0977 52.6445 26.5273 52.2969 26.8867C51.9531 27.2422 51.541 27.5176 51.0605 27.7129C50.584 27.9043 50.0566 28 49.4785 28ZM48.6172 19.4688V28H46.8594V19.4688H48.6172ZM54.6641 19.4688H57.8457C58.498 19.4688 59.0586 19.5664 59.5273 19.7617C60 19.957 60.3633 20.2461 60.6172 20.6289C60.8711 21.0117 60.998 21.4824 60.998 22.041C60.998 22.498 60.9199 22.8906 60.7637 23.2188C60.6113 23.543 60.3945 23.8145 60.1133 24.0332C59.8359 24.248 59.5098 24.4199 59.1348 24.5488L58.5781 24.8418H55.8125L55.8008 23.4707H57.8574C58.166 23.4707 58.4219 23.416 58.625 23.3066C58.8281 23.1973 58.9805 23.0449 59.082 22.8496C59.1875 22.6543 59.2402 22.4277 59.2402 22.1699C59.2402 21.8965 59.1895 21.6602 59.0879 21.4609C58.9863 21.2617 58.832 21.1094 58.625 21.0039C58.418 20.8984 58.1582 20.8457 57.8457 20.8457H56.4219V28H54.6641V19.4688ZM59.4336 28L57.4883 24.1973L59.3457 24.1855L61.3145 27.918V28H59.4336ZM69.3594 23.5352V23.9395C69.3594 24.5879 69.2715 25.1699 69.0957 25.6855C68.9199 26.2012 68.6719 26.6406 68.3516 27.0039C68.0312 27.3633 67.6484 27.6387 67.2031 27.8301C66.7617 28.0215 66.2715 28.1172 65.7324 28.1172C65.1973 28.1172 64.707 28.0215 64.2617 27.8301C63.8203 27.6387 63.4375 27.3633 63.1133 27.0039C62.7891 26.6406 62.5371 26.2012 62.3574 25.6855C62.1816 25.1699 62.0938 24.5879 62.0938 23.9395V23.5352C62.0938 22.8828 62.1816 22.3008 62.3574 21.7891C62.5332 21.2734 62.7812 20.834 63.1016 20.4707C63.4258 20.1074 63.8086 19.8301 64.25 19.6387C64.6953 19.4473 65.1855 19.3516 65.7207 19.3516C66.2598 19.3516 66.75 19.4473 67.1914 19.6387C67.6367 19.8301 68.0195 20.1074 68.3398 20.4707C68.6641 20.834 68.9141 21.2734 69.0898 21.7891C69.2695 22.3008 69.3594 22.8828 69.3594 23.5352ZM67.584 23.9395V23.5234C67.584 23.0703 67.543 22.6719 67.4609 22.3281C67.3789 21.9844 67.2578 21.6953 67.0977 21.4609C66.9375 21.2266 66.7422 21.0508 66.5117 20.9336C66.2812 20.8125 66.0176 20.752 65.7207 20.752C65.4238 20.752 65.1602 20.8125 64.9297 20.9336C64.7031 21.0508 64.5098 21.2266 64.3496 21.4609C64.1934 21.6953 64.0742 21.9844 63.9922 22.3281C63.9102 22.6719 63.8691 23.0703 63.8691 23.5234V23.9395C63.8691 24.3887 63.9102 24.7871 63.9922 25.1348C64.0742 25.4785 64.1953 25.7695 64.3555 26.0078C64.5156 26.2422 64.7109 26.4199 64.9414 26.541C65.1719 26.6621 65.4355 26.7227 65.7324 26.7227C66.0293 26.7227 66.293 26.6621 66.5234 26.541C66.7539 26.4199 66.9473 26.2422 67.1035 26.0078C67.2598 25.7695 67.3789 25.4785 67.4609 25.1348C67.543 24.7871 67.584 24.3887 67.584 23.9395ZM77.5684 19.4688V28H75.8105L72.3828 22.2812V28H70.625V19.4688H72.3828L75.8164 25.1934V19.4688H77.5684ZM84.8223 26.6289V28H80.2812V26.6289H84.8223ZM80.8555 19.4688V28H79.0977V19.4688H80.8555ZM84.2305 22.9434V24.2793H80.2812V22.9434H84.2305ZM84.8164 19.4688V20.8457H80.2812V19.4688H84.8164ZM90.2891 25.7676C90.2891 25.6152 90.2656 25.4785 90.2188 25.3574C90.1758 25.2324 90.0938 25.1191 89.9727 25.0176C89.8516 24.9121 89.6816 24.8086 89.4629 24.707C89.2441 24.6055 88.9609 24.5 88.6133 24.3906C88.2266 24.2656 87.8594 24.125 87.5117 23.9688C87.168 23.8125 86.8633 23.6309 86.5977 23.4238C86.3359 23.2129 86.1289 22.9688 85.9766 22.6914C85.8281 22.4141 85.7539 22.0918 85.7539 21.7246C85.7539 21.3691 85.832 21.0469 85.9883 20.7578C86.1445 20.4648 86.3633 20.2148 86.6445 20.0078C86.9258 19.7969 87.2578 19.6348 87.6406 19.5215C88.0273 19.4082 88.4512 19.3516 88.9121 19.3516C89.541 19.3516 90.0898 19.4648 90.5586 19.6914C91.0273 19.918 91.3906 20.2285 91.6484 20.623C91.9102 21.0176 92.041 21.4688 92.041 21.9766H90.2949C90.2949 21.7266 90.2422 21.5078 90.1367 21.3203C90.0352 21.1289 89.8789 20.9785 89.668 20.8691C89.4609 20.7598 89.1992 20.7051 88.8828 20.7051C88.5781 20.7051 88.3242 20.752 88.1211 20.8457C87.918 20.9355 87.7656 21.0586 87.6641 21.2148C87.5625 21.3672 87.5117 21.5391 87.5117 21.7305C87.5117 21.875 87.5469 22.0059 87.6172 22.123C87.6914 22.2402 87.8008 22.3496 87.9453 22.4512C88.0898 22.5527 88.2676 22.6484 88.4785 22.7383C88.6895 22.8281 88.9336 22.916 89.2109 23.002C89.6758 23.1426 90.084 23.3008 90.4355 23.4766C90.791 23.6523 91.0879 23.8496 91.3262 24.0684C91.5645 24.2871 91.7441 24.5352 91.8652 24.8125C91.9863 25.0898 92.0469 25.4043 92.0469 25.7559C92.0469 26.127 91.9746 26.459 91.8301 26.752C91.6855 27.0449 91.4766 27.293 91.2031 27.4961C90.9297 27.6992 90.6035 27.8535 90.2246 27.959C89.8457 28.0645 89.4219 28.1172 88.9531 28.1172C88.5312 28.1172 88.1152 28.0625 87.7051 27.9531C87.2949 27.8398 86.9219 27.6699 86.5859 27.4434C86.2539 27.2168 85.9883 26.9277 85.7891 26.5762C85.5898 26.2246 85.4902 25.8086 85.4902 25.3281H87.2539C87.2539 25.5938 87.2949 25.8184 87.377 26.002C87.459 26.1855 87.5742 26.334 87.7227 26.4473C87.875 26.5605 88.0547 26.6426 88.2617 26.6934C88.4727 26.7441 88.7031 26.7695 88.9531 26.7695C89.2578 26.7695 89.5078 26.7266 89.7031 26.6406C89.9023 26.5547 90.0488 26.4355 90.1426 26.2832C90.2402 26.1309 90.2891 25.959 90.2891 25.7676Z" fill="black"/>
<path d="M326 23H352" stroke="black" stroke-width="2" stroke-linecap="round"/>
<path d="M326 32H352" stroke="black" stroke-width="2" stroke-linecap="round"/>
<path d="M326 41H352" stroke="black" stroke-width="2" stroke-linecap="round"/>
<rect x="26" y="67" width="161" height="188" rx="4" fill="#E5E5E5" stroke="black" stroke-width="2"/>
<rect x="24" y="299" width="109" height="100" rx="4" fill="#E5E5E5" stroke="black" stroke-width="2"/>
<rect x="24" y="419" width="109" height="100" rx="4" fill="#E5E5E5" stroke="black" stroke-width="2"/>
<line y1="-1" x2="148.054" y2="-1" transform="matrix(-0.742075 0.670317 -0.390026 -0.920804 132.867 298.551)" stroke="black" stroke-width="2"/>
<rect x="24" y="539" width="109" height="100" rx="4" fill="#E5E5E5" stroke="black" stroke-width="2"/>
<line y1="-1" x2="146.845" y2="-1" transform="matrix(0.740475 0.672084 -0.391613 0.92013 24.1327 299.103)" stroke="black" stroke-width="2"/>
<line y1="-1" x2="245.366" y2="-1" transform="matrix(-0.657535 0.753424 -0.316726 -0.948517 186.337 67.027)" stroke="black" stroke-width="2"/>
<line y1="-1" x2="148.054" y2="-1" transform="matrix(-0.742075 0.670317 -0.390026 -0.920804 132.867 418.551)" stroke="black" stroke-width="2"/>
<line y1="-1" x2="148.054" y2="-1" transform="matrix(-0.742075 0.670317 -0.390026 -0.920804 132.867 538.551)" stroke="black" stroke-width="2"/>
<line y1="-1" x2="243.499" y2="-1" transform="matrix(0.655745 0.754983 -0.318093 0.948059 26.6633 68.054)" stroke="black" stroke-width="2"/>
<path d="M158.859 322.352H154.359V327H152.016V315.625H159.422V317.523H154.359V320.461H158.859V322.352ZM164.352 327.156C163.112 327.156 162.102 326.776 161.32 326.016C160.544 325.255 160.156 324.242 160.156 322.977V322.758C160.156 321.909 160.32 321.151 160.648 320.484C160.977 319.812 161.44 319.297 162.039 318.938C162.643 318.573 163.331 318.391 164.102 318.391C165.258 318.391 166.167 318.755 166.828 319.484C167.495 320.214 167.828 321.247 167.828 322.586V323.508H162.445C162.518 324.06 162.737 324.503 163.102 324.836C163.471 325.169 163.938 325.336 164.5 325.336C165.37 325.336 166.049 325.021 166.539 324.391L167.648 325.633C167.31 326.112 166.852 326.487 166.273 326.758C165.695 327.023 165.055 327.156 164.352 327.156ZM164.094 320.219C163.646 320.219 163.281 320.37 163 320.672C162.724 320.974 162.547 321.406 162.469 321.969H165.609V321.789C165.599 321.289 165.464 320.904 165.203 320.633C164.943 320.357 164.573 320.219 164.094 320.219ZM174.016 327C173.911 326.797 173.836 326.544 173.789 326.242C173.242 326.852 172.531 327.156 171.656 327.156C170.828 327.156 170.141 326.917 169.594 326.438C169.052 325.958 168.781 325.354 168.781 324.625C168.781 323.729 169.112 323.042 169.773 322.562C170.44 322.083 171.401 321.841 172.656 321.836H173.695V321.352C173.695 320.961 173.594 320.648 173.391 320.414C173.193 320.18 172.878 320.062 172.445 320.062C172.065 320.062 171.766 320.154 171.547 320.336C171.333 320.518 171.227 320.768 171.227 321.086H168.969C168.969 320.596 169.12 320.143 169.422 319.727C169.724 319.31 170.151 318.984 170.703 318.75C171.255 318.51 171.875 318.391 172.562 318.391C173.604 318.391 174.43 318.654 175.039 319.18C175.654 319.701 175.961 320.435 175.961 321.383V325.047C175.966 325.849 176.078 326.456 176.297 326.867V327H174.016ZM172.148 325.43C172.482 325.43 172.789 325.357 173.07 325.211C173.352 325.06 173.56 324.859 173.695 324.609V323.156H172.852C171.721 323.156 171.12 323.547 171.047 324.328L171.039 324.461C171.039 324.742 171.138 324.974 171.336 325.156C171.534 325.339 171.805 325.43 172.148 325.43ZM180.398 316.469V318.547H181.844V320.203H180.398V324.422C180.398 324.734 180.458 324.958 180.578 325.094C180.698 325.229 180.927 325.297 181.266 325.297C181.516 325.297 181.737 325.279 181.93 325.242V326.953C181.487 327.089 181.031 327.156 180.562 327.156C178.979 327.156 178.172 326.357 178.141 324.758V320.203H176.906V318.547H178.141V316.469H180.398ZM188.164 326.141C187.607 326.818 186.836 327.156 185.852 327.156C184.945 327.156 184.253 326.896 183.773 326.375C183.299 325.854 183.057 325.091 183.047 324.086V318.547H185.305V324.008C185.305 324.888 185.706 325.328 186.508 325.328C187.273 325.328 187.799 325.062 188.086 324.531V318.547H190.352V327H188.227L188.164 326.141ZM196.805 320.664C196.497 320.622 196.227 320.602 195.992 320.602C195.138 320.602 194.578 320.891 194.312 321.469V327H192.055V318.547H194.188L194.25 319.555C194.703 318.779 195.331 318.391 196.133 318.391C196.383 318.391 196.617 318.424 196.836 318.492L196.805 320.664ZM201.633 327.156C200.393 327.156 199.383 326.776 198.602 326.016C197.826 325.255 197.438 324.242 197.438 322.977V322.758C197.438 321.909 197.602 321.151 197.93 320.484C198.258 319.812 198.721 319.297 199.32 318.938C199.924 318.573 200.612 318.391 201.383 318.391C202.539 318.391 203.448 318.755 204.109 319.484C204.776 320.214 205.109 321.247 205.109 322.586V323.508H199.727C199.799 324.06 200.018 324.503 200.383 324.836C200.753 325.169 201.219 325.336 201.781 325.336C202.651 325.336 203.331 325.021 203.82 324.391L204.93 325.633C204.591 326.112 204.133 326.487 203.555 326.758C202.977 327.023 202.336 327.156 201.633 327.156ZM201.375 320.219C200.927 320.219 200.562 320.37 200.281 320.672C200.005 320.974 199.828 321.406 199.75 321.969H202.891V321.789C202.88 321.289 202.745 320.904 202.484 320.633C202.224 320.357 201.854 320.219 201.375 320.219ZM207.109 327.977H205.43L209.617 315.625H211.297L207.109 327.977ZM212.531 327V315.625H216.516C217.896 315.625 218.943 315.891 219.656 316.422C220.37 316.948 220.727 317.721 220.727 318.742C220.727 319.299 220.583 319.792 220.297 320.219C220.01 320.641 219.612 320.951 219.102 321.148C219.685 321.294 220.143 321.589 220.477 322.031C220.815 322.474 220.984 323.016 220.984 323.656C220.984 324.75 220.635 325.578 219.938 326.141C219.24 326.703 218.245 326.99 216.953 327H212.531ZM214.875 322.047V325.117H216.883C217.435 325.117 217.865 324.987 218.172 324.727C218.484 324.461 218.641 324.096 218.641 323.633C218.641 322.591 218.102 322.062 217.023 322.047H214.875ZM214.875 320.391H216.609C217.792 320.37 218.383 319.898 218.383 318.977C218.383 318.461 218.232 318.091 217.93 317.867C217.633 317.638 217.161 317.523 216.516 317.523H214.875V320.391ZM226.492 327.156C225.253 327.156 224.242 326.776 223.461 326.016C222.685 325.255 222.297 324.242 222.297 322.977V322.758C222.297 321.909 222.461 321.151 222.789 320.484C223.117 319.812 223.581 319.297 224.18 318.938C224.784 318.573 225.471 318.391 226.242 318.391C227.398 318.391 228.307 318.755 228.969 319.484C229.635 320.214 229.969 321.247 229.969 322.586V323.508H224.586C224.659 324.06 224.878 324.503 225.242 324.836C225.612 325.169 226.078 325.336 226.641 325.336C227.51 325.336 228.19 325.021 228.68 324.391L229.789 325.633C229.451 326.112 228.992 326.487 228.414 326.758C227.836 327.023 227.195 327.156 226.492 327.156ZM226.234 320.219C225.786 320.219 225.422 320.37 225.141 320.672C224.865 320.974 224.688 321.406 224.609 321.969H227.75V321.789C227.74 321.289 227.604 320.904 227.344 320.633C227.083 320.357 226.714 320.219 226.234 320.219ZM233.336 318.547L233.406 319.523C234.01 318.768 234.82 318.391 235.836 318.391C236.732 318.391 237.398 318.654 237.836 319.18C238.273 319.706 238.497 320.492 238.508 321.539V327H236.25V321.594C236.25 321.115 236.146 320.768 235.938 320.555C235.729 320.336 235.383 320.227 234.898 320.227C234.263 320.227 233.786 320.497 233.469 321.039V327H231.211V318.547H233.336ZM242.609 327H240.344V318.547H242.609V327ZM240.211 316.359C240.211 316.021 240.323 315.742 240.547 315.523C240.776 315.305 241.086 315.195 241.477 315.195C241.862 315.195 242.169 315.305 242.398 315.523C242.628 315.742 242.742 316.021 242.742 316.359C242.742 316.703 242.625 316.984 242.391 317.203C242.161 317.422 241.857 317.531 241.477 317.531C241.096 317.531 240.789 317.422 240.555 317.203C240.326 316.984 240.211 316.703 240.211 316.359ZM245.023 327V320.203H243.766V318.547H245.023V318.156C245.034 317.094 245.359 316.276 246 315.703C246.646 315.125 247.555 314.836 248.727 314.836C249.43 314.836 250.284 314.99 251.289 315.297L250.961 317.164C250.451 317.013 250.055 316.917 249.773 316.875C249.492 316.828 249.19 316.805 248.867 316.805C247.815 316.805 247.289 317.271 247.289 318.203V318.547H248.953V320.203H247.289V327H245.023ZM252.344 327H250.078V318.547H252.344V327ZM256.914 316.469V318.547H258.359V320.203H256.914V324.422C256.914 324.734 256.974 324.958 257.094 325.094C257.214 325.229 257.443 325.297 257.781 325.297C258.031 325.297 258.253 325.279 258.445 325.242V326.953C258.003 327.089 257.547 327.156 257.078 327.156C255.495 327.156 254.688 326.357 254.656 324.758V320.203H253.422V318.547H254.656V316.469H256.914ZM271.164 322.297C271.164 323.87 270.839 325.073 270.188 325.906C269.536 326.74 268.583 327.156 267.328 327.156C266.089 327.156 265.141 326.747 264.484 325.93C263.828 325.112 263.492 323.94 263.477 322.414V320.32C263.477 318.732 263.805 317.526 264.461 316.703C265.122 315.88 266.073 315.469 267.312 315.469C268.552 315.469 269.5 315.878 270.156 316.695C270.812 317.508 271.148 318.677 271.164 320.203V322.297ZM268.906 320C268.906 319.057 268.776 318.372 268.516 317.945C268.26 317.513 267.859 317.297 267.312 317.297C266.781 317.297 266.388 317.503 266.133 317.914C265.883 318.32 265.75 318.958 265.734 319.828V322.594C265.734 323.521 265.859 324.211 266.109 324.664C266.365 325.112 266.771 325.336 267.328 325.336C267.88 325.336 268.279 325.12 268.523 324.688C268.768 324.255 268.896 323.594 268.906 322.703V320ZM278.18 327H275.922V318.297L273.227 319.133V317.297L277.938 315.609H278.18V327ZM282.086 325.891C282.086 325.531 282.206 325.24 282.445 325.016C282.69 324.792 282.995 324.68 283.359 324.68C283.729 324.68 284.034 324.792 284.273 325.016C284.518 325.24 284.641 325.531 284.641 325.891C284.641 326.245 284.521 326.534 284.281 326.758C284.042 326.977 283.734 327.086 283.359 327.086C282.99 327.086 282.685 326.977 282.445 326.758C282.206 326.534 282.086 326.245 282.086 325.891ZM282.086 319.492C282.086 319.133 282.206 318.841 282.445 318.617C282.69 318.393 282.995 318.281 283.359 318.281C283.729 318.281 284.034 318.393 284.273 318.617C284.518 318.841 284.641 319.133 284.641 319.492C284.641 319.846 284.521 320.135 284.281 320.359C284.042 320.578 283.734 320.688 283.359 320.688C282.99 320.688 282.685 320.578 282.445 320.359C282.206 320.135 282.086 319.846 282.086 319.492ZM294.625 319.984L297.352 315.625H299.117L295.523 321.266L299.203 327H297.422L294.625 322.562L291.812 327H290.039L293.727 321.266L290.125 315.625H291.883L294.625 319.984ZM304.656 319.984L307.383 315.625H309.148L305.555 321.266L309.234 327H307.453L304.656 322.562L301.844 327H300.07L303.758 321.266L300.156 315.625H301.914L304.656 319.984ZM314.688 319.984L317.414 315.625H319.18L315.586 321.266L319.266 327H317.484L314.688 322.562L311.875 327H310.102L313.789 321.266L310.188 315.625H311.945L314.688 319.984ZM324.719 319.984L327.445 315.625H329.211L325.617 321.266L329.297 327H327.516L324.719 322.562L321.906 327H320.133L323.82 321.266L320.219 315.625H321.977L324.719 319.984ZM156.031 338.984L158.758 334.625H160.523L156.93 340.266L160.609 346H158.828L156.031 341.562L153.219 346H151.445L155.133 340.266L151.531 334.625H153.289L156.031 338.984ZM166.062 338.984L168.789 334.625H170.555L166.961 340.266L170.641 346H168.859L166.062 341.562L163.25 346H161.477L165.164 340.266L161.562 334.625H163.32L166.062 338.984ZM176.094 338.984L178.82 334.625H180.586L176.992 340.266L180.672 346H178.891L176.094 341.562L173.281 346H171.508L175.195 340.266L171.594 334.625H173.352L176.094 338.984ZM190.094 338.984L192.82 334.625H194.586L190.992 340.266L194.672 346H192.891L190.094 341.562L187.281 346H185.508L189.195 340.266L185.594 334.625H187.352L190.094 338.984ZM204.094 338.984L206.82 334.625H208.586L204.992 340.266L208.672 346H206.891L204.094 341.562L201.281 346H199.508L203.195 340.266L199.594 334.625H201.352L204.094 338.984ZM218.094 338.984L220.82 334.625H222.586L218.992 340.266L222.672 346H220.891L218.094 341.562L215.281 346H213.508L217.195 340.266L213.594 334.625H215.352L218.094 338.984ZM228.125 338.984L230.852 334.625H232.617L229.023 340.266L232.703 346H230.922L228.125 341.562L225.312 346H223.539L227.227 340.266L223.625 334.625H225.383L228.125 338.984ZM238.156 338.984L240.883 334.625H242.648L239.055 340.266L242.734 346H240.953L238.156 341.562L235.344 346H233.57L237.258 340.266L233.656 334.625H235.414L238.156 338.984ZM252.156 338.984L254.883 334.625H256.648L253.055 340.266L256.734 346H254.953L252.156 341.562L249.344 346H247.57L251.258 340.266L247.656 334.625H249.414L252.156 338.984ZM262.188 338.984L264.914 334.625H266.68L263.086 340.266L266.766 346H264.984L262.188 341.562L259.375 346H257.602L261.289 340.266L257.688 334.625H259.445L262.188 338.984ZM276.188 338.984L278.914 334.625H280.68L277.086 340.266L280.766 346H278.984L276.188 341.562L273.375 346H271.602L275.289 340.266L271.688 334.625H273.445L276.188 338.984ZM290.188 338.984L292.914 334.625H294.68L291.086 340.266L294.766 346H292.984L290.188 341.562L287.375 346H285.602L289.289 340.266L285.688 334.625H287.445L290.188 338.984ZM304.188 338.984L306.914 334.625H308.68L305.086 340.266L308.766 346H306.984L304.188 341.562L301.375 346H299.602L303.289 340.266L299.688 334.625H301.445L304.188 338.984ZM318.188 338.984L320.914 334.625H322.68L319.086 340.266L322.766 346H320.984L318.188 341.562L315.375 346H313.602L317.289 340.266L313.688 334.625H315.445L318.188 338.984ZM332.188 338.984L334.914 334.625H336.68L333.086 340.266L336.766 346H334.984L332.188 341.562L329.375 346H327.602L331.289 340.266L327.688 334.625H329.445L332.188 338.984ZM156.031 357.984L158.758 353.625H160.523L156.93 359.266L160.609 365H158.828L156.031 360.562L153.219 365H151.445L155.133 359.266L151.531 353.625H153.289L156.031 357.984ZM170.031 357.984L172.758 353.625H174.523L170.93 359.266L174.609 365H172.828L170.031 360.562L167.219 365H165.445L169.133 359.266L165.531 353.625H167.289L170.031 357.984ZM184.031 357.984L186.758 353.625H188.523L184.93 359.266L188.609 365H186.828L184.031 360.562L181.219 365H179.445L183.133 359.266L179.531 353.625H181.289L184.031 357.984ZM198.031 357.984L200.758 353.625H202.523L198.93 359.266L202.609 365H200.828L198.031 360.562L195.219 365H193.445L197.133 359.266L193.531 353.625H195.289L198.031 357.984ZM212.031 357.984L214.758 353.625H216.523L212.93 359.266L216.609 365H214.828L212.031 360.562L209.219 365H207.445L211.133 359.266L207.531 353.625H209.289L212.031 357.984ZM222.062 357.984L224.789 353.625H226.555L222.961 359.266L226.641 365H224.859L222.062 360.562L219.25 365H217.477L221.164 359.266L217.562 353.625H219.32L222.062 357.984ZM232.094 357.984L234.82 353.625H236.586L232.992 359.266L236.672 365H234.891L232.094 360.562L229.281 365H227.508L231.195 359.266L227.594 353.625H229.352L232.094 357.984ZM246.094 357.984L248.82 353.625H250.586L246.992 359.266L250.672 365H248.891L246.094 360.562L243.281 365H241.508L245.195 359.266L241.594 353.625H243.352L246.094 357.984ZM256.125 357.984L258.852 353.625H260.617L257.023 359.266L260.703 365H258.922L256.125 360.562L253.312 365H251.539L255.227 359.266L251.625 353.625H253.383L256.125 357.984ZM266.156 357.984L268.883 353.625H270.648L267.055 359.266L270.734 365H268.953L266.156 360.562L263.344 365H261.57L265.258 359.266L261.656 353.625H263.414L266.156 357.984ZM276.188 357.984L278.914 353.625H280.68L277.086 359.266L280.766 365H278.984L276.188 360.562L273.375 365H271.602L275.289 359.266L271.688 353.625H273.445L276.188 357.984ZM286.219 357.984L288.945 353.625H290.711L287.117 359.266L290.797 365H289.016L286.219 360.562L283.406 365H281.633L285.32 359.266L281.719 353.625H283.477L286.219 357.984ZM296.25 357.984L298.977 353.625H300.742L297.148 359.266L300.828 365H299.047L296.25 360.562L293.438 365H291.664L295.352 359.266L291.75 353.625H293.508L296.25 357.984ZM310.25 357.984L312.977 353.625H314.742L311.148 359.266L314.828 365H313.047L310.25 360.562L307.438 365H305.664L309.352 359.266L305.75 353.625H307.508L310.25 357.984ZM320.281 357.984L323.008 353.625H324.773L321.18 359.266L324.859 365H323.078L320.281 360.562L317.469 365H315.695L319.383 359.266L315.781 353.625H317.539L320.281 357.984ZM334.281 357.984L337.008 353.625H338.773L335.18 359.266L338.859 365H337.078L334.281 360.562L331.469 365H329.695L333.383 359.266L329.781 353.625H331.539L334.281 357.984ZM156.031 378.984L158.758 374.625H160.523L156.93 380.266L160.609 386H158.828L156.031 381.562L153.219 386H151.445L155.133 380.266L151.531 374.625H153.289L156.031 378.984ZM166.062 378.984L168.789 374.625H170.555L166.961 380.266L170.641 386H168.859L166.062 381.562L163.25 386H161.477L165.164 380.266L161.562 374.625H163.32L166.062 378.984ZM176.094 378.984L178.82 374.625H180.586L176.992 380.266L180.672 386H178.891L176.094 381.562L173.281 386H171.508L175.195 380.266L171.594 374.625H173.352L176.094 378.984ZM186.125 378.984L188.852 374.625H190.617L187.023 380.266L190.703 386H188.922L186.125 381.562L183.312 386H181.539L185.227 380.266L181.625 374.625H183.383L186.125 378.984ZM196.156 378.984L198.883 374.625H200.648L197.055 380.266L200.734 386H198.953L196.156 381.562L193.344 386H191.57L195.258 380.266L191.656 374.625H193.414L196.156 378.984ZM206.188 378.984L208.914 374.625H210.68L207.086 380.266L210.766 386H208.984L206.188 381.562L203.375 386H201.602L205.289 380.266L201.688 374.625H203.445L206.188 378.984ZM216.219 378.984L218.945 374.625H220.711L217.117 380.266L220.797 386H219.016L216.219 381.562L213.406 386H211.633L215.32 380.266L211.719 374.625H213.477L216.219 378.984ZM222.344 385.242C222.344 384.992 222.417 384.784 222.562 384.617C222.714 384.451 222.938 384.367 223.234 384.367C223.531 384.367 223.755 384.451 223.906 384.617C224.062 384.784 224.141 384.992 224.141 385.242C224.141 385.482 224.062 385.682 223.906 385.844C223.755 386.005 223.531 386.086 223.234 386.086C222.938 386.086 222.714 386.005 222.562 385.844C222.417 385.682 222.344 385.482 222.344 385.242Z" fill="black"/>
<line y1="-1" x2="146.845" y2="-1" transform="matrix(0.740475 0.672084 -0.391613 0.92013 24.1327 419.103)" stroke="black" stroke-width="2"/>
<line y1="-1" x2="146.845" y2="-1" transform="matrix(0.740475 0.672084 -0.391613 0.92013 24.1327 539.103)" stroke="black" stroke-width="2"/>
<path d="M222.477 121.82V124.125H221.258V121.82H222.477ZM222.328 134.578V136.68H221.109V134.578H222.328ZM223.188 132.016C223.188 131.719 223.133 131.466 223.023 131.258C222.919 131.049 222.747 130.865 222.508 130.703C222.273 130.542 221.956 130.385 221.555 130.234C220.878 129.974 220.281 129.698 219.766 129.406C219.255 129.109 218.857 128.742 218.57 128.305C218.284 127.862 218.141 127.302 218.141 126.625C218.141 125.979 218.294 125.419 218.602 124.945C218.909 124.471 219.333 124.107 219.875 123.852C220.422 123.591 221.057 123.461 221.781 123.461C222.333 123.461 222.833 123.544 223.281 123.711C223.729 123.872 224.115 124.112 224.438 124.43C224.76 124.742 225.008 125.125 225.18 125.578C225.352 126.031 225.438 126.549 225.438 127.133H223.195C223.195 126.82 223.161 126.544 223.094 126.305C223.026 126.065 222.927 125.865 222.797 125.703C222.672 125.542 222.521 125.422 222.344 125.344C222.167 125.26 221.971 125.219 221.758 125.219C221.44 125.219 221.18 125.281 220.977 125.406C220.773 125.531 220.625 125.701 220.531 125.914C220.443 126.122 220.398 126.362 220.398 126.633C220.398 126.898 220.445 127.13 220.539 127.328C220.638 127.526 220.807 127.708 221.047 127.875C221.286 128.036 221.615 128.203 222.031 128.375C222.708 128.635 223.302 128.917 223.812 129.219C224.323 129.521 224.721 129.891 225.008 130.328C225.294 130.766 225.438 131.323 225.438 132C225.438 132.672 225.281 133.245 224.969 133.719C224.656 134.188 224.219 134.547 223.656 134.797C223.094 135.042 222.443 135.164 221.703 135.164C221.224 135.164 220.747 135.102 220.273 134.977C219.799 134.846 219.37 134.638 218.984 134.352C218.599 134.065 218.292 133.685 218.062 133.211C217.833 132.732 217.719 132.143 217.719 131.445H219.969C219.969 131.826 220.018 132.143 220.117 132.398C220.216 132.648 220.346 132.849 220.508 133C220.674 133.146 220.862 133.25 221.07 133.312C221.279 133.375 221.49 133.406 221.703 133.406C222.036 133.406 222.31 133.346 222.523 133.227C222.742 133.107 222.906 132.943 223.016 132.734C223.13 132.521 223.188 132.281 223.188 132.016ZM234.938 130.75V132.516H226.742L226.633 131.148L231.375 123.625H233.164L231.227 126.867L228.867 130.75H234.938ZM233.648 123.625V135H231.398V123.625H233.648ZM237.75 133.289H237.898C238.523 133.289 239.06 133.214 239.508 133.062C239.961 132.906 240.333 132.682 240.625 132.391C240.917 132.099 241.133 131.742 241.273 131.32C241.414 130.893 241.484 130.409 241.484 129.867V127.711C241.484 127.299 241.443 126.938 241.359 126.625C241.281 126.312 241.167 126.055 241.016 125.852C240.87 125.643 240.698 125.487 240.5 125.383C240.307 125.279 240.094 125.227 239.859 125.227C239.609 125.227 239.388 125.289 239.195 125.414C239.003 125.534 238.839 125.698 238.703 125.906C238.573 126.115 238.471 126.354 238.398 126.625C238.331 126.891 238.297 127.169 238.297 127.461C238.297 127.753 238.331 128.031 238.398 128.297C238.466 128.557 238.568 128.789 238.703 128.992C238.839 129.19 239.008 129.349 239.211 129.469C239.414 129.583 239.654 129.641 239.93 129.641C240.195 129.641 240.432 129.591 240.641 129.492C240.854 129.388 241.034 129.253 241.18 129.086C241.331 128.919 241.445 128.734 241.523 128.531C241.607 128.328 241.648 128.122 241.648 127.914L242.391 128.32C242.391 128.685 242.312 129.044 242.156 129.398C242 129.753 241.781 130.076 241.5 130.367C241.224 130.654 240.904 130.883 240.539 131.055C240.174 131.227 239.784 131.312 239.367 131.312C238.836 131.312 238.365 131.216 237.953 131.023C237.542 130.826 237.193 130.555 236.906 130.211C236.625 129.862 236.411 129.456 236.266 128.992C236.12 128.529 236.047 128.026 236.047 127.484C236.047 126.932 236.135 126.414 236.312 125.93C236.495 125.445 236.753 125.018 237.086 124.648C237.424 124.279 237.828 123.99 238.297 123.781C238.771 123.568 239.297 123.461 239.875 123.461C240.453 123.461 240.979 123.573 241.453 123.797C241.927 124.021 242.333 124.339 242.672 124.75C243.01 125.156 243.271 125.643 243.453 126.211C243.641 126.779 243.734 127.409 243.734 128.102V128.883C243.734 129.622 243.654 130.31 243.492 130.945C243.336 131.581 243.099 132.156 242.781 132.672C242.469 133.182 242.078 133.62 241.609 133.984C241.146 134.349 240.607 134.628 239.992 134.82C239.378 135.013 238.69 135.109 237.93 135.109H237.75V133.289ZM246.938 133.289H247.086C247.711 133.289 248.247 133.214 248.695 133.062C249.148 132.906 249.521 132.682 249.812 132.391C250.104 132.099 250.32 131.742 250.461 131.32C250.602 130.893 250.672 130.409 250.672 129.867V127.711C250.672 127.299 250.63 126.938 250.547 126.625C250.469 126.312 250.354 126.055 250.203 125.852C250.057 125.643 249.885 125.487 249.688 125.383C249.495 125.279 249.281 125.227 249.047 125.227C248.797 125.227 248.576 125.289 248.383 125.414C248.19 125.534 248.026 125.698 247.891 125.906C247.76 126.115 247.659 126.354 247.586 126.625C247.518 126.891 247.484 127.169 247.484 127.461C247.484 127.753 247.518 128.031 247.586 128.297C247.654 128.557 247.755 128.789 247.891 128.992C248.026 129.19 248.195 129.349 248.398 129.469C248.602 129.583 248.841 129.641 249.117 129.641C249.383 129.641 249.62 129.591 249.828 129.492C250.042 129.388 250.221 129.253 250.367 129.086C250.518 128.919 250.633 128.734 250.711 128.531C250.794 128.328 250.836 128.122 250.836 127.914L251.578 128.32C251.578 128.685 251.5 129.044 251.344 129.398C251.188 129.753 250.969 130.076 250.688 130.367C250.411 130.654 250.091 130.883 249.727 131.055C249.362 131.227 248.971 131.312 248.555 131.312C248.023 131.312 247.552 131.216 247.141 131.023C246.729 130.826 246.38 130.555 246.094 130.211C245.812 129.862 245.599 129.456 245.453 128.992C245.307 128.529 245.234 128.026 245.234 127.484C245.234 126.932 245.323 126.414 245.5 125.93C245.682 125.445 245.94 125.018 246.273 124.648C246.612 124.279 247.016 123.99 247.484 123.781C247.958 123.568 248.484 123.461 249.062 123.461C249.641 123.461 250.167 123.573 250.641 123.797C251.115 124.021 251.521 124.339 251.859 124.75C252.198 125.156 252.458 125.643 252.641 126.211C252.828 126.779 252.922 127.409 252.922 128.102V128.883C252.922 129.622 252.841 130.31 252.68 130.945C252.523 131.581 252.286 132.156 251.969 132.672C251.656 133.182 251.266 133.62 250.797 133.984C250.333 134.349 249.794 134.628 249.18 134.82C248.565 135.013 247.878 135.109 247.117 135.109H246.938V133.289Z" fill="black"/>
<path d="M220.359 95.9922V100H218.016V88.625H222.453C223.307 88.625 224.057 88.7812 224.703 89.0938C225.354 89.4062 225.854 89.8516 226.203 90.4297C226.552 91.0026 226.727 91.6562 226.727 92.3906C226.727 93.5052 226.344 94.3854 225.578 95.0312C224.818 95.6719 223.763 95.9922 222.414 95.9922H220.359ZM220.359 94.0938H222.453C223.073 94.0938 223.544 93.9479 223.867 93.6562C224.195 93.3646 224.359 92.9479 224.359 92.4062C224.359 91.849 224.195 91.3984 223.867 91.0547C223.539 90.7109 223.086 90.5339 222.508 90.5234H220.359V94.0938ZM232.945 93.6641C232.638 93.6224 232.367 93.6016 232.133 93.6016C231.279 93.6016 230.719 93.8906 230.453 94.4688V100H228.195V91.5469H230.328L230.391 92.5547C230.844 91.7786 231.471 91.3906 232.273 91.3906C232.523 91.3906 232.758 91.4245 232.977 91.4922L232.945 93.6641ZM233.406 95.6953C233.406 94.8568 233.568 94.1094 233.891 93.4531C234.214 92.7969 234.677 92.2891 235.281 91.9297C235.891 91.5703 236.596 91.3906 237.398 91.3906C238.539 91.3906 239.469 91.7396 240.188 92.4375C240.911 93.1354 241.315 94.0833 241.398 95.2812L241.414 95.8594C241.414 97.1562 241.052 98.1979 240.328 98.9844C239.604 99.7656 238.633 100.156 237.414 100.156C236.195 100.156 235.221 99.7656 234.492 98.9844C233.768 98.2031 233.406 97.1406 233.406 95.7969V95.6953ZM235.664 95.8594C235.664 96.6615 235.815 97.276 236.117 97.7031C236.419 98.125 236.852 98.3359 237.414 98.3359C237.961 98.3359 238.388 98.1276 238.695 97.7109C239.003 97.2891 239.156 96.6172 239.156 95.6953C239.156 94.9089 239.003 94.2995 238.695 93.8672C238.388 93.4349 237.956 93.2188 237.398 93.2188C236.846 93.2188 236.419 93.4349 236.117 93.8672C235.815 94.2943 235.664 94.9583 235.664 95.8594ZM242.453 95.7109C242.453 94.3932 242.747 93.3438 243.336 92.5625C243.93 91.7812 244.74 91.3906 245.766 91.3906C246.589 91.3906 247.268 91.6979 247.805 92.3125V88H250.07V100H248.031L247.922 99.1016C247.359 99.8047 246.635 100.156 245.75 100.156C244.755 100.156 243.956 99.7656 243.352 98.9844C242.753 98.1979 242.453 97.1068 242.453 95.7109ZM244.711 95.875C244.711 96.6667 244.849 97.2734 245.125 97.6953C245.401 98.1172 245.802 98.3281 246.328 98.3281C247.026 98.3281 247.518 98.0339 247.805 97.4453V94.1094C247.523 93.5208 247.036 93.2266 246.344 93.2266C245.255 93.2266 244.711 94.1094 244.711 95.875ZM256.883 99.1406C256.326 99.8177 255.555 100.156 254.57 100.156C253.664 100.156 252.971 99.8958 252.492 99.375C252.018 98.8542 251.776 98.0911 251.766 97.0859V91.5469H254.023V97.0078C254.023 97.888 254.424 98.3281 255.227 98.3281C255.992 98.3281 256.518 98.0625 256.805 97.5312V91.5469H259.07V100H256.945L256.883 99.1406ZM264.289 98.3359C264.706 98.3359 265.044 98.2214 265.305 97.9922C265.565 97.763 265.701 97.4583 265.711 97.0781H267.828C267.823 97.651 267.667 98.1771 267.359 98.6562C267.052 99.1302 266.63 99.5 266.094 99.7656C265.562 100.026 264.974 100.156 264.328 100.156C263.12 100.156 262.167 99.7734 261.469 99.0078C260.771 98.237 260.422 97.1745 260.422 95.8203V95.6719C260.422 94.3698 260.768 93.3307 261.461 92.5547C262.154 91.7786 263.104 91.3906 264.312 91.3906C265.37 91.3906 266.216 91.6927 266.852 92.2969C267.492 92.8958 267.818 93.6953 267.828 94.6953H265.711C265.701 94.2578 265.565 93.9036 265.305 93.6328C265.044 93.3568 264.701 93.2188 264.273 93.2188C263.747 93.2188 263.349 93.4115 263.078 93.7969C262.812 94.1771 262.68 94.7969 262.68 95.6562V95.8906C262.68 96.7604 262.812 97.3854 263.078 97.7656C263.344 98.1458 263.747 98.3359 264.289 98.3359ZM271.82 89.4688V91.5469H273.266V93.2031H271.82V97.4219C271.82 97.7344 271.88 97.9583 272 98.0938C272.12 98.2292 272.349 98.2969 272.688 98.2969C272.938 98.2969 273.159 98.2786 273.352 98.2422V99.9531C272.909 100.089 272.453 100.156 271.984 100.156C270.401 100.156 269.594 99.3568 269.562 97.7578V93.2031H268.328V91.5469H269.562V89.4688H271.82ZM274.633 98.8906C274.633 98.5312 274.753 98.2396 274.992 98.0156C275.237 97.7917 275.542 97.6797 275.906 97.6797C276.276 97.6797 276.581 97.7917 276.82 98.0156C277.065 98.2396 277.188 98.5312 277.188 98.8906C277.188 99.2448 277.068 99.5339 276.828 99.7578C276.589 99.9766 276.281 100.086 275.906 100.086C275.536 100.086 275.232 99.9766 274.992 99.7578C274.753 99.5339 274.633 99.2448 274.633 98.8906ZM274.633 92.4922C274.633 92.1328 274.753 91.8411 274.992 91.6172C275.237 91.3932 275.542 91.2812 275.906 91.2812C276.276 91.2812 276.581 91.3932 276.82 91.6172C277.065 91.8411 277.188 92.1328 277.188 92.4922C277.188 92.8464 277.068 93.1354 276.828 93.3594C276.589 93.5781 276.281 93.6875 275.906 93.6875C275.536 93.6875 275.232 93.5781 274.992 93.3594C274.753 93.1354 274.633 92.8464 274.633 92.4922ZM287.172 92.9844L289.898 88.625H291.664L288.07 94.2656L291.75 100H289.969L287.172 95.5625L284.359 100H282.586L286.273 94.2656L282.672 88.625H284.43L287.172 92.9844ZM297.203 92.9844L299.93 88.625H301.695L298.102 94.2656L301.781 100H300L297.203 95.5625L294.391 100H292.617L296.305 94.2656L292.703 88.625H294.461L297.203 92.9844ZM305.945 95.7578H302.133V94.5781H305.945V95.7578ZM311.297 92.9844L314.023 88.625H315.789L312.195 94.2656L315.875 100H314.094L311.297 95.5625L308.484 100H306.711L310.398 94.2656L306.797 88.625H308.555L311.297 92.9844ZM321.328 92.9844L324.055 88.625H325.82L322.227 94.2656L325.906 100H324.125L321.328 95.5625L318.516 100H316.742L320.43 94.2656L316.828 88.625H318.586L321.328 92.9844ZM331.359 92.9844L334.086 88.625H335.852L332.258 94.2656L335.938 100H334.156L331.359 95.5625L328.547 100H326.773L330.461 94.2656L326.859 88.625H328.617L331.359 92.9844Z" fill="black"/>
<path d="M218.016 172V160.625H221.516C222.516 160.625 223.409 160.852 224.195 161.305C224.987 161.753 225.604 162.393 226.047 163.227C226.49 164.055 226.711 164.997 226.711 166.055V166.578C226.711 167.635 226.492 168.576 226.055 169.398C225.622 170.221 225.01 170.859 224.219 171.312C223.427 171.766 222.534 171.995 221.539 172H218.016ZM220.359 162.523V170.117H221.492C222.409 170.117 223.109 169.818 223.594 169.219C224.078 168.62 224.326 167.763 224.336 166.648V166.047C224.336 164.891 224.096 164.016 223.617 163.422C223.138 162.823 222.438 162.523 221.516 162.523H220.359ZM232.164 172.156C230.924 172.156 229.914 171.776 229.133 171.016C228.357 170.255 227.969 169.242 227.969 167.977V167.758C227.969 166.909 228.133 166.151 228.461 165.484C228.789 164.812 229.253 164.297 229.852 163.938C230.456 163.573 231.143 163.391 231.914 163.391C233.07 163.391 233.979 163.755 234.641 164.484C235.307 165.214 235.641 166.247 235.641 167.586V168.508H230.258C230.331 169.06 230.549 169.503 230.914 169.836C231.284 170.169 231.75 170.336 232.312 170.336C233.182 170.336 233.862 170.021 234.352 169.391L235.461 170.633C235.122 171.112 234.664 171.487 234.086 171.758C233.508 172.023 232.867 172.156 232.164 172.156ZM231.906 165.219C231.458 165.219 231.094 165.37 230.812 165.672C230.536 165.974 230.359 166.406 230.281 166.969H233.422V166.789C233.411 166.289 233.276 165.904 233.016 165.633C232.755 165.357 232.385 165.219 231.906 165.219ZM241.508 169.664C241.508 169.388 241.37 169.172 241.094 169.016C240.823 168.854 240.385 168.711 239.781 168.586C237.771 168.164 236.766 167.31 236.766 166.023C236.766 165.273 237.076 164.648 237.695 164.148C238.32 163.643 239.135 163.391 240.141 163.391C241.214 163.391 242.07 163.643 242.711 164.148C243.357 164.654 243.68 165.31 243.68 166.117H241.422C241.422 165.794 241.318 165.529 241.109 165.32C240.901 165.107 240.576 165 240.133 165C239.753 165 239.458 165.086 239.25 165.258C239.042 165.43 238.938 165.648 238.938 165.914C238.938 166.164 239.055 166.367 239.289 166.523C239.529 166.674 239.93 166.807 240.492 166.922C241.055 167.031 241.529 167.156 241.914 167.297C243.107 167.734 243.703 168.492 243.703 169.57C243.703 170.341 243.372 170.966 242.711 171.445C242.049 171.919 241.195 172.156 240.148 172.156C239.44 172.156 238.81 172.031 238.258 171.781C237.711 171.526 237.281 171.18 236.969 170.742C236.656 170.299 236.5 169.823 236.5 169.312H238.641C238.661 169.714 238.81 170.021 239.086 170.234C239.362 170.448 239.732 170.555 240.195 170.555C240.628 170.555 240.953 170.474 241.172 170.312C241.396 170.146 241.508 169.93 241.508 169.664ZM248.68 170.336C249.096 170.336 249.435 170.221 249.695 169.992C249.956 169.763 250.091 169.458 250.102 169.078H252.219C252.214 169.651 252.057 170.177 251.75 170.656C251.443 171.13 251.021 171.5 250.484 171.766C249.953 172.026 249.365 172.156 248.719 172.156C247.51 172.156 246.557 171.773 245.859 171.008C245.161 170.237 244.812 169.174 244.812 167.82V167.672C244.812 166.37 245.159 165.331 245.852 164.555C246.544 163.779 247.495 163.391 248.703 163.391C249.76 163.391 250.607 163.693 251.242 164.297C251.883 164.896 252.208 165.695 252.219 166.695H250.102C250.091 166.258 249.956 165.904 249.695 165.633C249.435 165.357 249.091 165.219 248.664 165.219C248.138 165.219 247.74 165.411 247.469 165.797C247.203 166.177 247.07 166.797 247.07 167.656V167.891C247.07 168.76 247.203 169.385 247.469 169.766C247.734 170.146 248.138 170.336 248.68 170.336ZM258.258 165.664C257.951 165.622 257.68 165.602 257.445 165.602C256.591 165.602 256.031 165.891 255.766 166.469V172H253.508V163.547H255.641L255.703 164.555C256.156 163.779 256.784 163.391 257.586 163.391C257.836 163.391 258.07 163.424 258.289 163.492L258.258 165.664ZM261.734 172H259.469V163.547H261.734V172ZM259.336 161.359C259.336 161.021 259.448 160.742 259.672 160.523C259.901 160.305 260.211 160.195 260.602 160.195C260.987 160.195 261.294 160.305 261.523 160.523C261.753 160.742 261.867 161.021 261.867 161.359C261.867 161.703 261.75 161.984 261.516 162.203C261.286 162.422 260.982 162.531 260.602 162.531C260.221 162.531 259.914 162.422 259.68 162.203C259.451 161.984 259.336 161.703 259.336 161.359ZM271.211 167.852C271.211 169.154 270.914 170.198 270.32 170.984C269.732 171.766 268.935 172.156 267.93 172.156C267.076 172.156 266.385 171.859 265.859 171.266V175.25H263.602V163.547H265.695L265.773 164.375C266.32 163.719 267.034 163.391 267.914 163.391C268.956 163.391 269.766 163.776 270.344 164.547C270.922 165.318 271.211 166.38 271.211 167.734V167.852ZM268.953 167.688C268.953 166.901 268.812 166.294 268.531 165.867C268.255 165.44 267.852 165.227 267.32 165.227C266.612 165.227 266.125 165.497 265.859 166.039V169.5C266.135 170.057 266.628 170.336 267.336 170.336C268.414 170.336 268.953 169.453 268.953 167.688ZM275.32 161.469V163.547H276.766V165.203H275.32V169.422C275.32 169.734 275.38 169.958 275.5 170.094C275.62 170.229 275.849 170.297 276.188 170.297C276.438 170.297 276.659 170.279 276.852 170.242V171.953C276.409 172.089 275.953 172.156 275.484 172.156C273.901 172.156 273.094 171.357 273.062 169.758V165.203H271.828V163.547H273.062V161.469H275.32ZM280.406 172H278.141V163.547H280.406V172ZM278.008 161.359C278.008 161.021 278.12 160.742 278.344 160.523C278.573 160.305 278.883 160.195 279.273 160.195C279.659 160.195 279.966 160.305 280.195 160.523C280.424 160.742 280.539 161.021 280.539 161.359C280.539 161.703 280.422 161.984 280.188 162.203C279.958 162.422 279.654 162.531 279.273 162.531C278.893 162.531 278.586 162.422 278.352 162.203C278.122 161.984 278.008 161.703 278.008 161.359ZM281.922 167.695C281.922 166.857 282.083 166.109 282.406 165.453C282.729 164.797 283.193 164.289 283.797 163.93C284.406 163.57 285.112 163.391 285.914 163.391C287.055 163.391 287.984 163.74 288.703 164.438C289.427 165.135 289.831 166.083 289.914 167.281L289.93 167.859C289.93 169.156 289.568 170.198 288.844 170.984C288.12 171.766 287.148 172.156 285.93 172.156C284.711 172.156 283.737 171.766 283.008 170.984C282.284 170.203 281.922 169.141 281.922 167.797V167.695ZM284.18 167.859C284.18 168.661 284.331 169.276 284.633 169.703C284.935 170.125 285.367 170.336 285.93 170.336C286.477 170.336 286.904 170.128 287.211 169.711C287.518 169.289 287.672 168.617 287.672 167.695C287.672 166.909 287.518 166.299 287.211 165.867C286.904 165.435 286.471 165.219 285.914 165.219C285.362 165.219 284.935 165.435 284.633 165.867C284.331 166.294 284.18 166.958 284.18 167.859ZM293.398 163.547L293.469 164.523C294.073 163.768 294.883 163.391 295.898 163.391C296.794 163.391 297.461 163.654 297.898 164.18C298.336 164.706 298.56 165.492 298.57 166.539V172H296.312V166.594C296.312 166.115 296.208 165.768 296 165.555C295.792 165.336 295.445 165.227 294.961 165.227C294.326 165.227 293.849 165.497 293.531 166.039V172H291.273V163.547H293.398ZM300.398 170.891C300.398 170.531 300.518 170.24 300.758 170.016C301.003 169.792 301.307 169.68 301.672 169.68C302.042 169.68 302.346 169.792 302.586 170.016C302.831 170.24 302.953 170.531 302.953 170.891C302.953 171.245 302.833 171.534 302.594 171.758C302.354 171.977 302.047 172.086 301.672 172.086C301.302 172.086 300.997 171.977 300.758 171.758C300.518 171.534 300.398 171.245 300.398 170.891ZM300.398 164.492C300.398 164.133 300.518 163.841 300.758 163.617C301.003 163.393 301.307 163.281 301.672 163.281C302.042 163.281 302.346 163.393 302.586 163.617C302.831 163.841 302.953 164.133 302.953 164.492C302.953 164.846 302.833 165.135 302.594 165.359C302.354 165.578 302.047 165.688 301.672 165.688C301.302 165.688 300.997 165.578 300.758 165.359C300.518 165.135 300.398 164.846 300.398 164.492ZM222.031 185.984L224.758 181.625H226.523L222.93 187.266L226.609 193H224.828L222.031 188.562L219.219 193H217.445L221.133 187.266L217.531 181.625H219.289L222.031 185.984ZM232.062 185.984L234.789 181.625H236.555L232.961 187.266L236.641 193H234.859L232.062 188.562L229.25 193H227.477L231.164 187.266L227.562 181.625H229.32L232.062 185.984ZM242.094 185.984L244.82 181.625H246.586L242.992 187.266L246.672 193H244.891L242.094 188.562L239.281 193H237.508L241.195 187.266L237.594 181.625H239.352L242.094 185.984ZM252.125 185.984L254.852 181.625H256.617L253.023 187.266L256.703 193H254.922L252.125 188.562L249.312 193H247.539L251.227 187.266L247.625 181.625H249.383L252.125 185.984ZM266.125 185.984L268.852 181.625H270.617L267.023 187.266L270.703 193H268.922L266.125 188.562L263.312 193H261.539L265.227 187.266L261.625 181.625H263.383L266.125 185.984ZM276.156 185.984L278.883 181.625H280.648L277.055 187.266L280.734 193H278.953L276.156 188.562L273.344 193H271.57L275.258 187.266L271.656 181.625H273.414L276.156 185.984ZM286.188 185.984L288.914 181.625H290.68L287.086 187.266L290.766 193H288.984L286.188 188.562L283.375 193H281.602L285.289 187.266L281.688 181.625H283.445L286.188 185.984ZM300.188 185.984L302.914 181.625H304.68L301.086 187.266L304.766 193H302.984L300.188 188.562L297.375 193H295.602L299.289 187.266L295.688 181.625H297.445L300.188 185.984ZM314.188 185.984L316.914 181.625H318.68L315.086 187.266L318.766 193H316.984L314.188 188.562L311.375 193H309.602L313.289 187.266L309.688 181.625H311.445L314.188 185.984ZM222.031 206.984L224.758 202.625H226.523L222.93 208.266L226.609 214H224.828L222.031 209.562L219.219 214H217.445L221.133 208.266L217.531 202.625H219.289L222.031 206.984ZM232.062 206.984L234.789 202.625H236.555L232.961 208.266L236.641 214H234.859L232.062 209.562L229.25 214H227.477L231.164 208.266L227.562 202.625H229.32L232.062 206.984ZM242.094 206.984L244.82 202.625H246.586L242.992 208.266L246.672 214H244.891L242.094 209.562L239.281 214H237.508L241.195 208.266L237.594 202.625H239.352L242.094 206.984ZM256.094 206.984L258.82 202.625H260.586L256.992 208.266L260.672 214H258.891L256.094 209.562L253.281 214H251.508L255.195 208.266L251.594 202.625H253.352L256.094 206.984ZM266.125 206.984L268.852 202.625H270.617L267.023 208.266L270.703 214H268.922L266.125 209.562L263.312 214H261.539L265.227 208.266L261.625 202.625H263.383L266.125 206.984ZM280.125 206.984L282.852 202.625H284.617L281.023 208.266L284.703 214H282.922L280.125 209.562L277.312 214H275.539L279.227 208.266L275.625 202.625H277.383L280.125 206.984ZM294.125 206.984L296.852 202.625H298.617L295.023 208.266L298.703 214H296.922L294.125 209.562L291.312 214H289.539L293.227 208.266L289.625 202.625H291.383L294.125 206.984ZM308.125 206.984L310.852 202.625H312.617L309.023 208.266L312.703 214H310.922L308.125 209.562L305.312 214H303.539L307.227 208.266L303.625 202.625H305.383L308.125 206.984ZM322.125 206.984L324.852 202.625H326.617L323.023 208.266L326.703 214H324.922L322.125 209.562L319.312 214H317.539L321.227 208.266L317.625 202.625H319.383L322.125 206.984ZM336.125 206.984L338.852 202.625H340.617L337.023 208.266L340.703 214H338.922L336.125 209.562L333.312 214H331.539L335.227 208.266L331.625 202.625H333.383L336.125 206.984ZM222.031 227.984L224.758 223.625H226.523L222.93 229.266L226.609 235H224.828L222.031 230.562L219.219 235H217.445L221.133 229.266L217.531 223.625H219.289L222.031 227.984ZM236.031 227.984L238.758 223.625H240.523L236.93 229.266L240.609 235H238.828L236.031 230.562L233.219 235H231.445L235.133 229.266L231.531 223.625H233.289L236.031 227.984ZM250.031 227.984L252.758 223.625H254.523L250.93 229.266L254.609 235H252.828L250.031 230.562L247.219 235H245.445L249.133 229.266L245.531 223.625H247.289L250.031 227.984ZM264.031 227.984L266.758 223.625H268.523L264.93 229.266L268.609 235H266.828L264.031 230.562L261.219 235H259.445L263.133 229.266L259.531 223.625H261.289L264.031 227.984ZM278.031 227.984L280.758 223.625H282.523L278.93 229.266L282.609 235H280.828L278.031 230.562L275.219 235H273.445L277.133 229.266L273.531 223.625H275.289L278.031 227.984ZM288.062 227.984L290.789 223.625H292.555L288.961 229.266L292.641 235H290.859L288.062 230.562L285.25 235H283.477L287.164 229.266L283.562 223.625H285.32L288.062 227.984ZM298.094 227.984L300.82 223.625H302.586L298.992 229.266L302.672 235H300.891L298.094 230.562L295.281 235H293.508L297.195 229.266L293.594 223.625H295.352L298.094 227.984ZM222.031 248.984L224.758 244.625H226.523L222.93 250.266L226.609 256H224.828L222.031 251.562L219.219 256H217.445L221.133 250.266L217.531 244.625H219.289L222.031 248.984ZM232.062 248.984L234.789 244.625H236.555L232.961 250.266L236.641 256H234.859L232.062 251.562L229.25 256H227.477L231.164 250.266L227.562 244.625H229.32L232.062 248.984ZM242.094 248.984L244.82 244.625H246.586L242.992 250.266L246.672 256H244.891L242.094 251.562L239.281 256H237.508L241.195 250.266L237.594 244.625H239.352L242.094 248.984ZM252.125 248.984L254.852 244.625H256.617L253.023 250.266L256.703 256H254.922L252.125 251.562L249.312 256H247.539L251.227 250.266L247.625 244.625H249.383L252.125 248.984ZM262.156 248.984L264.883 244.625H266.648L263.055 250.266L266.734 256H264.953L262.156 251.562L259.344 256H257.57L261.258 250.266L257.656 244.625H259.414L262.156 248.984ZM272.188 248.984L274.914 244.625H276.68L273.086 250.266L276.766 256H274.984L272.188 251.562L269.375 256H267.602L271.289 250.266L267.688 244.625H269.445L272.188 248.984ZM286.188 248.984L288.914 244.625H290.68L287.086 250.266L290.766 256H288.984L286.188 251.562L283.375 256H281.602L285.289 250.266L281.688 244.625H283.445L286.188 248.984ZM296.219 248.984L298.945 244.625H300.711L297.117 250.266L300.797 256H299.016L296.219 251.562L293.406 256H291.633L295.32 250.266L291.719 244.625H293.477L296.219 248.984ZM310.219 248.984L312.945 244.625H314.711L311.117 250.266L314.797 256H313.016L310.219 251.562L307.406 256H305.633L309.32 250.266L305.719 244.625H307.477L310.219 248.984ZM324.219 248.984L326.945 244.625H328.711L325.117 250.266L328.797 256H327.016L324.219 251.562L321.406 256H319.633L323.32 250.266L319.719 244.625H321.477L324.219 248.984ZM330.344 255.242C330.344 254.992 330.417 254.784 330.562 254.617C330.714 254.451 330.938 254.367 331.234 254.367C331.531 254.367 331.755 254.451 331.906 254.617C332.062 254.784 332.141 254.992 332.141 255.242C332.141 255.482 332.062 255.682 331.906 255.844C331.755 256.005 331.531 256.086 331.234 256.086C330.938 256.086 330.714 256.005 330.562 255.844C330.417 255.682 330.344 255.482 330.344 255.242Z" fill="black"/>
<path d="M158.859 442.352H154.359V447H152.016V435.625H159.422V437.523H154.359V440.461H158.859V442.352ZM164.352 447.156C163.112 447.156 162.102 446.776 161.32 446.016C160.544 445.255 160.156 444.242 160.156 442.977V442.758C160.156 441.909 160.32 441.151 160.648 440.484C160.977 439.812 161.44 439.297 162.039 438.938C162.643 438.573 163.331 438.391 164.102 438.391C165.258 438.391 166.167 438.755 166.828 439.484C167.495 440.214 167.828 441.247 167.828 442.586V443.508H162.445C162.518 444.06 162.737 444.503 163.102 444.836C163.471 445.169 163.938 445.336 164.5 445.336C165.37 445.336 166.049 445.021 166.539 444.391L167.648 445.633C167.31 446.112 166.852 446.487 166.273 446.758C165.695 447.023 165.055 447.156 164.352 447.156ZM164.094 440.219C163.646 440.219 163.281 440.37 163 440.672C162.724 440.974 162.547 441.406 162.469 441.969H165.609V441.789C165.599 441.289 165.464 440.904 165.203 440.633C164.943 440.357 164.573 440.219 164.094 440.219ZM174.016 447C173.911 446.797 173.836 446.544 173.789 446.242C173.242 446.852 172.531 447.156 171.656 447.156C170.828 447.156 170.141 446.917 169.594 446.438C169.052 445.958 168.781 445.354 168.781 444.625C168.781 443.729 169.112 443.042 169.773 442.562C170.44 442.083 171.401 441.841 172.656 441.836H173.695V441.352C173.695 440.961 173.594 440.648 173.391 440.414C173.193 440.18 172.878 440.062 172.445 440.062C172.065 440.062 171.766 440.154 171.547 440.336C171.333 440.518 171.227 440.768 171.227 441.086H168.969C168.969 440.596 169.12 440.143 169.422 439.727C169.724 439.31 170.151 438.984 170.703 438.75C171.255 438.51 171.875 438.391 172.562 438.391C173.604 438.391 174.43 438.654 175.039 439.18C175.654 439.701 175.961 440.435 175.961 441.383V445.047C175.966 445.849 176.078 446.456 176.297 446.867V447H174.016ZM172.148 445.43C172.482 445.43 172.789 445.357 173.07 445.211C173.352 445.06 173.56 444.859 173.695 444.609V443.156H172.852C171.721 443.156 171.12 443.547 171.047 444.328L171.039 444.461C171.039 444.742 171.138 444.974 171.336 445.156C171.534 445.339 171.805 445.43 172.148 445.43ZM180.398 436.469V438.547H181.844V440.203H180.398V444.422C180.398 444.734 180.458 444.958 180.578 445.094C180.698 445.229 180.927 445.297 181.266 445.297C181.516 445.297 181.737 445.279 181.93 445.242V446.953C181.487 447.089 181.031 447.156 180.562 447.156C178.979 447.156 178.172 446.357 178.141 444.758V440.203H176.906V438.547H178.141V436.469H180.398ZM188.164 446.141C187.607 446.818 186.836 447.156 185.852 447.156C184.945 447.156 184.253 446.896 183.773 446.375C183.299 445.854 183.057 445.091 183.047 444.086V438.547H185.305V444.008C185.305 444.888 185.706 445.328 186.508 445.328C187.273 445.328 187.799 445.062 188.086 444.531V438.547H190.352V447H188.227L188.164 446.141ZM196.805 440.664C196.497 440.622 196.227 440.602 195.992 440.602C195.138 440.602 194.578 440.891 194.312 441.469V447H192.055V438.547H194.188L194.25 439.555C194.703 438.779 195.331 438.391 196.133 438.391C196.383 438.391 196.617 438.424 196.836 438.492L196.805 440.664ZM201.633 447.156C200.393 447.156 199.383 446.776 198.602 446.016C197.826 445.255 197.438 444.242 197.438 442.977V442.758C197.438 441.909 197.602 441.151 197.93 440.484C198.258 439.812 198.721 439.297 199.32 438.938C199.924 438.573 200.612 438.391 201.383 438.391C202.539 438.391 203.448 438.755 204.109 439.484C204.776 440.214 205.109 441.247 205.109 442.586V443.508H199.727C199.799 444.06 200.018 444.503 200.383 444.836C200.753 445.169 201.219 445.336 201.781 445.336C202.651 445.336 203.331 445.021 203.82 444.391L204.93 445.633C204.591 446.112 204.133 446.487 203.555 446.758C202.977 447.023 202.336 447.156 201.633 447.156ZM201.375 440.219C200.927 440.219 200.562 440.37 200.281 440.672C200.005 440.974 199.828 441.406 199.75 441.969H202.891V441.789C202.88 441.289 202.745 440.904 202.484 440.633C202.224 440.357 201.854 440.219 201.375 440.219ZM207.109 447.977H205.43L209.617 435.625H211.297L207.109 447.977ZM212.531 447V435.625H216.516C217.896 435.625 218.943 435.891 219.656 436.422C220.37 436.948 220.727 437.721 220.727 438.742C220.727 439.299 220.583 439.792 220.297 440.219C220.01 440.641 219.612 440.951 219.102 441.148C219.685 441.294 220.143 441.589 220.477 442.031C220.815 442.474 220.984 443.016 220.984 443.656C220.984 444.75 220.635 445.578 219.938 446.141C219.24 446.703 218.245 446.99 216.953 447H212.531ZM214.875 442.047V445.117H216.883C217.435 445.117 217.865 444.987 218.172 444.727C218.484 444.461 218.641 444.096 218.641 443.633C218.641 442.591 218.102 442.062 217.023 442.047H214.875ZM214.875 440.391H216.609C217.792 440.37 218.383 439.898 218.383 438.977C218.383 438.461 218.232 438.091 217.93 437.867C217.633 437.638 217.161 437.523 216.516 437.523H214.875V440.391ZM226.492 447.156C225.253 447.156 224.242 446.776 223.461 446.016C222.685 445.255 222.297 444.242 222.297 442.977V442.758C222.297 441.909 222.461 441.151 222.789 440.484C223.117 439.812 223.581 439.297 224.18 438.938C224.784 438.573 225.471 438.391 226.242 438.391C227.398 438.391 228.307 438.755 228.969 439.484C229.635 440.214 229.969 441.247 229.969 442.586V443.508H224.586C224.659 444.06 224.878 444.503 225.242 444.836C225.612 445.169 226.078 445.336 226.641 445.336C227.51 445.336 228.19 445.021 228.68 444.391L229.789 445.633C229.451 446.112 228.992 446.487 228.414 446.758C227.836 447.023 227.195 447.156 226.492 447.156ZM226.234 440.219C225.786 440.219 225.422 440.37 225.141 440.672C224.865 440.974 224.688 441.406 224.609 441.969H227.75V441.789C227.74 441.289 227.604 440.904 227.344 440.633C227.083 440.357 226.714 440.219 226.234 440.219ZM233.336 438.547L233.406 439.523C234.01 438.768 234.82 438.391 235.836 438.391C236.732 438.391 237.398 438.654 237.836 439.18C238.273 439.706 238.497 440.492 238.508 441.539V447H236.25V441.594C236.25 441.115 236.146 440.768 235.938 440.555C235.729 440.336 235.383 440.227 234.898 440.227C234.263 440.227 233.786 440.497 233.469 441.039V447H231.211V438.547H233.336ZM242.609 447H240.344V438.547H242.609V447ZM240.211 436.359C240.211 436.021 240.323 435.742 240.547 435.523C240.776 435.305 241.086 435.195 241.477 435.195C241.862 435.195 242.169 435.305 242.398 435.523C242.628 435.742 242.742 436.021 242.742 436.359C242.742 436.703 242.625 436.984 242.391 437.203C242.161 437.422 241.857 437.531 241.477 437.531C241.096 437.531 240.789 437.422 240.555 437.203C240.326 436.984 240.211 436.703 240.211 436.359ZM245.023 447V440.203H243.766V438.547H245.023V438.156C245.034 437.094 245.359 436.276 246 435.703C246.646 435.125 247.555 434.836 248.727 434.836C249.43 434.836 250.284 434.99 251.289 435.297L250.961 437.164C250.451 437.013 250.055 436.917 249.773 436.875C249.492 436.828 249.19 436.805 248.867 436.805C247.815 436.805 247.289 437.271 247.289 438.203V438.547H248.953V440.203H247.289V447H245.023ZM252.344 447H250.078V438.547H252.344V447ZM256.914 436.469V438.547H258.359V440.203H256.914V444.422C256.914 444.734 256.974 444.958 257.094 445.094C257.214 445.229 257.443 445.297 257.781 445.297C258.031 445.297 258.253 445.279 258.445 445.242V446.953C258.003 447.089 257.547 447.156 257.078 447.156C255.495 447.156 254.688 446.357 254.656 444.758V440.203H253.422V438.547H254.656V436.469H256.914ZM271.164 442.297C271.164 443.87 270.839 445.073 270.188 445.906C269.536 446.74 268.583 447.156 267.328 447.156C266.089 447.156 265.141 446.747 264.484 445.93C263.828 445.112 263.492 443.94 263.477 442.414V440.32C263.477 438.732 263.805 437.526 264.461 436.703C265.122 435.88 266.073 435.469 267.312 435.469C268.552 435.469 269.5 435.878 270.156 436.695C270.812 437.508 271.148 438.677 271.164 440.203V442.297ZM268.906 440C268.906 439.057 268.776 438.372 268.516 437.945C268.26 437.513 267.859 437.297 267.312 437.297C266.781 437.297 266.388 437.503 266.133 437.914C265.883 438.32 265.75 438.958 265.734 439.828V442.594C265.734 443.521 265.859 444.211 266.109 444.664C266.365 445.112 266.771 445.336 267.328 445.336C267.88 445.336 268.279 445.12 268.523 444.688C268.768 444.255 268.896 443.594 268.906 442.703V440ZM280.492 447H272.695V445.453L276.375 441.531C276.88 440.979 277.253 440.497 277.492 440.086C277.737 439.674 277.859 439.284 277.859 438.914C277.859 438.409 277.732 438.013 277.477 437.727C277.221 437.435 276.857 437.289 276.383 437.289C275.872 437.289 275.469 437.466 275.172 437.82C274.88 438.169 274.734 438.63 274.734 439.203H272.469C272.469 438.51 272.633 437.878 272.961 437.305C273.294 436.732 273.763 436.284 274.367 435.961C274.971 435.633 275.656 435.469 276.422 435.469C277.594 435.469 278.503 435.75 279.148 436.312C279.799 436.875 280.125 437.669 280.125 438.695C280.125 439.258 279.979 439.831 279.688 440.414C279.396 440.997 278.896 441.677 278.188 442.453L275.602 445.18H280.492V447ZM282.086 445.891C282.086 445.531 282.206 445.24 282.445 445.016C282.69 444.792 282.995 444.68 283.359 444.68C283.729 444.68 284.034 444.792 284.273 445.016C284.518 445.24 284.641 445.531 284.641 445.891C284.641 446.245 284.521 446.534 284.281 446.758C284.042 446.977 283.734 447.086 283.359 447.086C282.99 447.086 282.685 446.977 282.445 446.758C282.206 446.534 282.086 446.245 282.086 445.891ZM282.086 439.492C282.086 439.133 282.206 438.841 282.445 438.617C282.69 438.393 282.995 438.281 283.359 438.281C283.729 438.281 284.034 438.393 284.273 438.617C284.518 438.841 284.641 439.133 284.641 439.492C284.641 439.846 284.521 440.135 284.281 440.359C284.042 440.578 283.734 440.688 283.359 440.688C282.99 440.688 282.685 440.578 282.445 440.359C282.206 440.135 282.086 439.846 282.086 439.492ZM294.625 439.984L297.352 435.625H299.117L295.523 441.266L299.203 447H297.422L294.625 442.562L291.812 447H290.039L293.727 441.266L290.125 435.625H291.883L294.625 439.984ZM304.656 439.984L307.383 435.625H309.148L305.555 441.266L309.234 447H307.453L304.656 442.562L301.844 447H300.07L303.758 441.266L300.156 435.625H301.914L304.656 439.984ZM314.688 439.984L317.414 435.625H319.18L315.586 441.266L319.266 447H317.484L314.688 442.562L311.875 447H310.102L313.789 441.266L310.188 435.625H311.945L314.688 439.984ZM324.719 439.984L327.445 435.625H329.211L325.617 441.266L329.297 447H327.516L324.719 442.562L321.906 447H320.133L323.82 441.266L320.219 435.625H321.977L324.719 439.984ZM156.031 458.984L158.758 454.625H160.523L156.93 460.266L160.609 466H158.828L156.031 461.562L153.219 466H151.445L155.133 460.266L151.531 454.625H153.289L156.031 458.984ZM166.062 458.984L168.789 454.625H170.555L166.961 460.266L170.641 466H168.859L166.062 461.562L163.25 466H161.477L165.164 460.266L161.562 454.625H163.32L166.062 458.984ZM176.094 458.984L178.82 454.625H180.586L176.992 460.266L180.672 466H178.891L176.094 461.562L173.281 466H171.508L175.195 460.266L171.594 454.625H173.352L176.094 458.984ZM190.094 458.984L192.82 454.625H194.586L190.992 460.266L194.672 466H192.891L190.094 461.562L187.281 466H185.508L189.195 460.266L185.594 454.625H187.352L190.094 458.984ZM204.094 458.984L206.82 454.625H208.586L204.992 460.266L208.672 466H206.891L204.094 461.562L201.281 466H199.508L203.195 460.266L199.594 454.625H201.352L204.094 458.984ZM218.094 458.984L220.82 454.625H222.586L218.992 460.266L222.672 466H220.891L218.094 461.562L215.281 466H213.508L217.195 460.266L213.594 454.625H215.352L218.094 458.984ZM228.125 458.984L230.852 454.625H232.617L229.023 460.266L232.703 466H230.922L228.125 461.562L225.312 466H223.539L227.227 460.266L223.625 454.625H225.383L228.125 458.984ZM238.156 458.984L240.883 454.625H242.648L239.055 460.266L242.734 466H240.953L238.156 461.562L235.344 466H233.57L237.258 460.266L233.656 454.625H235.414L238.156 458.984ZM252.156 458.984L254.883 454.625H256.648L253.055 460.266L256.734 466H254.953L252.156 461.562L249.344 466H247.57L251.258 460.266L247.656 454.625H249.414L252.156 458.984ZM262.188 458.984L264.914 454.625H266.68L263.086 460.266L266.766 466H264.984L262.188 461.562L259.375 466H257.602L261.289 460.266L257.688 454.625H259.445L262.188 458.984ZM276.188 458.984L278.914 454.625H280.68L277.086 460.266L280.766 466H278.984L276.188 461.562L273.375 466H271.602L275.289 460.266L271.688 454.625H273.445L276.188 458.984ZM290.188 458.984L292.914 454.625H294.68L291.086 460.266L294.766 466H292.984L290.188 461.562L287.375 466H285.602L289.289 460.266L285.688 454.625H287.445L290.188 458.984ZM304.188 458.984L306.914 454.625H308.68L305.086 460.266L308.766 466H306.984L304.188 461.562L301.375 466H299.602L303.289 460.266L299.688 454.625H301.445L304.188 458.984ZM318.188 458.984L320.914 454.625H322.68L319.086 460.266L322.766 466H320.984L318.188 461.562L315.375 466H313.602L317.289 460.266L313.688 454.625H315.445L318.188 458.984ZM332.188 458.984L334.914 454.625H336.68L333.086 460.266L336.766 466H334.984L332.188 461.562L329.375 466H327.602L331.289 460.266L327.688 454.625H329.445L332.188 458.984ZM156.031 477.984L158.758 473.625H160.523L156.93 479.266L160.609 485H158.828L156.031 480.562L153.219 485H151.445L155.133 479.266L151.531 473.625H153.289L156.031 477.984ZM170.031 477.984L172.758 473.625H174.523L170.93 479.266L174.609 485H172.828L170.031 480.562L167.219 485H165.445L169.133 479.266L165.531 473.625H167.289L170.031 477.984ZM184.031 477.984L186.758 473.625H188.523L184.93 479.266L188.609 485H186.828L184.031 480.562L181.219 485H179.445L183.133 479.266L179.531 473.625H181.289L184.031 477.984ZM198.031 477.984L200.758 473.625H202.523L198.93 479.266L202.609 485H200.828L198.031 480.562L195.219 485H193.445L197.133 479.266L193.531 473.625H195.289L198.031 477.984ZM212.031 477.984L214.758 473.625H216.523L212.93 479.266L216.609 485H214.828L212.031 480.562L209.219 485H207.445L211.133 479.266L207.531 473.625H209.289L212.031 477.984ZM222.062 477.984L224.789 473.625H226.555L222.961 479.266L226.641 485H224.859L222.062 480.562L219.25 485H217.477L221.164 479.266L217.562 473.625H219.32L222.062 477.984ZM232.094 477.984L234.82 473.625H236.586L232.992 479.266L236.672 485H234.891L232.094 480.562L229.281 485H227.508L231.195 479.266L227.594 473.625H229.352L232.094 477.984ZM246.094 477.984L248.82 473.625H250.586L246.992 479.266L250.672 485H248.891L246.094 480.562L243.281 485H241.508L245.195 479.266L241.594 473.625H243.352L246.094 477.984ZM256.125 477.984L258.852 473.625H260.617L257.023 479.266L260.703 485H258.922L256.125 480.562L253.312 485H251.539L255.227 479.266L251.625 473.625H253.383L256.125 477.984ZM266.156 477.984L268.883 473.625H270.648L267.055 479.266L270.734 485H268.953L266.156 480.562L263.344 485H261.57L265.258 479.266L261.656 473.625H263.414L266.156 477.984ZM276.188 477.984L278.914 473.625H280.68L277.086 479.266L280.766 485H278.984L276.188 480.562L273.375 485H271.602L275.289 479.266L271.688 473.625H273.445L276.188 477.984ZM286.219 477.984L288.945 473.625H290.711L287.117 479.266L290.797 485H289.016L286.219 480.562L283.406 485H281.633L285.32 479.266L281.719 473.625H283.477L286.219 477.984ZM296.25 477.984L298.977 473.625H300.742L297.148 479.266L300.828 485H299.047L296.25 480.562L293.438 485H291.664L295.352 479.266L291.75 473.625H293.508L296.25 477.984ZM310.25 477.984L312.977 473.625H314.742L311.148 479.266L314.828 485H313.047L310.25 480.562L307.438 485H305.664L309.352 479.266L305.75 473.625H307.508L310.25 477.984ZM320.281 477.984L323.008 473.625H324.773L321.18 479.266L324.859 485H323.078L320.281 480.562L317.469 485H315.695L319.383 479.266L315.781 473.625H317.539L320.281 477.984ZM334.281 477.984L337.008 473.625H338.773L335.18 479.266L338.859 485H337.078L334.281 480.562L331.469 485H329.695L333.383 479.266L329.781 473.625H331.539L334.281 477.984ZM156.031 498.984L158.758 494.625H160.523L156.93 500.266L160.609 506H158.828L156.031 501.562L153.219 506H151.445L155.133 500.266L151.531 494.625H153.289L156.031 498.984ZM166.062 498.984L168.789 494.625H170.555L166.961 500.266L170.641 506H168.859L166.062 501.562L163.25 506H161.477L165.164 500.266L161.562 494.625H163.32L166.062 498.984ZM176.094 498.984L178.82 494.625H180.586L176.992 500.266L180.672 506H178.891L176.094 501.562L173.281 506H171.508L175.195 500.266L171.594 494.625H173.352L176.094 498.984ZM186.125 498.984L188.852 494.625H190.617L187.023 500.266L190.703 506H188.922L186.125 501.562L183.312 506H181.539L185.227 500.266L181.625 494.625H183.383L186.125 498.984ZM196.156 498.984L198.883 494.625H200.648L197.055 500.266L200.734 506H198.953L196.156 501.562L193.344 506H191.57L195.258 500.266L191.656 494.625H193.414L196.156 498.984ZM206.188 498.984L208.914 494.625H210.68L207.086 500.266L210.766 506H208.984L206.188 501.562L203.375 506H201.602L205.289 500.266L201.688 494.625H203.445L206.188 498.984ZM216.219 498.984L218.945 494.625H220.711L217.117 500.266L220.797 506H219.016L216.219 501.562L213.406 506H211.633L215.32 500.266L211.719 494.625H213.477L216.219 498.984ZM222.344 505.242C222.344 504.992 222.417 504.784 222.562 504.617C222.714 504.451 222.938 504.367 223.234 504.367C223.531 504.367 223.755 504.451 223.906 504.617C224.062 504.784 224.141 504.992 224.141 505.242C224.141 505.482 224.062 505.682 223.906 505.844C223.755 506.005 223.531 506.086 223.234 506.086C222.938 506.086 222.714 506.005 222.562 505.844C222.417 505.682 222.344 505.482 222.344 505.242Z" fill="black"/>
<path d="M158.859 562.352H154.359V567H152.016V555.625H159.422V557.523H154.359V560.461H158.859V562.352ZM164.352 567.156C163.112 567.156 162.102 566.776 161.32 566.016C160.544 565.255 160.156 564.242 160.156 562.977V562.758C160.156 561.909 160.32 561.151 160.648 560.484C160.977 559.812 161.44 559.297 162.039 558.938C162.643 558.573 163.331 558.391 164.102 558.391C165.258 558.391 166.167 558.755 166.828 559.484C167.495 560.214 167.828 561.247 167.828 562.586V563.508H162.445C162.518 564.06 162.737 564.503 163.102 564.836C163.471 565.169 163.938 565.336 164.5 565.336C165.37 565.336 166.049 565.021 166.539 564.391L167.648 565.633C167.31 566.112 166.852 566.487 166.273 566.758C165.695 567.023 165.055 567.156 164.352 567.156ZM164.094 560.219C163.646 560.219 163.281 560.37 163 560.672C162.724 560.974 162.547 561.406 162.469 561.969H165.609V561.789C165.599 561.289 165.464 560.904 165.203 560.633C164.943 560.357 164.573 560.219 164.094 560.219ZM174.016 567C173.911 566.797 173.836 566.544 173.789 566.242C173.242 566.852 172.531 567.156 171.656 567.156C170.828 567.156 170.141 566.917 169.594 566.438C169.052 565.958 168.781 565.354 168.781 564.625C168.781 563.729 169.112 563.042 169.773 562.562C170.44 562.083 171.401 561.841 172.656 561.836H173.695V561.352C173.695 560.961 173.594 560.648 173.391 560.414C173.193 560.18 172.878 560.062 172.445 560.062C172.065 560.062 171.766 560.154 171.547 560.336C171.333 560.518 171.227 560.768 171.227 561.086H168.969C168.969 560.596 169.12 560.143 169.422 559.727C169.724 559.31 170.151 558.984 170.703 558.75C171.255 558.51 171.875 558.391 172.562 558.391C173.604 558.391 174.43 558.654 175.039 559.18C175.654 559.701 175.961 560.435 175.961 561.383V565.047C175.966 565.849 176.078 566.456 176.297 566.867V567H174.016ZM172.148 565.43C172.482 565.43 172.789 565.357 173.07 565.211C173.352 565.06 173.56 564.859 173.695 564.609V563.156H172.852C171.721 563.156 171.12 563.547 171.047 564.328L171.039 564.461C171.039 564.742 171.138 564.974 171.336 565.156C171.534 565.339 171.805 565.43 172.148 565.43ZM180.398 556.469V558.547H181.844V560.203H180.398V564.422C180.398 564.734 180.458 564.958 180.578 565.094C180.698 565.229 180.927 565.297 181.266 565.297C181.516 565.297 181.737 565.279 181.93 565.242V566.953C181.487 567.089 181.031 567.156 180.562 567.156C178.979 567.156 178.172 566.357 178.141 564.758V560.203H176.906V558.547H178.141V556.469H180.398ZM188.164 566.141C187.607 566.818 186.836 567.156 185.852 567.156C184.945 567.156 184.253 566.896 183.773 566.375C183.299 565.854 183.057 565.091 183.047 564.086V558.547H185.305V564.008C185.305 564.888 185.706 565.328 186.508 565.328C187.273 565.328 187.799 565.062 188.086 564.531V558.547H190.352V567H188.227L188.164 566.141ZM196.805 560.664C196.497 560.622 196.227 560.602 195.992 560.602C195.138 560.602 194.578 560.891 194.312 561.469V567H192.055V558.547H194.188L194.25 559.555C194.703 558.779 195.331 558.391 196.133 558.391C196.383 558.391 196.617 558.424 196.836 558.492L196.805 560.664ZM201.633 567.156C200.393 567.156 199.383 566.776 198.602 566.016C197.826 565.255 197.438 564.242 197.438 562.977V562.758C197.438 561.909 197.602 561.151 197.93 560.484C198.258 559.812 198.721 559.297 199.32 558.938C199.924 558.573 200.612 558.391 201.383 558.391C202.539 558.391 203.448 558.755 204.109 559.484C204.776 560.214 205.109 561.247 205.109 562.586V563.508H199.727C199.799 564.06 200.018 564.503 200.383 564.836C200.753 565.169 201.219 565.336 201.781 565.336C202.651 565.336 203.331 565.021 203.82 564.391L204.93 565.633C204.591 566.112 204.133 566.487 203.555 566.758C202.977 567.023 202.336 567.156 201.633 567.156ZM201.375 560.219C200.927 560.219 200.562 560.37 200.281 560.672C200.005 560.974 199.828 561.406 199.75 561.969H202.891V561.789C202.88 561.289 202.745 560.904 202.484 560.633C202.224 560.357 201.854 560.219 201.375 560.219ZM207.109 567.977H205.43L209.617 555.625H211.297L207.109 567.977ZM212.531 567V555.625H216.516C217.896 555.625 218.943 555.891 219.656 556.422C220.37 556.948 220.727 557.721 220.727 558.742C220.727 559.299 220.583 559.792 220.297 560.219C220.01 560.641 219.612 560.951 219.102 561.148C219.685 561.294 220.143 561.589 220.477 562.031C220.815 562.474 220.984 563.016 220.984 563.656C220.984 564.75 220.635 565.578 219.938 566.141C219.24 566.703 218.245 566.99 216.953 567H212.531ZM214.875 562.047V565.117H216.883C217.435 565.117 217.865 564.987 218.172 564.727C218.484 564.461 218.641 564.096 218.641 563.633C218.641 562.591 218.102 562.062 217.023 562.047H214.875ZM214.875 560.391H216.609C217.792 560.37 218.383 559.898 218.383 558.977C218.383 558.461 218.232 558.091 217.93 557.867C217.633 557.638 217.161 557.523 216.516 557.523H214.875V560.391ZM226.492 567.156C225.253 567.156 224.242 566.776 223.461 566.016C222.685 565.255 222.297 564.242 222.297 562.977V562.758C222.297 561.909 222.461 561.151 222.789 560.484C223.117 559.812 223.581 559.297 224.18 558.938C224.784 558.573 225.471 558.391 226.242 558.391C227.398 558.391 228.307 558.755 228.969 559.484C229.635 560.214 229.969 561.247 229.969 562.586V563.508H224.586C224.659 564.06 224.878 564.503 225.242 564.836C225.612 565.169 226.078 565.336 226.641 565.336C227.51 565.336 228.19 565.021 228.68 564.391L229.789 565.633C229.451 566.112 228.992 566.487 228.414 566.758C227.836 567.023 227.195 567.156 226.492 567.156ZM226.234 560.219C225.786 560.219 225.422 560.37 225.141 560.672C224.865 560.974 224.688 561.406 224.609 561.969H227.75V561.789C227.74 561.289 227.604 560.904 227.344 560.633C227.083 560.357 226.714 560.219 226.234 560.219ZM233.336 558.547L233.406 559.523C234.01 558.768 234.82 558.391 235.836 558.391C236.732 558.391 237.398 558.654 237.836 559.18C238.273 559.706 238.497 560.492 238.508 561.539V567H236.25V561.594C236.25 561.115 236.146 560.768 235.938 560.555C235.729 560.336 235.383 560.227 234.898 560.227C234.263 560.227 233.786 560.497 233.469 561.039V567H231.211V558.547H233.336ZM242.609 567H240.344V558.547H242.609V567ZM240.211 556.359C240.211 556.021 240.323 555.742 240.547 555.523C240.776 555.305 241.086 555.195 241.477 555.195C241.862 555.195 242.169 555.305 242.398 555.523C242.628 555.742 242.742 556.021 242.742 556.359C242.742 556.703 242.625 556.984 242.391 557.203C242.161 557.422 241.857 557.531 241.477 557.531C241.096 557.531 240.789 557.422 240.555 557.203C240.326 556.984 240.211 556.703 240.211 556.359ZM245.023 567V560.203H243.766V558.547H245.023V558.156C245.034 557.094 245.359 556.276 246 555.703C246.646 555.125 247.555 554.836 248.727 554.836C249.43 554.836 250.284 554.99 251.289 555.297L250.961 557.164C250.451 557.013 250.055 556.917 249.773 556.875C249.492 556.828 249.19 556.805 248.867 556.805C247.815 556.805 247.289 557.271 247.289 558.203V558.547H248.953V560.203H247.289V567H245.023ZM252.344 567H250.078V558.547H252.344V567ZM256.914 556.469V558.547H258.359V560.203H256.914V564.422C256.914 564.734 256.974 564.958 257.094 565.094C257.214 565.229 257.443 565.297 257.781 565.297C258.031 565.297 258.253 565.279 258.445 565.242V566.953C258.003 567.089 257.547 567.156 257.078 567.156C255.495 567.156 254.688 566.357 254.656 564.758V560.203H253.422V558.547H254.656V556.469H256.914ZM271.164 562.297C271.164 563.87 270.839 565.073 270.188 565.906C269.536 566.74 268.583 567.156 267.328 567.156C266.089 567.156 265.141 566.747 264.484 565.93C263.828 565.112 263.492 563.94 263.477 562.414V560.32C263.477 558.732 263.805 557.526 264.461 556.703C265.122 555.88 266.073 555.469 267.312 555.469C268.552 555.469 269.5 555.878 270.156 556.695C270.812 557.508 271.148 558.677 271.164 560.203V562.297ZM268.906 560C268.906 559.057 268.776 558.372 268.516 557.945C268.26 557.513 267.859 557.297 267.312 557.297C266.781 557.297 266.388 557.503 266.133 557.914C265.883 558.32 265.75 558.958 265.734 559.828V562.594C265.734 563.521 265.859 564.211 266.109 564.664C266.365 565.112 266.771 565.336 267.328 565.336C267.88 565.336 268.279 565.12 268.523 564.688C268.768 564.255 268.896 563.594 268.906 562.703V560ZM274.992 560.312H276.195C276.768 560.312 277.193 560.169 277.469 559.883C277.745 559.596 277.883 559.216 277.883 558.742C277.883 558.284 277.745 557.927 277.469 557.672C277.198 557.417 276.823 557.289 276.344 557.289C275.911 557.289 275.549 557.409 275.258 557.648C274.966 557.883 274.82 558.19 274.82 558.57H272.562C272.562 557.977 272.721 557.445 273.039 556.977C273.362 556.503 273.81 556.133 274.383 555.867C274.961 555.602 275.596 555.469 276.289 555.469C277.492 555.469 278.435 555.758 279.117 556.336C279.799 556.909 280.141 557.701 280.141 558.711C280.141 559.232 279.982 559.711 279.664 560.148C279.346 560.586 278.93 560.922 278.414 561.156C279.055 561.385 279.531 561.729 279.844 562.188C280.161 562.646 280.32 563.188 280.32 563.812C280.32 564.823 279.951 565.633 279.211 566.242C278.477 566.852 277.503 567.156 276.289 567.156C275.154 567.156 274.224 566.857 273.5 566.258C272.781 565.659 272.422 564.867 272.422 563.883H274.68C274.68 564.31 274.839 564.659 275.156 564.93C275.479 565.201 275.875 565.336 276.344 565.336C276.88 565.336 277.299 565.195 277.602 564.914C277.909 564.628 278.062 564.25 278.062 563.781C278.062 562.646 277.438 562.078 276.188 562.078H274.992V560.312ZM282.086 565.891C282.086 565.531 282.206 565.24 282.445 565.016C282.69 564.792 282.995 564.68 283.359 564.68C283.729 564.68 284.034 564.792 284.273 565.016C284.518 565.24 284.641 565.531 284.641 565.891C284.641 566.245 284.521 566.534 284.281 566.758C284.042 566.977 283.734 567.086 283.359 567.086C282.99 567.086 282.685 566.977 282.445 566.758C282.206 566.534 282.086 566.245 282.086 565.891ZM282.086 559.492C282.086 559.133 282.206 558.841 282.445 558.617C282.69 558.393 282.995 558.281 283.359 558.281C283.729 558.281 284.034 558.393 284.273 558.617C284.518 558.841 284.641 559.133 284.641 559.492C284.641 559.846 284.521 560.135 284.281 560.359C284.042 560.578 283.734 560.688 283.359 560.688C282.99 560.688 282.685 560.578 282.445 560.359C282.206 560.135 282.086 559.846 282.086 559.492ZM294.625 559.984L297.352 555.625H299.117L295.523 561.266L299.203 567H297.422L294.625 562.562L291.812 567H290.039L293.727 561.266L290.125 555.625H291.883L294.625 559.984ZM304.656 559.984L307.383 555.625H309.148L305.555 561.266L309.234 567H307.453L304.656 562.562L301.844 567H300.07L303.758 561.266L300.156 555.625H301.914L304.656 559.984ZM314.688 559.984L317.414 555.625H319.18L315.586 561.266L319.266 567H317.484L314.688 562.562L311.875 567H310.102L313.789 561.266L310.188 555.625H311.945L314.688 559.984ZM324.719 559.984L327.445 555.625H329.211L325.617 561.266L329.297 567H327.516L324.719 562.562L321.906 567H320.133L323.82 561.266L320.219 555.625H321.977L324.719 559.984ZM156.031 578.984L158.758 574.625H160.523L156.93 580.266L160.609 586H158.828L156.031 581.562L153.219 586H151.445L155.133 580.266L151.531 574.625H153.289L156.031 578.984ZM166.062 578.984L168.789 574.625H170.555L166.961 580.266L170.641 586H168.859L166.062 581.562L163.25 586H161.477L165.164 580.266L161.562 574.625H163.32L166.062 578.984ZM176.094 578.984L178.82 574.625H180.586L176.992 580.266L180.672 586H178.891L176.094 581.562L173.281 586H171.508L175.195 580.266L171.594 574.625H173.352L176.094 578.984ZM190.094 578.984L192.82 574.625H194.586L190.992 580.266L194.672 586H192.891L190.094 581.562L187.281 586H185.508L189.195 580.266L185.594 574.625H187.352L190.094 578.984ZM204.094 578.984L206.82 574.625H208.586L204.992 580.266L208.672 586H206.891L204.094 581.562L201.281 586H199.508L203.195 580.266L199.594 574.625H201.352L204.094 578.984ZM218.094 578.984L220.82 574.625H222.586L218.992 580.266L222.672 586H220.891L218.094 581.562L215.281 586H213.508L217.195 580.266L213.594 574.625H215.352L218.094 578.984ZM228.125 578.984L230.852 574.625H232.617L229.023 580.266L232.703 586H230.922L228.125 581.562L225.312 586H223.539L227.227 580.266L223.625 574.625H225.383L228.125 578.984ZM238.156 578.984L240.883 574.625H242.648L239.055 580.266L242.734 586H240.953L238.156 581.562L235.344 586H233.57L237.258 580.266L233.656 574.625H235.414L238.156 578.984ZM252.156 578.984L254.883 574.625H256.648L253.055 580.266L256.734 586H254.953L252.156 581.562L249.344 586H247.57L251.258 580.266L247.656 574.625H249.414L252.156 578.984ZM262.188 578.984L264.914 574.625H266.68L263.086 580.266L266.766 586H264.984L262.188 581.562L259.375 586H257.602L261.289 580.266L257.688 574.625H259.445L262.188 578.984ZM276.188 578.984L278.914 574.625H280.68L277.086 580.266L280.766 586H278.984L276.188 581.562L273.375 586H271.602L275.289 580.266L271.688 574.625H273.445L276.188 578.984ZM290.188 578.984L292.914 574.625H294.68L291.086 580.266L294.766 586H292.984L290.188 581.562L287.375 586H285.602L289.289 580.266L285.688 574.625H287.445L290.188 578.984ZM304.188 578.984L306.914 574.625H308.68L305.086 580.266L308.766 586H306.984L304.188 581.562L301.375 586H299.602L303.289 580.266L299.688 574.625H301.445L304.188 578.984ZM318.188 578.984L320.914 574.625H322.68L319.086 580.266L322.766 586H320.984L318.188 581.562L315.375 586H313.602L317.289 580.266L313.688 574.625H315.445L318.188 578.984ZM332.188 578.984L334.914 574.625H336.68L333.086 580.266L336.766 586H334.984L332.188 581.562L329.375 586H327.602L331.289 580.266L327.688 574.625H329.445L332.188 578.984ZM156.031 597.984L158.758 593.625H160.523L156.93 599.266L160.609 605H158.828L156.031 600.562L153.219 605H151.445L155.133 599.266L151.531 593.625H153.289L156.031 597.984ZM170.031 597.984L172.758 593.625H174.523L170.93 599.266L174.609 605H172.828L170.031 600.562L167.219 605H165.445L169.133 599.266L165.531 593.625H167.289L170.031 597.984ZM184.031 597.984L186.758 593.625H188.523L184.93 599.266L188.609 605H186.828L184.031 600.562L181.219 605H179.445L183.133 599.266L179.531 593.625H181.289L184.031 597.984ZM198.031 597.984L200.758 593.625H202.523L198.93 599.266L202.609 605H200.828L198.031 600.562L195.219 605H193.445L197.133 599.266L193.531 593.625H195.289L198.031 597.984ZM212.031 597.984L214.758 593.625H216.523L212.93 599.266L216.609 605H214.828L212.031 600.562L209.219 605H207.445L211.133 599.266L207.531 593.625H209.289L212.031 597.984ZM222.062 597.984L224.789 593.625H226.555L222.961 599.266L226.641 605H224.859L222.062 600.562L219.25 605H217.477L221.164 599.266L217.562 593.625H219.32L222.062 597.984ZM232.094 597.984L234.82 593.625H236.586L232.992 599.266L236.672 605H234.891L232.094 600.562L229.281 605H227.508L231.195 599.266L227.594 593.625H229.352L232.094 597.984ZM246.094 597.984L248.82 593.625H250.586L246.992 599.266L250.672 605H248.891L246.094 600.562L243.281 605H241.508L245.195 599.266L241.594 593.625H243.352L246.094 597.984ZM256.125 597.984L258.852 593.625H260.617L257.023 599.266L260.703 605H258.922L256.125 600.562L253.312 605H251.539L255.227 599.266L251.625 593.625H253.383L256.125 597.984ZM266.156 597.984L268.883 593.625H270.648L267.055 599.266L270.734 605H268.953L266.156 600.562L263.344 605H261.57L265.258 599.266L261.656 593.625H263.414L266.156 597.984ZM276.188 597.984L278.914 593.625H280.68L277.086 599.266L280.766 605H278.984L276.188 600.562L273.375 605H271.602L275.289 599.266L271.688 593.625H273.445L276.188 597.984ZM286.219 597.984L288.945 593.625H290.711L287.117 599.266L290.797 605H289.016L286.219 600.562L283.406 605H281.633L285.32 599.266L281.719 593.625H283.477L286.219 597.984ZM296.25 597.984L298.977 593.625H300.742L297.148 599.266L300.828 605H299.047L296.25 600.562L293.438 605H291.664L295.352 599.266L291.75 593.625H293.508L296.25 597.984ZM310.25 597.984L312.977 593.625H314.742L311.148 599.266L314.828 605H313.047L310.25 600.562L307.438 605H305.664L309.352 599.266L305.75 593.625H307.508L310.25 597.984ZM320.281 597.984L323.008 593.625H324.773L321.18 599.266L324.859 605H323.078L320.281 600.562L317.469 605H315.695L319.383 599.266L315.781 593.625H317.539L320.281 597.984ZM334.281 597.984L337.008 593.625H338.773L335.18 599.266L338.859 605H337.078L334.281 600.562L331.469 605H329.695L333.383 599.266L329.781 593.625H331.539L334.281 597.984ZM156.031 618.984L158.758 614.625H160.523L156.93 620.266L160.609 626H158.828L156.031 621.562L153.219 626H151.445L155.133 620.266L151.531 614.625H153.289L156.031 618.984ZM166.062 618.984L168.789 614.625H170.555L166.961 620.266L170.641 626H168.859L166.062 621.562L163.25 626H161.477L165.164 620.266L161.562 614.625H163.32L166.062 618.984ZM176.094 618.984L178.82 614.625H180.586L176.992 620.266L180.672 626H178.891L176.094 621.562L173.281 626H171.508L175.195 620.266L171.594 614.625H173.352L176.094 618.984ZM186.125 618.984L188.852 614.625H190.617L187.023 620.266L190.703 626H188.922L186.125 621.562L183.312 626H181.539L185.227 620.266L181.625 614.625H183.383L186.125 618.984ZM196.156 618.984L198.883 614.625H200.648L197.055 620.266L200.734 626H198.953L196.156 621.562L193.344 626H191.57L195.258 620.266L191.656 614.625H193.414L196.156 618.984ZM206.188 618.984L208.914 614.625H210.68L207.086 620.266L210.766 626H208.984L206.188 621.562L203.375 626H201.602L205.289 620.266L201.688 614.625H203.445L206.188 618.984ZM216.219 618.984L218.945 614.625H220.711L217.117 620.266L220.797 626H219.016L216.219 621.562L213.406 626H211.633L215.32 620.266L211.719 614.625H213.477L216.219 618.984ZM222.344 625.242C222.344 624.992 222.417 624.784 222.562 624.617C222.714 624.451 222.938 624.367 223.234 624.367C223.531 624.367 223.755 624.451 223.906 624.617C224.062 624.784 224.141 624.992 224.141 625.242C224.141 625.482 224.062 625.682 223.906 625.844C223.755 626.005 223.531 626.086 223.234 626.086C222.938 626.086 222.714 626.005 222.562 625.844C222.417 625.682 222.344 625.482 222.344 625.242Z" fill="black"/>
<path d="M73.5195 224.994V228H71.7617V219.469H75.0898C75.7305 219.469 76.293 219.586 76.7773 219.82C77.2656 220.055 77.6406 220.389 77.9023 220.822C78.1641 221.252 78.2949 221.742 78.2949 222.293C78.2949 223.129 78.0078 223.789 77.4336 224.273C76.8633 224.754 76.0723 224.994 75.0605 224.994H73.5195ZM73.5195 223.57H75.0898C75.5547 223.57 75.9082 223.461 76.1504 223.242C76.3965 223.023 76.5195 222.711 76.5195 222.305C76.5195 221.887 76.3965 221.549 76.1504 221.291C75.9043 221.033 75.5645 220.9 75.1309 220.893H73.5195V223.57ZM82.959 223.248C82.7285 223.217 82.5254 223.201 82.3496 223.201C81.709 223.201 81.2891 223.418 81.0898 223.852V228H79.3965V221.66H80.9961L81.043 222.416C81.3828 221.834 81.8535 221.543 82.4551 221.543C82.6426 221.543 82.8184 221.568 82.9824 221.619L82.959 223.248ZM83.3047 224.771C83.3047 224.143 83.4258 223.582 83.668 223.09C83.9102 222.598 84.2578 222.217 84.7109 221.947C85.168 221.678 85.6973 221.543 86.2988 221.543C87.1543 221.543 87.8516 221.805 88.3906 222.328C88.9336 222.852 89.2363 223.562 89.2988 224.461L89.3105 224.895C89.3105 225.867 89.0391 226.648 88.4961 227.238C87.9531 227.824 87.2246 228.117 86.3105 228.117C85.3965 228.117 84.666 227.824 84.1191 227.238C83.5762 226.652 83.3047 225.855 83.3047 224.848V224.771ZM84.998 224.895C84.998 225.496 85.1113 225.957 85.3379 226.277C85.5645 226.594 85.8887 226.752 86.3105 226.752C86.7207 226.752 87.041 226.596 87.2715 226.283C87.502 225.967 87.6172 225.463 87.6172 224.771C87.6172 224.182 87.502 223.725 87.2715 223.4C87.041 223.076 86.7168 222.914 86.2988 222.914C85.8848 222.914 85.5645 223.076 85.3379 223.4C85.1113 223.721 84.998 224.219 84.998 224.895ZM90.0898 224.783C90.0898 223.795 90.3105 223.008 90.752 222.422C91.1973 221.836 91.8047 221.543 92.5742 221.543C93.1914 221.543 93.7012 221.773 94.1035 222.234V219H95.8027V228H94.2734L94.1914 227.326C93.7695 227.854 93.2266 228.117 92.5625 228.117C91.8164 228.117 91.2168 227.824 90.7637 227.238C90.3145 226.648 90.0898 225.83 90.0898 224.783ZM91.7832 224.906C91.7832 225.5 91.8867 225.955 92.0938 226.271C92.3008 226.588 92.6016 226.746 92.9961 226.746C93.5195 226.746 93.8887 226.525 94.1035 226.084V223.582C93.8926 223.141 93.5273 222.92 93.0078 222.92C92.1914 222.92 91.7832 223.582 91.7832 224.906ZM100.912 227.355C100.494 227.863 99.916 228.117 99.1777 228.117C98.498 228.117 97.9785 227.922 97.6191 227.531C97.2637 227.141 97.082 226.568 97.0742 225.814V221.66H98.7676V225.756C98.7676 226.416 99.0684 226.746 99.6699 226.746C100.244 226.746 100.639 226.547 100.854 226.148V221.66H102.553V228H100.959L100.912 227.355ZM106.467 226.752C106.779 226.752 107.033 226.666 107.229 226.494C107.424 226.322 107.525 226.094 107.533 225.809H109.121C109.117 226.238 109 226.633 108.77 226.992C108.539 227.348 108.223 227.625 107.82 227.824C107.422 228.02 106.98 228.117 106.496 228.117C105.59 228.117 104.875 227.83 104.352 227.256C103.828 226.678 103.566 225.881 103.566 224.865V224.754C103.566 223.777 103.826 222.998 104.346 222.416C104.865 221.834 105.578 221.543 106.484 221.543C107.277 221.543 107.912 221.77 108.389 222.223C108.869 222.672 109.113 223.271 109.121 224.021H107.533C107.525 223.693 107.424 223.428 107.229 223.225C107.033 223.018 106.775 222.914 106.455 222.914C106.061 222.914 105.762 223.059 105.559 223.348C105.359 223.633 105.26 224.098 105.26 224.742V224.918C105.26 225.57 105.359 226.039 105.559 226.324C105.758 226.609 106.061 226.752 106.467 226.752ZM112.115 220.102V221.66H113.199V222.902H112.115V226.066C112.115 226.301 112.16 226.469 112.25 226.57C112.34 226.672 112.512 226.723 112.766 226.723C112.953 226.723 113.119 226.709 113.264 226.682V227.965C112.932 228.066 112.59 228.117 112.238 228.117C111.051 228.117 110.445 227.518 110.422 226.318V222.902H109.496V221.66H110.422V220.102H112.115ZM121.666 225.762C121.666 225.43 121.549 225.176 121.314 225C121.08 224.82 120.658 224.633 120.049 224.438C119.439 224.238 118.957 224.043 118.602 223.852C117.633 223.328 117.148 222.623 117.148 221.736C117.148 221.275 117.277 220.865 117.535 220.506C117.797 220.143 118.17 219.859 118.654 219.656C119.143 219.453 119.689 219.352 120.295 219.352C120.904 219.352 121.447 219.463 121.924 219.686C122.4 219.904 122.77 220.215 123.031 220.617C123.297 221.02 123.43 221.477 123.43 221.988H121.672C121.672 221.598 121.549 221.295 121.303 221.08C121.057 220.861 120.711 220.752 120.266 220.752C119.836 220.752 119.502 220.844 119.264 221.027C119.025 221.207 118.906 221.445 118.906 221.742C118.906 222.02 119.045 222.252 119.322 222.439C119.604 222.627 120.016 222.803 120.559 222.967C121.559 223.268 122.287 223.641 122.744 224.086C123.201 224.531 123.43 225.086 123.43 225.75C123.43 226.488 123.15 227.068 122.592 227.49C122.033 227.908 121.281 228.117 120.336 228.117C119.68 228.117 119.082 227.998 118.543 227.76C118.004 227.518 117.592 227.188 117.307 226.77C117.025 226.352 116.885 225.867 116.885 225.316H118.648C118.648 226.258 119.211 226.729 120.336 226.729C120.754 226.729 121.08 226.645 121.314 226.477C121.549 226.305 121.666 226.066 121.666 225.762ZM126.166 222.352C126.615 221.812 127.18 221.543 127.859 221.543C129.234 221.543 129.932 222.342 129.951 223.939V228H128.258V223.986C128.258 223.623 128.18 223.355 128.023 223.184C127.867 223.008 127.607 222.92 127.244 222.92C126.748 222.92 126.389 223.111 126.166 223.494V228H124.473V219H126.166V222.352ZM130.965 224.771C130.965 224.143 131.086 223.582 131.328 223.09C131.57 222.598 131.918 222.217 132.371 221.947C132.828 221.678 133.357 221.543 133.959 221.543C134.814 221.543 135.512 221.805 136.051 222.328C136.594 222.852 136.896 223.562 136.959 224.461L136.971 224.895C136.971 225.867 136.699 226.648 136.156 227.238C135.613 227.824 134.885 228.117 133.971 228.117C133.057 228.117 132.326 227.824 131.779 227.238C131.236 226.652 130.965 225.855 130.965 224.848V224.771ZM132.658 224.895C132.658 225.496 132.771 225.957 132.998 226.277C133.225 226.594 133.549 226.752 133.971 226.752C134.381 226.752 134.701 226.596 134.932 226.283C135.162 225.967 135.277 225.463 135.277 224.771C135.277 224.182 135.162 223.725 134.932 223.4C134.701 223.076 134.377 222.914 133.959 222.914C133.545 222.914 133.225 223.076 132.998 223.4C132.771 223.721 132.658 224.219 132.658 224.895ZM140.041 220.102V221.66H141.125V222.902H140.041V226.066C140.041 226.301 140.086 226.469 140.176 226.57C140.266 226.672 140.438 226.723 140.691 226.723C140.879 226.723 141.045 226.709 141.189 226.682V227.965C140.857 228.066 140.516 228.117 140.164 228.117C138.977 228.117 138.371 227.518 138.348 226.318V222.902H137.422V221.66H138.348V220.102H140.041Z" fill="black"/>
</svg>
