<?xml version="1.0" ?>
<!DOCTYPE svg  PUBLIC '-//W3C//DTD SVG 1.1//EN'  'http://www.w3.org/Graphics/SVG/1.1/DTD/svg11.dtd'>
<svg height="60" style="fill-rule:evenodd;clip-rule:evenodd;stroke-linejoin:round;stroke-miterlimit:2;" version="1.1" viewBox="0 0 512 512" width="100%" xml:space="preserve" xmlns="http://www.w3.org/2000/svg" xmlns:serif="http://www.serif.com/" xmlns:xlink="http://www.w3.org/1999/xlink"><g id="path4" transform="matrix(0.347805,0,0,0.347805,150.51,103.851)"><path d="M240.081,124.642C252.92,123.062 266.81,124.443 277.67,132.053C290.191,140.273 297.08,155.242 297.531,169.963C298.4,174.312 297.351,178.663 297.181,183.023C295.751,196.333 288.791,209.293 277.5,216.773C265.381,224.863 249.83,226.163 235.841,223.214C223.921,220.672 213.05,213.433 206.59,203.032C198.83,190.693 197.421,175.173 200.311,161.124C203.001,147.682 211.96,135.573 224.34,129.543C229.26,127.033 234.63,125.493 240.081,124.642ZM568.381,277.694C581.311,275.583 594.241,273.523 607.171,271.353C607.221,299.143 607.131,326.933 607.212,354.723C594.391,357.154 581.541,359.433 568.721,361.803C549.501,364.893 529.421,370.483 515.12,384.433C503.451,395.413 497.851,411.373 496.672,427.063C495.851,438.324 496.501,449.663 496.301,460.954C496.331,518.674 496.231,576.394 496.34,634.115C474.091,629.635 451.851,625.084 429.601,620.624C425.341,619.884 421.181,618.654 416.881,618.274C415.8,612.244 416.671,606.034 416.401,599.933C416.401,538.594 416.381,477.244 416.411,415.904C417.061,396.594 420.271,377.093 428.261,359.373C436.091,341.393 449.501,326.133 465.591,315.043C487.011,300.303 511.851,291.572 536.781,284.854C547.242,282.193 557.662,279.173 568.382,277.694L568.381,277.694ZM-302.811,288.443C-283.63,277.353 -261.362,271.973 -239.261,272.193C-204.091,273.484 -169.902,291.833 -149.361,320.423C-138.901,306.333 -124.61,295.334 -109,287.493C-73.961,270.603 -31.641,268.063 4.58,282.773C21.359,289.653 36.62,300.433 48.26,314.383C60.21,328.483 68.389,345.544 73.119,363.353C78.14,381.743 79.469,400.923 79.1,419.923C79.109,491.344 79.07,562.763 79.12,634.174C52.52,628.694 25.889,623.254 -0.771,618.084C-1.041,549.683 -0.741,481.284 -0.91,412.894C-0.78,397.243 -6.171,381.143 -17.53,370.084C-29.65,357.752 -47.29,352.003 -64.34,352.313C-79.551,352.054 -95.161,356.493 -107.002,366.283C-120.64,377.103 -127.871,394.693 -127.83,411.913C-127.781,485.993 -127.89,560.073 -127.781,634.154C-154.421,628.733 -181.062,623.164 -207.771,618.104C-208.211,596.064 -207.831,574.004 -207.96,551.955C-207.951,505.934 -207.96,459.914 -207.951,413.904C-207.362,398.133 -212.742,381.833 -223.992,370.543C-233.752,360.333 -247.381,354.534 -261.262,352.803C-274.262,351.463 -287.781,352.444 -299.902,357.623C-312.821,362.843 -323.732,372.972 -329.672,385.604C-333.702,394.103 -335.462,403.533 -335.501,412.903C-335.492,470.583 -335.501,528.264 -335.501,585.944C-335.372,601.955 -335.762,617.983 -335.301,633.983C-361.921,629.033 -388.352,623.104 -414.962,618.163C-415.532,608.774 -414.742,599.353 -415.391,589.983C-414.982,579.303 -415.012,568.573 -415.372,557.904C-414.742,547.923 -415.492,537.923 -415.132,527.944C-415.172,499.623 -415.141,471.293 -415.153,442.973C-415.301,425.284 -414.842,407.572 -415.382,389.904C-415.001,379.934 -414.992,369.913 -415.382,359.943C-414.851,340.283 -415.292,320.573 -415.162,300.903C-414.952,299.013 -416.442,296.143 -414.402,294.953C-388.092,289.784 -361.751,284.743 -335.432,279.623C-335.612,291.673 -335.422,303.723 -335.532,315.773C-326.142,305.032 -315.312,295.433 -302.811,288.443L-302.811,288.443ZM842.127,272.683C880.996,270.153 921.405,277.203 954.956,297.713C973.593,309.083 989.762,324.423 1002.25,342.333C1013.25,358.313 1021.38,376.213 1026.71,394.853C1032.57,414.993 1034.79,436.024 1034.98,456.944C1034.89,495.183 1026.04,534.133 1005.2,566.564C986.722,595.393 958.692,617.914 926.517,629.635C905.835,637.404 883.777,641.104 861.732,641.545C820.082,642.384 777.164,632.234 743.067,607.575C714.288,587.094 693.115,556.774 682.331,523.254C674.874,500.644 671.861,476.703 672.242,452.954C672.542,411.634 684.58,369.514 710.538,336.863C731.697,309.913 761.8,290.563 794.588,280.963C810.048,276.383 826.04,273.683 842.127,272.683ZM853.961,347.333C831.438,347.743 808.616,354.763 791.111,369.253C776.687,380.894 766.312,397.094 760.532,414.633C754.165,433.694 752.856,454.193 755.106,474.084C757.846,497.034 766.817,519.764 782.945,536.634C795.583,550.144 812.516,559.254 830.457,563.454C852.884,568.574 877.287,567.644 898.296,557.744C913.797,550.684 926.735,538.574 935.665,524.144C945.726,507.803 950.88,488.824 952.448,469.803C954.22,448.174 951.916,425.943 943.94,405.664C936.851,387.473 924.295,371.212 907.608,360.873C891.711,350.873 872.625,346.654 853.961,347.333ZM207.82,295.092C234.49,289.964 261.13,284.713 287.811,279.643C287.67,397.844 287.67,515.994 287.74,634.164C261.19,628.804 234.68,623.144 208.07,618.214C207.35,607.814 207.951,597.354 207.76,586.924C207.8,489.644 207.67,392.363 207.82,295.092Z"/></g></svg>