<svg width="80" height="80" viewBox="0 0 400 400"
xmlns="http://www.w3.org/2000/svg">

<path fill="#56676E" d="M226.574 76.155c7.614 115.444-114.02 99.593-114.02 99.593C196.088 176.93 231.315 18.622 95.78 2.013 102.78.7 109.882.027 117 0c50.276 0 93.02 31.718 109.574 76.155z"/>
<path fill="#56676E" d="M174.642 123.72S203.37 2.823 74.058 8.223C30.696 25.322 0 67.438 0 116.796c.04 5.315.442 10.62 1.203 15.882 27.214-136.78 182.254-92.482 173.44-8.957z"/>
<path fill="#56676E" d="M7.757 159.36C5.89 27.193 127.312 61.043 127.312 61.043 43.97 48.91-7.815 200.985 128.422 233.42c-3.788.372-7.63.58-11.52.58-.1 0-.198-.008-.295-.016-.097-.007-.195-.015-.293-.015-5.16-.06-10.31-.46-15.418-1.196a130.5 130.5 0 0 1-4.502-.688c-4.922-.83-9.786-1.98-14.56-3.437-.56-.175-1.098-.383-1.637-.59l-.006-.003-.01-.004c-.414-.16-.827-.32-1.25-.463a115.582 115.582 0 0 1-11.698-4.74l-.878-.412a93.122 93.122 0 0 1-3.035-1.47 116.377 116.377 0 0 1-12.81-7.592c-.325-.225-.64-.467-.954-.71l-.016-.01-.005-.005c-.263-.2-.527-.403-.798-.596a117.278 117.278 0 0 1-11.096-9.027c-.205-.19-.413-.377-.62-.563l-.036-.032-.003-.002-.017-.016c-.305-.274-.61-.547-.91-.83A117.058 117.058 0 0 1 7.757 159.36z"/>
<path fill="#56676E" d="M157.756 226.18C27.342 225.14 59.88 105.465 59.88 105.465c-13.302 82.982 139.123 136.016 173.577.617.32 3.537.543 7.107.543 10.726 0 .442-.03.877-.062 1.31v.015c-.03.387-.057.774-.063 1.165-.07 3.177-.165 6.348-.48 9.457-4.57 44.944-34.72 82.224-75.64 97.43z"/>
<path fill="#4E4F50" d="M149.765 116.808c0 6.47-1.923 12.797-5.524 18.177a32.759 32.759 0 0 1-14.71 12.05 32.836 32.836 0 0 1-18.935 1.86 32.795 32.795 0 0 1-16.78-8.957 32.667 32.667 0 0 1-7.097-35.657 32.743 32.743 0 0 1 12.075-14.68 32.815 32.815 0 0 1 18.21-5.507 32.796 32.796 0 0 1 23.167 9.585 32.686 32.686 0 0 1 9.595 23.13z"/>
</svg>